<svg xmlns="http://www.w3.org/2000/svg" width="14" height="14" viewBox="0 0 14 14" fill="none">
  <g clip-path="url(#clip0_1_2058)">
    <path d="M1.4 2.8H12.6C13.3732 2.8 14 2.17317 14 1.4C14 0.626827 13.3732 0 12.6 0H1.4C0.626827 0 0 0.626827 0 1.4C0 2.17317 0.626827 2.8 1.4 2.8Z" fill="currentColor"/>
    <path d="M12.6 5.59961H1.4C0.626827 5.59961 0 6.22644 0 6.99961C0 7.77278 0.626827 8.39961 1.4 8.39961H12.6C13.3732 8.39961 14 7.77278 14 6.99961C14 6.22644 13.3732 5.59961 12.6 5.59961Z" fill="currentColor"/>
    <path d="M12.6 11.2002H1.4C0.626827 11.2002 0 11.827 0 12.6002C0 13.3734 0.626827 14.0002 1.4 14.0002H12.6C13.3732 14.0002 14 13.3734 14 12.6002C14 11.827 13.3732 11.2002 12.6 11.2002Z" fill="currentColor"/>
  </g>
  <defs>
    <clipPath id="clip0_1_2058">
      <rect width="14" height="14" fill="white"/>
    </clipPath>
  </defs>
</svg>