<svg xmlns="http://www.w3.org/2000/svg" width="27" height="41" viewBox="0 0 27 41" fill="none">
  <path d="M23.834 0.25L24.1221 0.264648C24.7893 0.331633 25.4162 0.627148 25.8945 1.10547C26.4412 1.65212 26.749 2.39294 26.75 3.16602V37.834C26.749 38.6071 26.4412 39.3479 25.8945 39.8945C25.3479 40.4412 24.6071 40.749 23.834 40.75H3.16602C2.39294 40.749 1.65212 40.4412 1.10547 39.8945C0.558816 39.3479 0.250966 38.6071 0.25 37.834V3.16602L0.264648 2.87793C0.331633 2.2107 0.627148 1.58379 1.10547 1.10547C1.65212 0.558816 2.39294 0.250966 3.16602 0.25H23.834ZM3.41699 37.583H23.585L23.583 3.41699H3.41699V37.583Z" fill="#00256C" stroke="#00256C" stroke-width="0.5"/>
  <path d="M15.75 30.9248V33.75H12.25V30.9248H15.75ZM18.75 8.25V11.0752H9.25V8.25H18.75Z" fill="#00256C" stroke="#00256C" stroke-width="0.5"/>
</svg>