<svg xmlns="http://www.w3.org/2000/svg" width="40" height="40" viewBox="0 0 40 40" fill="none">
  <rect width="40" height="40" rx="8" fill="#011F57"/>
  <path fill-rule="evenodd" clip-rule="evenodd" d="M20 32C21.5759 32 23.1363 31.6896 24.5922 31.0866C26.0481 30.4835 27.371 29.5996 28.4853 28.4853C29.5996 27.371 30.4835 26.0481 31.0866 24.5922C31.6896 23.1363 32 21.5759 32 20C32 18.4241 31.6896 16.8637 31.0866 15.4078C30.4835 13.9519 29.5996 12.629 28.4853 11.5147C27.371 10.4004 26.0481 9.5165 24.5922 8.91345C23.1363 8.31039 21.5759 8 20 8C16.8174 8 13.7652 9.26428 11.5147 11.5147C9.26428 13.7652 8 16.8174 8 20C8 23.1826 9.26428 26.2348 11.5147 28.4853C13.7652 30.7357 16.8174 32 20 32ZM19.6907 24.8533L26.3573 16.8533L24.3093 15.1467L18.576 22.0253L15.6093 19.0573L13.724 20.9427L17.724 24.9427L18.756 25.9747L19.6907 24.8533Z" fill="#EFAF20"/>
</svg>