<svg xmlns="http://www.w3.org/2000/svg" width="24" height="24" viewBox="0 0 24 24" fill="none">
  <path d="M10.0833 16.7062L5.45455 12.0764L6.99709 10.5338L10.0833 13.6189L16.2535 7.44763L17.7971 8.99127L10.0833 16.7062Z" fill="#00256C"/>
  <path fill-rule="evenodd" clip-rule="evenodd" d="M0 12C0 5.37273 5.37273 0 12 0C18.6273 0 24 5.37273 24 12C24 18.6273 18.6273 24 12 24C5.37273 24 0 18.6273 0 12ZM12 21.8182C10.7107 21.8182 9.43394 21.5642 8.24274 21.0708C7.05155 20.5774 5.9692 19.8542 5.0575 18.9425C4.14579 18.0308 3.42259 16.9485 2.92918 15.7573C2.43577 14.5661 2.18182 13.2893 2.18182 12C2.18182 10.7107 2.43577 9.43394 2.92918 8.24274C3.42259 7.05155 4.14579 5.9692 5.0575 5.0575C5.9692 4.14579 7.05155 3.42259 8.24274 2.92918C9.43394 2.43577 10.7107 2.18182 12 2.18182C14.6039 2.18182 17.1012 3.21623 18.9425 5.0575C20.7838 6.89876 21.8182 9.39606 21.8182 12C21.8182 14.6039 20.7838 17.1012 18.9425 18.9425C17.1012 20.7838 14.6039 21.8182 12 21.8182Z" fill="#00256C"/>
</svg>