<svg xmlns="http://www.w3.org/2000/svg" width="27" height="27" viewBox="0 0 27 27" fill="none">
  <path d="M11.2652 2.13783C11.5154 1.85849 11.8216 1.63504 12.1639 1.48205C12.5062 1.32907 12.877 1.25 13.2519 1.25C13.6269 1.25 13.9976 1.32907 14.3399 1.48205C14.6822 1.63504 14.9885 1.85849 15.2386 2.13783L16.1719 3.18049C16.4387 3.47849 16.769 3.71267 17.1385 3.86569C17.508 4.01871 17.9072 4.08666 18.3066 4.06449L19.7066 3.98716C20.081 3.96652 20.4556 4.02509 20.8059 4.15906C21.1562 4.29302 21.4743 4.49937 21.7394 4.76461C22.0045 5.02986 22.2107 5.34805 22.3445 5.6984C22.4783 6.04875 22.5367 6.42338 22.5159 6.79783L22.4386 8.19649C22.4166 8.5956 22.4847 8.99455 22.6377 9.36381C22.7907 9.73308 23.0248 10.0632 23.3226 10.3298L24.3652 11.2632C24.6448 11.5133 24.8684 11.8196 25.0216 12.162C25.1747 12.5045 25.2538 12.8754 25.2538 13.2505C25.2538 13.6256 25.1747 13.9965 25.0216 14.339C24.8684 14.6814 24.6448 14.9877 24.3652 15.2378L23.3226 16.1712C23.0246 16.4379 22.7904 16.7683 22.6374 17.1378C22.4844 17.5073 22.4164 17.9065 22.4386 18.3058L22.5159 19.7058C22.5365 20.0803 22.478 20.4549 22.344 20.8052C22.21 21.1555 22.0037 21.4735 21.7385 21.7387C21.4732 22.0038 21.155 22.21 20.8047 22.3438C20.4543 22.4776 20.0797 22.536 19.7052 22.5152L18.3066 22.4378C17.9075 22.4159 17.5085 22.4839 17.1393 22.6369C16.77 22.7899 16.4398 23.024 16.1732 23.3218L15.2399 24.3645C14.9898 24.6441 14.6835 24.8677 14.341 25.0208C13.9986 25.1739 13.6277 25.2531 13.2526 25.2531C12.8775 25.2531 12.5066 25.1739 12.1641 25.0208C11.8217 24.8677 11.5154 24.6441 11.2652 24.3645L10.3319 23.3218C10.0652 23.0238 9.7348 22.7897 9.36528 22.6366C8.99577 22.4836 8.59657 22.4157 8.19724 22.4378L6.79724 22.5152C6.42278 22.5358 6.04818 22.4772 5.69789 22.3433C5.34761 22.2093 5.02952 22.003 4.7644 21.7377C4.49927 21.4725 4.29308 21.1543 4.15928 20.8039C4.02548 20.4536 3.96709 20.0789 3.98791 19.7045L4.06524 18.3058C4.0872 17.9067 4.01915 17.5078 3.86614 17.1385C3.71312 16.7692 3.47905 16.4391 3.18124 16.1725L2.13857 15.2392C1.85901 14.989 1.63537 14.6827 1.48226 14.3403C1.32914 13.9978 1.25 13.6269 1.25 13.2518C1.25 12.8767 1.32914 12.5058 1.48226 12.1634C1.63537 11.8209 1.85901 11.5146 2.13857 11.2645L3.18124 10.3312C3.47923 10.0644 3.71341 9.73405 3.86643 9.36454C4.01945 8.99502 4.0874 8.59582 4.06524 8.19649L3.98791 6.79649C3.96746 6.42214 4.02618 6.04769 4.16023 5.69756C4.29428 5.34744 4.50065 5.02952 4.76588 4.76454C5.03111 4.49957 5.34923 4.29349 5.69948 4.15977C6.04973 4.02605 6.42424 3.96769 6.79857 3.98849L8.19724 4.06583C8.59635 4.08779 8.99529 4.01974 9.36456 3.86673C9.73382 3.71371 10.064 3.47964 10.3306 3.18183L11.2652 2.13783Z" stroke="#00256C" stroke-width="2.5"/>
  <path d="M9.91858 9.91797H9.93191V9.9313H9.91858V9.91797ZM16.5852 16.5846H16.5986V16.598H16.5852V16.5846Z" stroke="#00256C" stroke-width="2.5" stroke-linejoin="round"/>
  <path d="M17.2519 9.25098L9.25189 17.251" stroke="#00256C" stroke-width="2.5" stroke-linecap="round" stroke-linejoin="round"/>
</svg>