<svg xmlns="http://www.w3.org/2000/svg" width="74" height="25" viewBox="0 0 74 25" fill="none">
  <path d="M18.1948 8.56818H9.56051V11.1302H15.6845C15.3811 14.7164 12.3929 16.2557 9.57085 16.2557C8.67685 16.2596 7.79102 16.0854 6.96508 15.7432C6.13915 15.401 5.38965 14.8977 4.76035 14.2627C4.13105 13.6277 3.63456 12.8737 3.29987 12.0447C2.96517 11.2157 2.79897 10.3283 2.81098 9.43437C2.81098 5.5558 5.81368 2.56962 9.57913 2.56962C12.4839 2.56962 14.1956 4.42133 14.1956 4.42133L15.9887 2.56342C15.9887 2.56342 13.6853 0 9.48534 0C4.13716 0 0 4.51374 0 9.38886C0 14.166 3.89165 18.8246 9.62051 18.8246C14.6597 18.8246 18.3486 15.3722 18.3486 10.2675C18.3486 9.19024 18.1921 8.56818 18.1921 8.56818H18.1948Z" fill="#4885ED"/>
  <path d="M25.2684 6.7126C21.7251 6.7126 19.1858 9.48292 19.1858 12.7125C19.1858 15.9911 21.6478 18.8125 25.3098 18.8125C28.6242 18.8125 31.3394 16.2794 31.3394 12.7829C31.3394 8.78292 28.1808 6.71191 25.2684 6.71191V6.7126ZM25.3029 9.08913C27.045 9.08913 28.696 10.4981 28.696 12.7677C28.696 14.9884 27.0519 16.438 25.2946 16.438C23.3636 16.438 21.8464 14.8918 21.8464 12.7498C21.8464 10.6532 23.3499 9.08913 25.3084 9.08913H25.3029Z" fill="#DB3236"/>
  <path d="M38.4965 6.7126C34.9531 6.7126 32.4138 9.48292 32.4138 12.7125C32.4138 15.9911 34.8758 18.8125 38.5378 18.8125C41.8523 18.8125 44.5674 16.2794 44.5674 12.7829C44.5674 8.78292 41.4088 6.71191 38.4965 6.71191V6.7126ZM38.5309 9.08913C40.273 9.08913 41.924 10.4981 41.924 12.7677C41.924 14.9884 40.2799 16.438 38.5227 16.438C36.5917 16.438 35.0745 14.8918 35.0745 12.7498C35.0745 10.6532 36.5779 9.08913 38.5365 9.08913H38.5309Z" fill="#F4C20D"/>
  <path d="M51.4708 6.71924C48.2184 6.71924 45.6626 9.56748 45.6626 12.7647C45.6626 16.406 48.626 18.8212 51.4142 18.8212C53.1383 18.8212 54.0555 18.1363 54.7245 17.3508V18.5439C54.7245 20.6315 53.4569 21.8818 51.5439 21.8818C49.6956 21.8818 48.7687 20.5074 48.4405 19.7281L46.115 20.6936C46.9398 22.4384 48.6005 24.257 51.5632 24.257C54.8045 24.257 57.261 22.2204 57.261 17.9488V7.08268H54.7342V8.1075C53.9549 7.26613 52.8873 6.71924 51.4721 6.71924H51.4708ZM51.7052 9.09163C53.2997 9.09163 54.9369 10.453 54.9369 12.7778C54.9369 15.1412 53.3025 16.4433 51.6701 16.4433C49.9363 16.4433 48.3232 15.0364 48.3232 12.7999C48.3232 10.4771 49.9991 9.09163 51.7052 9.09163Z" fill="#4885ED"/>
  <path d="M68.5545 6.70508C65.4869 6.70508 62.9111 9.14643 62.9111 12.7464C62.9111 16.5574 65.7821 18.8174 68.8421 18.8174C71.402 18.8174 72.9799 17.4174 73.9109 16.1622L71.8192 14.7705C71.2765 15.6119 70.3689 16.436 68.8552 16.436C67.1545 16.436 66.3724 15.505 65.8876 14.6015L73.9999 11.2361L73.5861 10.2499C72.8027 8.31885 70.9737 6.70508 68.5545 6.70508ZM68.66 9.03195C69.7655 9.03195 70.5606 9.61953 70.8986 10.3243L65.4807 12.5885C65.2463 10.8354 66.9083 9.03195 68.6531 9.03195H68.66Z" fill="#DB3236"/>
  <path d="M59.0376 18.4587H61.7024V0.626465H59.0376V18.4587Z" fill="#3CBA54"/>
</svg>