<svg xmlns="http://www.w3.org/2000/svg" width="24" height="24" viewBox="0 0 24 24" fill="none">
  <g clip-path="url(#clip0_23_5046)">
    <path d="M23.714 12.2247C23.714 11.2414 23.6342 10.5239 23.4616 9.77979H12.2336V14.2178H18.8241C18.6913 15.3207 17.9738 16.9816 16.3793 18.0977L16.3569 18.2463L19.907 20.9965L20.1529 21.021C22.4118 18.9349 23.714 15.8654 23.714 12.2247Z" fill="#4285F4"/>
    <path d="M12.2336 23.9173C15.4624 23.9173 18.173 22.8543 20.153 21.0206L16.3793 18.0973C15.3694 18.8016 14.0141 19.2932 12.2336 19.2932C9.07118 19.2932 6.38712 17.2071 5.43032 14.3237L5.29008 14.3356L1.59866 17.1925L1.55038 17.3267C3.51692 21.2332 7.55634 23.9173 12.2336 23.9173Z" fill="#34A853"/>
    <path d="M5.43032 14.3238C5.17786 13.5797 5.03176 12.7824 5.03176 11.9586C5.03176 11.1347 5.17786 10.3375 5.41704 9.59342L5.41035 9.43494L1.67267 6.53223L1.55038 6.59039C0.73988 8.21149 0.274811 10.0319 0.274811 11.9586C0.274811 13.8853 0.73988 15.7056 1.55038 17.3267L5.43032 14.3238Z" fill="#FBBC05"/>
    <path d="M12.2336 4.62403C14.4791 4.62403 15.9939 5.59401 16.8576 6.40461L20.2326 3.10928C18.1598 1.1826 15.4624 0 12.2336 0C7.55634 0 3.51692 2.68406 1.55038 6.59056L5.41704 9.59359C6.38712 6.7102 9.07118 4.62403 12.2336 4.62403Z" fill="#EB4335"/>
  </g>
  <defs>
    <clipPath id="clip0_23_5046">
      <rect width="24" height="24" fill="white"/>
    </clipPath>
  </defs>
</svg>