<svg xmlns="http://www.w3.org/2000/svg" width="24" height="24" viewBox="0 0 24 24" fill="none">
  <path d="M7.8 8.4C7.32261 8.4 6.86477 8.58964 6.52721 8.92721C6.18964 9.26477 6 9.72261 6 10.2C6 10.6774 6.18964 11.1352 6.52721 11.4728C6.86477 11.8104 7.32261 12 7.8 12C8.27739 12 8.73523 11.8104 9.07279 11.4728C9.41036 11.1352 9.6 10.6774 9.6 10.2C9.6 9.72261 9.41036 9.26477 9.07279 8.92721C8.73523 8.58964 8.27739 8.4 7.8 8.4ZM16.2 8.4C15.204 8.4 14.4 9.204 14.4 10.2C14.4 11.196 15.204 12 16.2 12C17.196 12 18 11.196 18 10.2C18 9.204 17.196 8.4 16.2 8.4ZM12 19.2C16.8 19.2 18 14.4 18 14.4H6C6 14.4 7.2 19.2 12 19.2Z" fill="#00256C"/>
  <path d="M12 0C5.388 0 0 5.388 0 12C0 18.612 5.388 24 12 24C18.612 24 24 18.612 24 12C24 5.388 18.612 0 12 0ZM12 21.6C6.708 21.6 2.4 17.292 2.4 12C2.4 6.708 6.708 2.4 12 2.4C17.292 2.4 21.6 6.708 21.6 12C21.6 17.292 17.292 21.6 12 21.6Z" fill="#00256C"/>
</svg>