<svg width="235" height="60" viewBox="0 0 235 60" fill="none" xmlns="http://www.w3.org/2000/svg">
<path d="M86.7912 1.95282C86.5364 0.78531 85.5343 0 84.2983 0C84.074 0 83.8458 0.0266215 83.6195 0.0779615C83.5244 0.0988778 83.4332 0.135004 83.3476 0.182541L78.1204 3.09941C77.7744 3.29337 77.5709 3.66796 77.5956 4.06157C77.6051 4.19277 77.5557 4.31446 77.453 4.42475C77.3237 4.56356 77.1545 4.62441 77.0461 4.62441C77.0366 4.62441 77.0252 4.62441 77.0176 4.62441C76.9339 4.6149 76.8521 4.60919 76.7704 4.60919C76.1524 4.60919 75.7284 4.88301 75.4184 5.08456L73.0036 6.64378L71.6763 7.46902L69.3831 8.87042L67.3771 10.0607C67.1375 9.34579 66.4739 8.86281 65.6962 8.8457C65.6809 8.8457 65.6657 8.8457 65.6505 8.8457C64.9051 8.8457 64.2605 9.24121 63.9639 9.88391C63.9354 9.91623 63.8479 9.98659 63.7833 10.0398C63.749 10.0664 63.7167 10.095 63.6806 10.1216C63.3022 10.4315 62.92 10.6426 62.4751 10.7852L61.9674 10.9487C61.8095 11.0001 61.6669 11.0875 61.5509 11.2054C61.3969 11.3614 61.1992 11.4583 60.9463 11.5819C60.5964 11.7531 60.1609 11.966 59.8073 12.3939C59.7388 12.4756 59.6666 12.5593 59.5905 12.6468C59.3186 12.9586 59.0106 13.3123 58.7862 13.7724C58.4648 14.4304 58.3679 15.0978 58.3336 15.7424L57.227 16.4383L52.7832 19.2031C49.3187 12.3216 43.0876 7.07352 35.5482 4.91914C35.3999 3.99692 34.5898 3.30668 33.5992 3.30668C33.5345 3.30668 33.4699 3.31048 33.4052 3.31619L32.9241 3.36182L30.707 3.40365C30.5587 3.40746 30.4123 3.41126 30.264 3.41316C29.9806 3.42077 29.7125 3.42837 29.4425 3.42837C28.7048 2.65637 27.4764 1.90528 26.6588 1.65619C26.1815 1.50978 25.689 1.39759 25.1965 1.31963C24.8904 1.27019 24.5386 1.24737 24.1507 1.24737C23.3559 1.24737 22.4831 1.35005 21.8176 1.52119C20.4371 1.87676 19.2962 2.44721 18.3284 3.26485C17.2464 4.17946 16.6665 5.32225 16.2653 6.37567C6.66659 10.7776 0 20.4714 0 31.7224C0 47.1149 12.4775 59.5925 27.87 59.5925C29.4806 59.5925 31.0569 59.4556 32.5914 59.1932H32.5933C38.7008 58.1492 44.1334 55.1183 48.1949 50.7905C48.3109 50.6688 48.4231 50.5452 48.5353 50.4216L50.7733 47.6055C52.7908 44.702 54.2702 41.3972 55.0669 37.8357L55.1829 37.8566C55.5613 37.9213 55.9035 37.9745 56.2819 37.9745C56.6033 37.9745 56.898 37.9346 57.1813 37.8509C57.9039 37.6399 58.4363 37.2558 58.7596 36.7138C59.4137 35.6224 60.3948 33.7171 60.9082 32.4165L61.2638 31.5152C61.3931 31.1881 61.5433 30.7888 61.6764 30.3267L63.2014 25.0102C63.2052 24.9988 63.2071 24.9874 63.2109 24.976L63.4771 23.9111C63.4771 23.9111 63.4809 23.8959 63.4828 23.8883L63.6939 22.9547C63.6977 22.9414 63.6996 22.9281 63.7015 22.9148L63.8555 22.0743C64.2681 22.0268 64.5952 21.8138 64.8177 21.6674C64.8671 21.6351 64.9185 21.6027 64.947 21.5856C65.274 21.4031 65.5478 21.1502 65.7722 20.8231C66.6773 20.6254 67.1147 20.1405 67.3942 19.8306C67.4341 19.7849 67.4874 19.7279 67.5197 19.6956C68.2384 19.4655 68.8184 18.9996 69.1797 18.3778C69.9403 18.1116 70.5373 17.5773 70.8302 16.8814C71.1116 16.2082 71.0583 15.5218 70.6761 14.8943L70.0201 13.82L70.6685 13.4188C70.6685 13.4188 70.6837 13.4093 70.6894 13.4055L71.2504 13.0385L72.5605 12.2455C72.5605 12.2455 72.5795 12.2341 72.5871 12.2284L73.6558 11.5382L74.9735 10.6901L76.1277 9.96567C76.2874 9.86489 76.4433 9.76412 76.5954 9.66524C76.9586 9.42755 77.3009 9.20317 77.6489 9.03584C78.4779 8.63463 78.7346 8.08891 78.8867 7.76185C78.9761 7.5698 78.9913 7.54128 79.113 7.46142C79.2784 7.35303 79.3716 7.31691 79.4096 7.3055C79.4344 7.31501 79.4686 7.32831 79.4971 7.33782C79.6663 7.40437 79.923 7.50515 80.2615 7.50515C80.6019 7.50515 80.9327 7.40438 81.2731 7.19711L81.8283 6.85865L85.6522 4.65293C86.563 4.12812 87.0175 3.04427 86.7798 1.95852L86.7912 1.95282Z" fill="#FAD25A"/>
<path d="M27.8775 58.6605C42.7551 58.6605 54.8158 46.5998 54.8158 31.7222C54.8158 16.8445 42.7551 4.78384 27.8775 4.78384C12.9999 4.78384 0.939209 16.8445 0.939209 31.7222C0.939209 46.5998 12.9999 58.6605 27.8775 58.6605Z" fill="#EFAF20"/>
<path d="M54.8158 31.7165C54.8158 32.055 54.8101 32.3896 54.7967 32.7243C54.7644 33.618 54.6884 34.5003 54.5686 35.3692C54.5096 35.8047 54.4412 36.2363 54.3613 36.6661C53.6273 40.6192 52.0301 44.2701 49.7711 47.4151C49.4441 47.8715 49.1018 48.3183 48.7462 48.7538C48.5979 48.9363 48.4458 49.1151 48.2918 49.2938C48.2385 49.3546 48.1853 49.4155 48.132 49.4763C47.8392 49.811 47.5388 50.1381 47.2288 50.4556C47.1965 50.4879 47.1642 50.5222 47.1319 50.5545C47.0996 50.5868 47.0672 50.621 47.0349 50.6553C43.2605 54.4734 38.3546 57.1697 32.8594 58.1965C31.245 58.4989 29.5793 58.6567 27.8756 58.6567C12.9984 58.6567 0.937286 46.5956 0.937286 31.7184C0.937286 29.0963 1.31188 26.5635 2.00972 24.1676L7.61719 20.6993L14.0043 24.7247L19.5243 21.2945L23.3634 18.9081L23.3672 18.9043L29.8873 19.3397L40.123 20.0243L40.6117 20.0566L45.5498 16.9059L52.2773 20.7259L52.5397 20.8742C52.6176 21.0511 52.6937 21.2298 52.7679 21.4105C52.8496 21.6063 52.9295 21.806 53.0055 22.0037C53.1272 22.3194 53.2451 22.6388 53.3535 22.9602C53.7509 24.1144 54.0723 25.3047 54.31 26.5255C54.6389 28.2064 54.81 29.9424 54.81 31.7184L54.8158 31.7165Z" fill="#1874CA"/>
<path d="M47.0356 50.6466C47.0654 50.6167 47.0953 50.5851 47.1252 50.5552C47.0953 50.5851 47.0654 50.6167 47.0356 50.6483V50.6466Z" fill="white"/>
<path d="M47.1241 44.5597C47.5881 46.2406 47.9589 47.7428 48.1338 49.475C47.841 49.8097 47.5406 50.1367 47.2306 50.4543C47.1127 48.2695 46.8789 46.2387 46.3198 44.0862L46.7324 43.415C46.9226 43.7744 47.0139 44.1604 47.1222 44.5597H47.1241Z" fill="white"/>
<path d="M5.81827 44.5511C6.07877 44.998 6.35258 45.4353 6.63781 45.8632H49.1169C49.4021 45.4353 49.6759 44.9961 49.9364 44.5511H5.81827Z" fill="white"/>
<path d="M8.38317 48.1803H47.373C47.7324 47.7543 48.0785 47.317 48.4112 46.8682H7.34686C7.67962 47.317 8.02379 47.7543 8.38508 48.1803H8.38317Z" fill="white"/>
<path d="M4.55844 26.4571H3.24261V27.773H4.55844V26.4571Z" fill="white"/>
<path d="M6.4103 26.4571H5.09448V27.773H6.4103V26.4571Z" fill="white"/>
<path d="M4.55844 28.311H3.24261V29.6268H4.55844V28.311Z" fill="white"/>
<path d="M6.4103 28.311H5.09448V29.6268H6.4103V28.311Z" fill="white"/>
<path d="M4.55844 30.163H3.24261V31.4788H4.55844V30.163Z" fill="white"/>
<path d="M6.4103 30.163H5.09448V31.4788H6.4103V30.163Z" fill="white"/>
<path d="M9.69913 26.4571H8.3833V27.773H9.69913V26.4571Z" fill="white"/>
<path d="M11.5512 26.4571H10.2354V27.773H11.5512V26.4571Z" fill="white"/>
<path d="M9.69913 28.311H8.3833V29.6268H9.69913V28.311Z" fill="white"/>
<path d="M11.5512 28.311H10.2354V29.6268H11.5512V28.311Z" fill="white"/>
<path d="M9.69913 30.163H8.3833V31.4788H9.69913V30.163Z" fill="white"/>
<path d="M11.5512 30.163H10.2354V31.4788H11.5512V30.163Z" fill="white"/>
<path d="M4.55844 33.6998H3.24261V35.0157H4.55844V33.6998Z" fill="white"/>
<path d="M6.4103 33.6998H5.09448V35.0157H6.4103V33.6998Z" fill="white"/>
<path d="M4.55844 35.5584H3.24261V36.8743H4.55844V35.5584Z" fill="white"/>
<path d="M6.4103 35.5584H5.09448V36.8743H6.4103V35.5584Z" fill="white"/>
<path d="M4.55844 37.4066H3.24261V38.7225H4.55844V37.4066Z" fill="white"/>
<path d="M6.4103 37.4066H5.09448V38.7225H6.4103V37.4066Z" fill="white"/>
<path d="M9.69913 33.6998H8.3833V35.0157H9.69913V33.6998Z" fill="white"/>
<path d="M11.5512 33.6998H10.2354V35.0157H11.5512V33.6998Z" fill="white"/>
<path d="M9.69913 35.5584H8.3833V36.8743H9.69913V35.5584Z" fill="white"/>
<path d="M11.5512 35.5584H10.2354V36.8743H11.5512V35.5584Z" fill="white"/>
<path d="M9.69913 37.4066H8.3833V38.7225H9.69913V37.4066Z" fill="white"/>
<path d="M11.5512 37.4066H10.2354V38.7225H11.5512V37.4066Z" fill="white"/>
<path d="M51.0106 26.4571H49.6948V27.773H51.0106V26.4571Z" fill="white"/>
<path d="M52.8632 26.4571H51.5474V27.773H52.8632V26.4571Z" fill="white"/>
<path d="M51.0106 28.311H49.6948V29.6268H51.0106V28.311Z" fill="white"/>
<path d="M52.8632 28.311H51.5474V29.6268H52.8632V28.311Z" fill="white"/>
<path d="M51.0106 30.163H49.6948V31.4788H51.0106V30.163Z" fill="white"/>
<path d="M52.8632 30.163H51.5474V31.4788H52.8632V30.163Z" fill="white"/>
<path d="M45.8696 33.6998H44.5538V35.0157H45.8696V33.6998Z" fill="white"/>
<path d="M47.7218 33.6998H46.406V35.0157H47.7218V33.6998Z" fill="white"/>
<path d="M45.8696 35.5584H44.5538V36.8743H45.8696V35.5584Z" fill="white"/>
<path d="M47.7218 35.5584H46.406V36.8743H47.7218V35.5584Z" fill="white"/>
<path d="M45.8696 37.4066H44.5538V38.7225H45.8696V37.4066Z" fill="white"/>
<path d="M47.7218 37.4066H46.406V38.7225H47.7218V37.4066Z" fill="white"/>
<path d="M51.0106 33.6998H49.6948V35.0157H51.0106V33.6998Z" fill="white"/>
<path d="M52.8632 33.6998H51.5474V35.0157H52.8632V33.6998Z" fill="white"/>
<path d="M51.0106 35.5584H49.6948V36.8743H51.0106V35.5584Z" fill="white"/>
<path d="M52.8632 35.5584H51.5474V36.8743H52.8632V35.5584Z" fill="white"/>
<path d="M51.0106 37.4066H49.6948V38.7225H51.0106V37.4066Z" fill="white"/>
<path d="M52.8632 37.4066H51.5474V38.7225H52.8632V37.4066Z" fill="white"/>
<path d="M45.6694 42.9954C45.6028 42.9498 45.5059 42.9118 45.407 42.9042C45.3804 42.9023 45.3556 42.9023 45.329 42.9042C45.2358 42.9118 45.1465 42.9498 45.0894 43.0354C45.0058 43.1609 45.0153 43.4993 45.1313 43.6001C45.1978 43.6572 45.2986 43.6876 45.4013 43.6933C45.4298 43.6952 45.4602 43.6952 45.4888 43.6933C45.5971 43.6857 45.6998 43.6495 45.7512 43.5906C45.9394 43.3738 45.8348 43.1133 45.6675 42.9973L45.6694 42.9954ZM45.5591 41.7652L44.6312 39.2799C44.5665 39.1069 44.5209 38.9757 44.3745 38.8559C44.3745 38.8559 44.3745 38.8559 44.3707 38.854L43.8288 39.5119L44.8974 42.1436C44.9735 42.3318 45.0533 42.522 45.1864 42.6779H45.1902L45.7854 42.4497L45.561 41.7652H45.5591ZM47.105 36.8461L46.643 35.9257L44.6768 35.9409H44.6711C44.5589 35.7033 44.4848 35.534 44.4068 35.2545H44.4106L46.3748 35.2469C46.3463 35.0092 46.2912 34.8248 46.2075 34.6175L46.004 34.1079L43.7147 34.0908H43.7109C43.6823 33.8854 43.6709 33.682 43.6842 33.5032H43.688L45.6104 33.4899C45.4869 33.0545 45.3423 32.7522 45.1522 32.427C44.5342 32.427 44.0037 32.4232 43.3971 32.389H43.3933C43.2659 32.3814 43.2203 32.0391 43.3211 31.9859L44.4619 31.3717L44.8898 31.8394C44.9335 31.887 45.0096 31.9117 45.0894 31.9155C45.1103 31.9155 45.1332 31.9155 45.156 31.9155C45.2416 31.9098 45.3252 31.8851 45.3804 31.8509C45.4811 31.7881 45.5933 31.5219 45.5192 31.3983C45.2263 30.9058 44.9164 30.4361 44.5874 29.957L41.1172 31.2443C40.7655 31.3736 40.3072 31.4154 40.079 31.7463L38.9762 33.3397C38.459 34.087 37.9513 34.7944 37.3941 35.515C36.3711 36.8327 35.949 37.426 34.3252 38.1067L28.9896 40.3467C27.495 40.9742 26.1982 41.8374 24.8063 42.7844C24.8063 42.7844 24.8025 42.7844 24.8025 42.7882C24.6865 42.522 26.0081 41.3126 26.1222 41.2347C26.1868 41.1909 26.2762 41.0293 26.2325 40.959L25.8217 40.2744C25.7913 40.2706 25.759 40.2687 25.7286 40.2668C25.5574 40.2535 25.3863 40.2535 25.2152 40.263C24.0305 40.3315 22.8288 40.9095 21.9636 41.672C20.8589 42.6437 20.1629 43.8986 19.891 45.34C19.8397 45.6157 19.9271 45.61 20.0717 45.7982C21.0813 47.1045 22.1405 48.3538 23.3137 49.5042C23.6788 49.5575 23.9849 49.6639 24.3044 49.8142L25.5631 50.3979L26.3446 50.8124C26.4055 50.8448 26.4873 50.86 26.5804 50.8619C26.6242 50.8619 26.6698 50.8619 26.7173 50.8581C26.9626 50.8391 27.2459 50.763 27.4019 50.6945L29.9822 48.6486C31.6707 47.3099 33.2204 45.8819 34.7226 44.336L36.4757 42.5315C37.0842 41.904 37.6965 41.3202 38.3734 40.7536C40.6571 40.3828 42.8951 39.8009 44.1273 37.755C44.1862 37.658 44.2281 37.483 44.2775 37.3728H46.179C46.0364 37.8671 45.9888 38.352 46.2455 38.7741V38.7703C46.4471 38.2056 46.6658 37.7493 46.9814 37.2853C47.048 37.1883 47.1582 36.9582 47.1031 36.8517L47.105 36.8461ZM47.6127 29.5672L47.5576 27.0743V27.0705C47.2514 27.2873 47.0423 27.5839 46.9015 27.873C46.816 28.3864 47.0004 28.8883 46.8806 29.4265V29.4303L45.8253 28.1277C45.793 28.1277 42.7829 29.9399 43.2013 29.9551C43.207 29.9551 43.2127 29.9551 43.2203 29.9551C43.2241 29.9551 43.2298 29.9551 43.2355 29.9551C43.2431 29.9551 43.2602 29.9532 43.2792 29.9513C43.2792 29.9513 43.283 29.9513 43.2849 29.9513C43.3211 29.9475 43.3629 29.9418 43.3857 29.9304L44.9906 29.1983L45.2302 29.0842C45.2302 29.0842 45.2397 29.0804 45.2454 29.0804C45.2948 29.0804 45.3861 29.1641 45.4165 29.1983L46.9852 31.0598L46.3311 31.7292C46.295 31.925 46.2722 32.195 46.2569 32.4403C46.2569 32.4403 46.2608 32.4384 46.2627 32.4365C46.4395 32.3224 46.5612 32.2483 46.6639 32.1608L47.6564 31.2937L47.6184 29.5653L47.6127 29.5672ZM46.0744 24.9123C46.0744 24.9123 46.0744 24.9123 46.0725 24.9123C45.831 25.0112 45.618 25.0607 45.3632 25.0759C45.329 25.0778 45.2929 25.0797 45.2568 25.0797C45.1636 25.0797 45.0799 25.0854 45.0058 25.0892C44.2718 25.1329 44.3231 25.2945 44.1672 25.401L40.9499 27.6029L36.5423 30.4457C36.3331 30.5807 36.8845 31.0979 36.9397 31.3546L36.6355 31.5656C36.5594 31.8984 36.6792 32.1133 36.8903 32.3015C36.9815 32.3833 37.1355 32.4308 37.2801 32.4346C37.2991 32.4346 37.3162 32.4346 37.3333 32.4346C37.4037 32.4308 37.4683 32.4175 37.5215 32.3928C37.6527 32.3319 37.8828 32.0847 37.8049 31.9573L37.4398 31.3641L38.2764 30.7974L39.8623 29.7098L42.4768 27.9224C43.8097 27.0116 45.1522 26.2016 46.6315 25.5094C46.5156 25.2698 46.2836 24.996 46.0744 24.9104V24.9123ZM27.7727 37.9318L27.6624 37.1199L27.4817 36.1938C26.569 31.4953 22.7527 27.061 19.0334 24.1727C19.0334 24.1727 19.0334 24.1727 19.0315 24.1708C17.4457 25.6672 15.9112 27.1713 14.6905 28.9074C13.6903 30.3449 13.4013 31.8585 13.6142 33.5888C14.0307 36.9525 15.9683 41.7823 17.98 44.6497V44.6459C19.0296 41.75 21.8419 39.2514 24.8767 38.7799C24.8824 38.7799 24.89 38.7799 24.8976 38.7799C24.9432 38.778 25.0117 38.7856 25.0649 38.7837C25.0935 38.7818 25.1163 38.7742 25.1239 38.7589C25.2437 38.5365 23.7662 35.65 23.5266 35.1975C22.8573 33.9216 22.0036 32.8282 21.222 31.5637C21.2259 31.5637 21.2278 31.5675 21.2316 31.5694C22.7775 32.5221 23.9031 33.798 25.0174 35.091C26.1526 36.4087 27.0843 37.8082 27.8354 39.4207H27.8392C28.0236 39.3484 27.7955 38.101 27.7727 37.9375V37.9318ZM61.5677 22.3073H61.5639L60.5124 24.5073L58.8543 27.7094C58.4778 28.4358 58.0899 29.1184 57.6658 29.8144L56.1732 32.2616C56.0096 32.5278 55.7168 32.6571 55.3955 32.7103C55.3137 32.7236 55.23 32.7312 55.1445 32.735C54.9106 32.7465 54.6748 32.7255 54.4732 32.697C54.4371 32.6932 54.4048 32.6875 54.3706 32.6818C53.1194 32.465 51.9633 32.1133 50.7577 31.6778C50.7577 31.6778 50.7559 31.6778 50.754 31.6778L49.8983 32.9062C49.7671 33.0944 49.7328 33.2675 49.866 33.4766C50.0694 33.7942 50.1208 34.1916 50.1702 34.5624L50.8091 34.7107C51.2502 34.8134 51.6838 34.9274 52.161 35.0111L53.3704 35.2203L54.0036 35.3249L54.9011 35.4123C55.2262 35.4447 55.616 35.4998 56.0058 35.5245C56.2188 35.5397 56.4318 35.5435 56.6333 35.5302C56.7683 35.5207 56.8976 35.5036 57.0193 35.477C57.4567 35.3781 59.0596 31.539 59.2897 30.8925L60.0617 28.721C60.5314 27.4033 60.8755 26.0932 61.1893 24.7336L61.7236 22.4271C61.7141 22.391 61.6437 22.3434 61.5658 22.313L61.5677 22.3073ZM36.1144 26.9507L35.8806 26.2757C35.5155 25.2223 35.1181 24.205 34.5914 23.22C34.0247 22.1609 33.401 21.2006 32.629 20.2841C32.6081 20.2594 32.5492 20.2442 32.494 20.2404C32.4807 20.2404 32.4693 20.2404 32.4579 20.2404C32.4161 20.2404 32.3837 20.2537 32.3837 20.2784C32.4256 22.0601 31.0413 23.2238 29.3414 23.4273C29.1893 23.4463 29.039 23.4596 28.8869 23.4672C28.5732 23.4862 28.2613 23.4843 27.9533 23.4653C26.82 23.3969 25.7133 23.0831 24.6713 22.5925L21.9712 21.3204H21.9693C21.8248 21.3984 21.705 21.5657 21.7126 21.7274C24.331 23.5699 26.839 25.595 28.731 28.1601L30.1818 30.1243H30.1856C30.2199 30.1281 30.2503 30.1281 30.2807 30.1281C30.429 30.1205 30.545 30.0635 30.6724 29.9969L33.2014 28.6545C34.0989 28.1772 34.9755 27.7513 35.9053 27.3443C35.9851 27.3082 36.1087 27.2645 36.1354 27.2074C36.162 27.1504 36.1392 27.0192 36.1163 26.9526L36.1144 26.9507ZM40.5221 27.0648C40.003 24.9542 38.6073 21.5429 36.8313 20.0503C36.8275 20.0483 36.8256 20.0445 36.8218 20.0426L38.4552 22.9044C39.0332 23.9198 39.4268 24.9941 39.752 26.116L40.1171 27.3786H40.1228C40.1228 27.3786 40.1361 27.3786 40.1418 27.3786C40.2939 27.3691 40.562 27.2207 40.524 27.0667L40.5221 27.0648ZM59.2821 17.4072V17.4034L57.9853 18.2172L54.7433 20.2176L49.1643 23.5813L47.0175 24.8895C47.2058 25.1101 47.318 25.2337 47.4986 25.4067H47.5024L59.1224 18.2191C59.2327 17.9605 59.2935 17.7209 59.284 17.4034L59.2821 17.4072ZM30.4005 20.4343C30.4005 20.4343 30.3891 20.4343 30.3815 20.4343C30.3815 20.4343 30.3777 20.4343 30.3758 20.4343L30.1989 20.4534L30.0145 20.4743C29.9004 20.4857 29.9974 19.7707 29.9156 19.4456C29.6247 18.2838 28.3279 17.8654 27.3011 17.6316C26.4682 17.4414 25.6677 17.2456 24.8805 16.9147C24.1484 16.6048 23.6103 16.0952 23.1711 15.4315C23.1711 15.4315 23.1711 15.4277 23.1692 15.4277C23.038 15.77 22.8041 15.9526 22.5113 15.9735C22.4789 15.9754 22.4447 15.9773 22.4105 15.9735C22.3629 15.9716 22.3135 15.964 22.2641 15.9545H22.2603C22.1595 16.0895 22.207 16.2701 22.2679 16.4298C22.8136 17.8483 23.4924 19.438 24.4812 20.5998C24.89 21.0828 25.3863 21.3604 26.0081 21.4897C26.4036 21.5714 26.7991 21.6342 27.1965 21.6589C27.4304 21.6741 27.6643 21.676 27.8962 21.6627C28.2062 21.6456 28.5161 21.6 28.8242 21.5182C30.081 21.1873 30.5964 20.4629 30.4005 20.4343ZM68.9758 15.4506L67.2208 12.6687C67.0782 12.4424 66.8557 12.3302 66.6104 12.3188C66.5838 12.3188 66.5552 12.3188 66.5286 12.3188C66.3385 12.3245 66.1388 12.3892 65.9563 12.5033C65.7642 12.6231 65.5969 13.0281 65.7775 13.2144C65.8916 13.3323 65.9867 13.4255 66.0704 13.5605L67.5954 16.0381C67.6771 16.1712 67.5231 16.3747 67.4166 16.3956C67.4052 16.3975 67.3938 16.3994 67.3843 16.3994C67.3672 16.4013 67.3501 16.4013 67.333 16.3994C67.2208 16.3937 67.101 16.3405 67.0439 16.2473L65.3554 13.492C65.2717 13.3551 65.0227 13.2734 64.8553 13.2639C64.8344 13.2639 64.8173 13.2639 64.8002 13.2639C64.7888 13.2639 64.7793 13.2639 64.7698 13.2677C64.6157 13.2924 64.4085 13.4217 64.3077 13.5453C64.0833 13.8134 64.0757 14.0644 64.2316 14.3154L65.8954 16.9908C66.0057 17.1657 66.0704 17.3597 65.8441 17.4794C65.8175 17.4947 65.7871 17.5023 65.7547 17.5061C65.7395 17.5061 65.7224 17.508 65.7053 17.5061C65.6026 17.5004 65.4904 17.4452 65.4239 17.3368L63.819 14.7261C63.6897 14.515 63.5148 14.3895 63.3094 14.3743C63.2828 14.3724 63.2562 14.3724 63.2296 14.3743C63.1269 14.38 63.0166 14.4143 62.9025 14.4789C62.6154 14.6424 62.2769 15.1691 62.5602 15.4867C62.7276 15.6749 62.9386 15.8366 63.0946 16.0876L64.3743 18.1678C64.3647 18.2553 64.2925 18.3827 64.2373 18.434C64.2107 18.4587 64.1461 18.472 64.0814 18.4758C64.0605 18.4758 64.0377 18.4758 64.0168 18.4758C63.973 18.4739 63.935 18.4644 63.9122 18.4492L62.6724 16.4603C62.5279 16.2302 62.41 15.9373 62.1514 15.8518C62.0906 15.8309 62.0297 15.8195 61.9708 15.8137C61.9613 15.8137 61.9518 15.8137 61.9423 15.8137C61.9194 15.8137 61.8966 15.8137 61.8738 15.8137C61.6513 15.8271 61.4612 15.9488 61.3395 16.1484C61.1056 16.5325 61.2748 16.9299 61.503 17.2779L62.7124 19.1261C62.6496 19.514 62.604 20.0084 63.066 20.1548C63.163 20.1853 63.26 20.2043 63.3551 20.21C63.4216 20.2157 63.4882 20.2138 63.5528 20.21C64.089 20.1624 64.5473 19.7593 64.6671 19.1889C64.6994 19.0406 64.766 18.9911 64.8591 18.9873C64.8724 18.9873 64.8876 18.9873 64.9029 18.9873C65.0436 18.9987 65.2299 19.0824 65.441 19.0919C65.4676 19.0919 65.4923 19.0919 65.5189 19.0919C65.7053 19.0824 65.9049 19.0063 66.1046 18.7687C66.2529 18.5918 66.3366 18.2857 66.4298 18.0271C66.4298 18.0271 66.4316 18.0271 66.4336 18.0271C66.4507 18.0271 66.4678 18.0309 66.4849 18.0309C66.5819 18.0385 66.675 18.0385 66.7644 18.0309C67.4261 17.9833 67.8654 17.5878 67.9338 16.8444C67.9947 16.7911 68.0878 16.7778 68.1962 16.774C68.2666 16.7702 68.3445 16.7721 68.4244 16.7664C68.6564 16.7531 68.9093 16.696 69.0804 16.3842C69.2611 16.0533 69.1603 15.7396 68.9796 15.4544L68.9758 15.4506ZM65.4543 10.6664C65.4543 10.6664 65.4543 10.6664 65.4505 10.6645C64.6652 11.7275 63.5756 12.3911 62.2978 12.663C61.6856 12.7923 62.1191 13.57 60.712 14.5531C60.4895 14.709 60.5884 14.8212 60.8318 14.8288C60.8622 14.8288 60.8926 14.8288 60.9269 14.8288C61.4175 14.7946 62.294 14.4009 62.5469 13.3C62.7713 13.1688 62.9443 13.1346 63.1022 13.127C63.2258 13.1212 63.3398 13.1308 63.4577 13.1232C63.6289 13.1117 63.8133 13.0623 64.0624 12.876C64.7222 12.3816 65.2622 11.7731 65.5342 10.9802C65.5703 10.8737 65.5627 10.7615 65.4524 10.6702L65.4543 10.6664ZM30.9424 14.0644C30.9158 13.8267 31.1021 13.7792 31.4425 13.4103C31.5205 13.3266 31.4577 13.0414 31.3436 13.0414H31.3379C30.7333 13.0889 30.5317 13.3913 29.9004 13.4293C29.8795 13.4293 29.8586 13.4312 29.8377 13.4331H29.8339C29.9232 13.2125 30.0297 13.0414 30.197 12.9159L31.1497 12.2047C31.1896 12.1762 31.2581 12.0754 31.2562 12.0279C31.2543 11.9804 31.1554 11.8872 31.1459 11.8377L31.0356 11.2027C30.9862 11.1589 30.9367 11.138 30.8873 11.1342C30.8759 11.1342 30.8626 11.1342 30.8511 11.1342C30.6401 11.1475 30.4423 11.446 30.2161 11.4651C30.2065 11.4651 30.1951 11.4651 30.1837 11.4651C30.1134 11.4632 30.0411 11.4308 29.9632 11.3548C29.8833 11.2749 29.9498 11.0125 30.0506 10.946C30.3435 10.7558 30.6268 10.6379 30.9443 10.5181L31.6973 10.2367C31.7467 10.2177 31.8266 10.1739 31.8361 10.1321C31.8456 10.0903 31.8038 9.9838 31.7639 9.94387L30.5032 8.59952C30.3701 8.45691 30.2218 8.30479 30.0944 8.1793C29.7103 8.32381 29.4041 8.40937 29.0181 8.49114C28.4686 10.0523 26.9873 9.44378 26.067 10.1074C26.067 10.1074 26.0651 10.1074 26.0632 10.1093C25.8883 9.76703 26.3903 9.58449 26.4796 9.30117C25.5061 9.33349 24.6428 9.34871 23.7453 9.28786C23.6826 9.28405 23.6179 9.27835 23.5533 9.27455H23.5495C23.4525 9.80506 23.308 11.5696 22.8706 11.775C22.7642 11.8244 22.6615 11.8511 22.5607 11.8568C22.5303 11.8568 22.4998 11.8568 22.4694 11.8568C22.2051 11.8396 21.9674 11.6894 21.7849 11.4822C21.5301 11.195 21.1555 10.9669 20.76 10.9383C20.7277 10.9345 20.6953 10.9345 20.663 10.9345C20.6459 10.9345 20.6307 10.9345 20.6136 10.9364C20.1097 10.9726 19.7693 11.4536 19.7541 11.9309C19.7427 12.2884 19.8283 12.6078 20.0279 12.9007C20.4177 13.473 21.532 14.6386 22.4504 14.7071C22.496 14.7109 22.5417 14.7109 22.5854 14.709C22.8478 14.6957 23.0912 14.5816 23.289 14.3211C23.289 14.3211 23.289 14.323 23.2909 14.3249C23.7586 15.0893 24.2796 15.7225 25.0421 16.1104C25.6145 16.3994 26.3408 16.5211 27.0748 16.5629C27.6814 16.5991 28.2937 16.58 28.8261 16.5572C29.1189 16.5458 29.4174 16.542 29.7141 16.5249C30.3701 16.4869 31.0128 16.3823 31.5737 15.9735C31.8684 15.7586 31.9559 15.4696 31.9635 15.1368C31.9825 14.0815 30.9862 14.4352 30.9462 14.0682L30.9424 14.0644ZM76.6635 6.911L74.0186 8.56149L68.0783 12.2142C67.9814 12.2751 68.1335 12.5508 68.2343 12.5869C68.2571 12.5945 68.2837 12.6002 68.3122 12.6002C68.3293 12.6002 68.3483 12.6002 68.3674 12.6002C68.4491 12.5926 68.5366 12.5641 68.6127 12.5166L71.8547 10.52L75.8611 8.01387L76.9487 7.30841C76.8632 7.15249 76.7776 7.027 76.6654 6.91291L76.6635 6.911ZM28.5998 5.20537C28.5694 5.20537 28.5408 5.20538 28.5142 5.20728C28.3241 5.21679 28.2214 5.25481 28.0351 5.34228C26.4112 6.10097 24.8824 6.97375 23.443 8.09373C23.9792 8.28578 24.5097 8.29338 25.0497 8.34472C25.1201 8.35233 25.1904 8.35613 25.2608 8.36184C25.8255 8.39987 26.3732 8.37705 26.9683 8.34092C28.5389 8.24775 29.9384 7.81801 31.2391 6.98897C31.9008 6.56684 32.7945 5.96787 33.093 5.15974L28.6017 5.20728L28.5998 5.20537ZM84.2599 3.53778C84.1953 3.53207 84.1325 3.53207 84.0717 3.53778C83.8796 3.54728 83.7009 3.59101 83.5203 3.62334L82.3623 3.83821L81.7899 3.92758L81.054 4.03787L80.3334 4.14435L79.2153 4.24513L80.2345 5.73209H80.2383L84.3721 3.55489C84.3341 3.54918 84.2961 3.54348 84.2599 3.53968V3.53778ZM25.4757 3.02437C25.3026 2.95402 25.122 2.91789 24.9375 2.90458C24.8158 2.89507 24.6923 2.89697 24.5687 2.90458C24.5477 2.90458 24.5268 2.90839 24.5059 2.90839C24.253 2.9255 24.002 2.96353 23.7643 2.99015C22.4466 3.38566 21.2144 3.84962 20.0431 4.53605C19.7503 4.70719 19.602 4.93347 19.505 5.25672C19.0658 6.70945 18.7958 8.1812 18.8851 9.71379C18.9003 9.96859 18.9897 10.2538 19.1247 10.4877C19.1247 10.4877 19.1266 10.4858 19.1285 10.4839C20.7885 8.9608 22.4808 7.71153 24.3234 6.57825C25.5061 5.86899 26.6622 5.27383 27.9799 4.7262C27.2117 4.04357 26.4093 3.41228 25.4757 3.02437ZM85.4255 2.51478C85.3799 2.08124 84.9559 1.63249 84.4292 1.60397C84.3892 1.60397 84.3493 1.60397 84.3094 1.60397C84.2352 1.60777 84.1592 1.62298 84.0812 1.6477C84.2447 1.86257 84.4273 2.0299 84.5433 2.21815L84.8912 2.79049L84.9996 3.20502H85.0034C85.3514 3.10614 85.4598 2.83233 85.4255 2.51478Z" fill="white"/>
<path d="M55.4382 22.6813L57.313 21.4891L54.8962 24.4249C54.7917 24.0389 54.6795 23.6548 54.5597 23.2726L55.4382 22.6813Z" fill="white"/>
<path d="M85.7856 2.16818C85.5936 1.28969 84.7531 0.869461 83.848 1.07672L78.6209 3.9936C78.6836 4.99187 77.7329 5.73726 76.8981 5.64218C76.4988 5.59655 76.2497 5.76768 75.9455 5.96353L73.5534 7.50754L72.2167 8.34039L69.914 9.74748L67.7996 11.0025C67.4839 11.1888 67.1987 11.3732 66.8887 11.5843C66.7594 11.6718 66.4951 11.8562 66.3544 11.8087C65.9152 11.6585 66.6415 11.2382 66.4153 10.4225C66.3126 10.0536 65.9912 9.87678 65.6756 9.87108C65.3561 9.86347 65.0424 9.99658 64.8979 10.3141C64.7762 10.5822 64.5556 10.7305 64.335 10.9131C63.8673 11.2972 63.3767 11.5729 62.791 11.7612L62.2834 11.9247C61.7243 12.4894 61.0227 12.5351 60.6005 13.0466C60.283 13.4307 59.9293 13.7767 59.7125 14.2217C59.4026 14.8587 59.3608 15.5584 59.3494 16.2639C59.26 16.3418 59.1383 16.4521 59.0432 16.513L57.7749 17.3116L52.2835 20.7285L52.2169 20.7704L51.8747 21.0442L50.3991 21.9056L47.4936 23.672C46.8833 24.0428 46.6285 23.5256 46.0846 23.2062L43.3199 21.5842L41.9736 20.9225C41.5743 20.7266 41.1788 20.603 40.7928 20.3901L40.1273 20.025L39.4047 19.6295C38.9541 19.3823 38.26 19.31 37.9691 19.1769C37.7276 19.0647 37.4956 19.0533 37.2275 18.9963L36.1589 18.7662C34.5027 18.4106 32.8161 18.5285 31.0934 18.5856L30.85 17.6519C30.8215 17.5398 30.8119 17.2431 30.9203 17.1861C31.1371 17.0701 31.4014 17.0245 31.6353 16.9636C32.4776 16.7449 32.9435 15.9292 32.818 15.064C32.7591 14.6609 32.4853 14.2863 32.3027 13.9383C32.3921 13.4858 32.4339 12.9838 32.0042 12.6606C32.4206 11.8543 31.8235 11.6033 31.814 10.9511C32.1354 10.8389 32.3636 10.6982 32.4986 10.4853C32.9872 9.71516 32.24 9.19035 31.6201 8.65413L32.4567 8.25482C32.5575 8.20728 32.6925 8.0989 32.799 8.02854C33.6337 7.4695 34.2974 6.6918 34.5845 5.72395C34.5693 5.56232 34.5522 5.37027 34.5465 5.19914C34.5312 4.65341 34.0293 4.28833 33.5063 4.33967L32.9872 4.38911L30.7321 4.43094C30.1407 4.44235 29.5475 4.46897 28.9637 4.44805C28.4864 3.74831 27.1364 2.87362 26.3663 2.63974C25.9366 2.50854 25.4859 2.40586 25.0429 2.3355C24.1948 2.2005 22.9056 2.30318 22.0803 2.51805C20.9376 2.81278 19.8974 3.29005 18.998 4.05064C18.0188 4.87779 17.5073 5.95022 17.0985 7.10822C16.9863 7.42577 16.8266 7.73382 16.8037 8.0932C16.703 9.60107 16.7486 11.0747 17.4921 12.4343C17.8781 13.1397 18.4314 13.7083 19.0342 14.2502L20.1484 15.2523C20.9357 15.9596 21.5993 16.8799 21.6202 17.9809L21.6506 19.5306L20.8558 19.5934C20.4698 19.9584 20.1941 20.3749 19.886 20.7989L19.5286 21.2933L18.8079 22.2897C18.6197 22.5502 18.3934 22.7955 18.1823 23.0312L17.2639 24.0637L15.2426 26.3113L14.6208 27.0833C14.2025 27.6043 13.8602 28.1405 13.5161 28.7186C12.9799 29.6237 12.5939 30.5763 12.4531 31.6335L12.3467 32.4379C12.2326 33.2916 12.3847 34.9706 12.5958 35.8054C13.0293 37.5091 13.691 39.0759 14.5201 40.6123C15.2255 41.9187 15.9842 43.1128 16.9026 44.2765C17.3381 44.8279 17.6746 45.4231 18.247 45.8794C19.0475 46.5183 19.5685 47.4158 20.4356 47.9977L20.8805 48.2962L23.36 50.3803C23.5483 50.54 23.7099 50.7035 23.8944 50.9013L24.8907 50.9526C25.2349 50.9697 25.4117 51.061 25.6475 51.2911L26.9538 52.5727L32.6374 57.99C32.7172 58.0679 32.7933 58.1288 32.8598 58.1953C38.4483 57.1514 43.4302 54.3791 47.2293 50.4563C47.1114 48.2715 46.8776 46.2407 46.3185 44.0882L46.7311 43.417C46.9213 43.7764 47.0126 44.1624 47.1209 44.5617C47.5849 46.2426 47.9557 47.7448 48.1306 49.4771C48.7106 48.8172 49.2563 48.1308 49.7697 47.4158L49.7203 47.1763L49.5967 46.5754L49.2601 45.3261C48.8114 43.6585 48.4615 42.8181 47.6439 41.2931C47.2598 40.5762 46.9536 40.5781 46.9631 39.8936C46.9726 39.0893 46.9897 38.2127 47.545 37.5453C47.834 36.6154 47.1723 36.0412 47.3472 35.6419C47.4537 35.3966 47.8758 35.2483 47.9994 35.2863L49.3077 35.6856L52.1389 36.3397C52.8767 36.5108 53.6145 36.5451 54.3599 36.6687C54.3827 36.6725 54.4055 36.6763 54.4283 36.6801L55.362 36.8398C55.8735 36.9273 56.3888 37.0109 56.8965 36.8626C57.2901 36.7466 57.6628 36.5508 57.8833 36.1838C58.545 35.079 59.4882 33.2289 59.9578 32.0367L60.3134 31.1335C60.4579 30.7703 60.5834 30.4242 60.6937 30.0401L62.2187 24.7236L62.4849 23.6587L62.696 22.7251L62.8804 21.7173L62.9869 21.0765L63.7114 21.0499C63.9586 21.0404 64.2305 20.8065 64.451 20.6829C64.7781 20.5004 64.9815 20.2075 65.1299 19.871C66.5484 19.7854 66.5484 18.9126 67.1778 18.7206C67.7957 18.5342 68.2559 18.1026 68.4536 17.4998C69.0868 17.399 69.6535 17.034 69.8855 16.4787C70.049 16.087 69.9996 15.7467 69.8018 15.4234L68.7693 13.7273C68.64 13.5143 68.7636 13.385 68.929 13.2842L70.1308 12.5389L70.7069 12.1605L72.0341 11.3599L73.1047 10.6678L74.4281 9.81594L75.588 9.08957C76.1261 8.75301 76.6414 8.37842 77.2081 8.1046C78.1417 7.65395 77.769 7.11013 78.5581 6.59483C79.8397 5.75817 79.8549 6.85913 80.7448 6.31531L81.3115 5.96924L85.1468 3.75781C85.7077 3.43456 85.9111 2.75954 85.7837 2.17198L85.7856 2.16818ZM65.4569 10.6602C65.5691 10.7496 65.5786 10.8656 65.5406 10.972C65.2687 11.765 64.7286 12.3715 64.0688 12.8678C63.8178 13.0561 63.6315 13.1036 63.4585 13.115C63.3387 13.1226 63.2265 13.115 63.1029 13.1188C62.947 13.1283 62.7758 13.1625 62.5534 13.2918C62.2986 14.3966 61.4182 14.7883 60.9276 14.8206C60.8934 14.8225 60.8629 14.8244 60.8325 14.8206C60.5929 14.8111 60.4941 14.6989 60.7165 14.5449C62.1236 13.5619 61.6901 12.7861 62.3024 12.6548C63.5783 12.3829 64.6678 11.7212 65.4512 10.6602C65.4512 10.6602 65.4512 10.6602 65.4512 10.6583L65.4569 10.6602ZM53.3882 27.6062C53.16 27.5263 52.9338 27.4541 52.7341 27.3267C52.1865 26.9787 51.6788 26.6479 51.1901 26.2638C50.8231 25.9747 50.5322 25.661 50.0739 25.4841C49.9732 25.4442 49.8153 25.1875 49.9408 25.1096L53.3578 22.959L53.7229 22.7289L54.6147 22.1299L56.8432 20.7114L58.3511 19.7721C58.5679 19.6371 58.7675 19.5363 59.0375 19.3994C59.0375 19.3994 59.0394 19.3994 59.0413 19.3975C59.0755 19.9128 59.0508 20.3711 58.9919 20.8635C58.6724 21.2134 58.3929 21.5386 58.0887 21.9094L54.9512 25.7199L54.5424 26.2295L54.3123 26.5243L53.6887 27.3248C53.6278 27.4027 53.5156 27.6062 53.4148 27.6119C53.4129 27.6119 53.411 27.6119 53.4072 27.6119C53.3996 27.6119 53.392 27.6119 53.3863 27.6081L53.3882 27.6062ZM45.2594 25.0753C45.2955 25.0753 45.3316 25.0753 45.3659 25.0715C45.6207 25.0563 45.8336 25.0069 46.077 24.9099C46.077 24.9099 46.077 24.9099 46.0789 24.9099C46.29 24.9936 46.522 25.2674 46.638 25.5089C45.1586 26.201 43.8162 27.011 42.4832 27.9218L39.8687 29.7092L38.2829 30.7969L37.4462 31.3635L37.8113 31.9568C37.8893 32.0842 37.6592 32.3314 37.528 32.3922C37.4728 32.4189 37.4063 32.4322 37.334 32.4341C37.3169 32.4341 37.2979 32.4341 37.2808 32.4341C37.1382 32.4284 36.9861 32.3827 36.8948 32.301C36.6837 32.1127 36.5639 31.8998 36.64 31.5651L36.9442 31.354C36.8872 31.0973 36.3377 30.5801 36.5468 30.4451L40.9544 27.6024L44.1717 25.4005C44.3277 25.294 44.2763 25.1324 45.0065 25.0886C45.0806 25.0848 45.1662 25.081 45.2575 25.0791L45.2594 25.0753ZM40.5266 27.0605C40.5646 27.2164 40.2908 27.3666 40.1406 27.3723C40.1349 27.3723 40.1273 27.3723 40.1216 27.3723L39.7565 26.1097C39.4314 24.9898 39.0397 23.9135 38.4597 22.8981L36.832 20.044L36.8282 20.0364C38.6099 21.5253 40.0094 24.946 40.5285 27.0586L40.5266 27.0605ZM23.1737 15.4272V15.4234C23.6148 16.0889 24.153 16.6004 24.885 16.9104C25.6703 17.2431 26.4728 17.439 27.3056 17.6272C28.302 17.8535 29.5513 18.2528 29.8897 19.3367C29.9011 19.3709 29.9106 19.4051 29.9202 19.4412C30 19.7626 29.9049 20.468 30.0152 20.4699H30.019L30.2054 20.449L30.3822 20.43C30.3822 20.43 30.3955 20.43 30.4012 20.43C30.6104 20.4452 30.0989 21.1792 28.8306 21.5139C28.5207 21.5956 28.2088 21.6413 27.897 21.6584C27.6631 21.6717 27.4311 21.6679 27.1972 21.6546C26.8017 21.6279 26.4062 21.5671 26.0145 21.4853C25.3927 21.356 24.8983 21.0784 24.4876 20.5954C24.0617 20.0954 23.6928 19.5154 23.3676 18.9031C22.9379 18.095 22.5842 17.2317 22.2743 16.4255C22.2134 16.2658 22.164 16.087 22.2648 15.952C22.3142 15.9615 22.3637 15.9691 22.4112 15.971C22.4454 15.971 22.4797 15.971 22.512 15.971C22.8067 15.952 23.0425 15.7714 23.1737 15.4291V15.4272ZM32.4948 20.2342C32.5518 20.238 32.6126 20.2551 32.6336 20.2779C33.4056 21.1944 34.0293 22.1547 34.5959 23.2138C35.1245 24.2006 35.52 25.216 35.8851 26.2695L36.119 26.9445C36.1418 27.011 36.1646 27.1422 36.138 27.1993C36.1114 27.2563 35.9878 27.3001 35.9079 27.3362C34.9762 27.7431 34.1015 28.169 33.2021 28.6463L30.6731 29.9888C30.5457 30.0572 30.4278 30.1143 30.2776 30.12C30.2472 30.12 30.2168 30.12 30.1826 30.1162L28.7336 28.1519C26.8398 25.5868 24.3336 23.5598 21.7153 21.7192C21.7077 21.5595 21.8275 21.3922 21.9701 21.3123C21.9701 21.3123 21.9701 21.3123 21.972 21.3123L24.674 22.5844C25.716 23.075 26.8207 23.3868 27.9521 23.4572C28.2621 23.4762 28.5739 23.4781 28.8857 23.4591C29.0379 23.4496 29.1919 23.4362 29.344 23.4191C31.0439 23.2157 32.4282 22.0501 32.3864 20.2703C32.3864 20.2475 32.4168 20.2361 32.4567 20.2323C32.4681 20.2323 32.4795 20.2323 32.4929 20.2323L32.4948 20.2342ZM31.7703 9.93763C31.8102 9.97946 31.8502 10.0859 31.8425 10.1259C31.833 10.1677 31.7532 10.2114 31.7037 10.2305L30.9508 10.5119C30.6332 10.6298 30.3499 10.7496 30.0571 10.9397C29.9563 11.0063 29.8897 11.2687 29.9696 11.3485C30.0456 11.4246 30.116 11.455 30.1864 11.4588C30.1959 11.4588 30.2073 11.4588 30.2187 11.4588C30.4431 11.4436 30.6427 11.147 30.8538 11.128C30.8652 11.128 30.8785 11.128 30.8899 11.128C30.9393 11.1318 30.9907 11.1508 31.0439 11.1964L31.1542 11.8315C31.1637 11.8809 31.2626 11.9741 31.2645 12.0217C31.2664 12.0692 31.1979 12.17 31.158 12.1985L30.2054 12.9096C30.0399 13.0332 29.9335 13.2063 29.8422 13.4269C29.8631 13.4269 29.884 13.4269 29.9049 13.423C30.54 13.3869 30.7397 13.0827 31.3482 13.0351C31.4661 13.0275 31.5307 13.3185 31.4508 13.404C31.1105 13.7748 30.9241 13.8224 30.9508 14.0581C30.9907 14.4251 31.9871 14.0715 31.968 15.1268C31.9623 15.4614 31.873 15.7486 31.5801 15.9634C31.0173 16.3741 30.3727 16.4787 29.7167 16.5149C29.4201 16.532 29.1234 16.5358 28.8287 16.5472C28.2944 16.5681 27.684 16.5871 27.0774 16.5529C26.3454 16.5111 25.6228 16.3894 25.0505 16.1003C24.2842 15.7124 23.7632 15.0792 23.2954 14.311C23.2954 14.311 23.2954 14.3129 23.2935 14.3148C23.0938 14.5734 22.8504 14.6875 22.588 14.6989C22.5424 14.7008 22.4987 14.6989 22.453 14.697C21.5346 14.6248 20.4261 13.4611 20.0363 12.8906C19.8366 12.5978 19.751 12.2784 19.7624 11.9209C19.7777 11.4455 20.1161 10.9663 20.6162 10.9264C20.6333 10.9264 20.6485 10.9264 20.6656 10.9245C20.698 10.9245 20.7303 10.9245 20.7626 10.9283C21.1581 10.953 21.5365 11.1831 21.7913 11.4721C21.9739 11.6775 22.2096 11.8277 22.4721 11.8467C22.5025 11.8467 22.5329 11.8486 22.5633 11.8467C22.666 11.841 22.7725 11.8163 22.879 11.765C23.3163 11.5577 23.4608 9.79502 23.5578 9.2645C23.6224 9.26831 23.6852 9.27401 23.7498 9.27782C24.6492 9.33866 25.5106 9.32345 26.4842 9.29113H26.4899C26.4005 9.57445 25.9023 9.75699 26.0716 10.0974C26.0716 10.0974 26.0716 10.0974 26.0716 10.0993C26.9919 9.42994 28.475 10.0422 29.0265 8.4792C29.4125 8.39743 29.7167 8.31187 30.0989 8.16925C30.0989 8.16925 30.1008 8.16925 30.1027 8.16925C30.2301 8.29285 30.3784 8.44687 30.5134 8.58948L31.7741 9.93383L31.7703 9.93763ZM28.6005 5.20104L33.0918 5.1535H33.0956C32.799 5.96163 31.9034 6.5625 31.2417 6.98273C29.9411 7.81177 28.5416 8.24151 26.971 8.33468H26.9653C26.3701 8.37081 25.8225 8.39363 25.2577 8.3556C25.1893 8.35179 25.1208 8.34609 25.0524 8.33848C24.5123 8.28904 23.9837 8.28144 23.4456 8.08749C24.8869 6.96751 26.4138 6.09474 28.0396 5.33605C28.2259 5.24858 28.3267 5.21054 28.515 5.20104C28.5416 5.20104 28.5701 5.20104 28.6005 5.19914V5.20104ZM19.1293 10.4796C18.9961 10.2457 18.9068 9.96235 18.8916 9.70755C18.8022 8.17496 19.0722 6.70321 19.5114 5.25048C19.6103 4.92723 19.7586 4.70095 20.0496 4.52981C21.2209 3.84338 22.453 3.37942 23.7708 2.98391C24.0085 2.95729 24.2575 2.92116 24.5085 2.90215C24.5295 2.90215 24.5504 2.89835 24.5713 2.89835C24.6949 2.89264 24.8185 2.89074 24.9402 2.89835C25.1265 2.91166 25.3091 2.94588 25.4821 3.01814C26.4176 3.40414 27.2181 4.03543 27.9882 4.71996C26.6705 5.26759 25.5163 5.86276 24.3317 6.57201C22.4892 7.70529 20.7949 8.95647 19.1331 10.4815C19.1331 10.4815 19.1331 10.4815 19.1331 10.4777L19.1293 10.4796ZM17.9846 44.6454C17.9846 44.6454 17.9827 44.6416 17.9808 44.6416C15.9709 41.7741 14.0333 36.9463 13.6169 33.5845C13.402 31.8541 13.6929 30.3405 14.6931 28.903C15.9157 27.167 17.4464 25.6648 19.0323 24.1683C19.0323 24.1683 19.0323 24.1683 19.0342 24.1664C22.7554 27.0548 26.5716 31.4909 27.4863 36.1914L27.665 37.1174L27.7772 37.9293C27.8 38.0948 28.032 39.3612 27.8399 39.4144C27.0869 37.8019 26.1552 36.4044 25.0219 35.0866C23.9077 33.7917 22.7782 32.5139 21.2285 31.5594C21.2285 31.5594 21.2304 31.5632 21.2323 31.5651C22.0119 32.8277 22.8657 33.9191 23.5331 35.1931C23.7708 35.6476 25.2482 38.5321 25.1303 38.7546C25.1208 38.7698 25.098 38.7774 25.0657 38.7793C25.0143 38.7831 24.944 38.7736 24.8983 38.7755C24.8926 38.7755 24.8869 38.7755 24.8831 38.7755C21.8465 39.2471 19.0342 41.7475 17.9846 44.6454ZM45.189 42.6716C45.0578 42.5157 44.978 42.3256 44.9019 42.1392L43.8333 39.5076L44.3733 38.8516H44.3752C44.5254 38.9695 44.5692 39.1007 44.6357 39.2756L45.5636 41.7608L45.788 42.4454L45.189 42.6735V42.6716ZM45.7576 43.5844C45.7043 43.6452 45.6017 43.6813 45.4895 43.687C45.461 43.6889 45.4324 43.6889 45.402 43.687C45.2993 43.6813 45.2005 43.649 45.1358 43.5939C45.0198 43.4931 45.0103 43.1546 45.094 43.0291C45.1491 42.9455 45.2366 42.9055 45.3278 42.8979C45.3526 42.896 45.3792 42.896 45.4058 42.8979C45.5066 42.9055 45.6055 42.9416 45.6739 42.9892C45.8412 43.1052 45.9458 43.3676 45.7576 43.5825V43.5844ZM46.9878 37.2752C46.6722 37.7411 46.4535 38.1975 46.2501 38.7641C46.2501 38.7641 46.2501 38.7603 46.2482 38.7603C45.9953 38.3401 46.0428 37.8571 46.1854 37.3665H44.2839C44.2345 37.4749 44.1927 37.6498 44.1337 37.7468C42.9035 39.7928 40.6635 40.3747 38.3798 40.7454C37.7029 41.3121 37.0906 41.8977 36.4822 42.5233L34.729 44.3278C33.2268 45.8737 31.6771 47.2999 29.9886 48.6404L27.4083 50.6864C27.2505 50.7548 26.9672 50.8328 26.72 50.8499C26.6724 50.8537 26.6268 50.8537 26.5831 50.8537C26.4918 50.8499 26.4119 50.8347 26.353 50.8043L25.5696 50.3898L24.3127 49.806C23.9932 49.6577 23.6871 49.5493 23.3201 49.4961C22.1488 48.3438 21.0897 47.0945 20.0781 45.7901C19.9336 45.6018 19.8461 45.6075 19.8974 45.3318C20.1694 43.8905 20.8634 42.6355 21.9701 41.6639C22.8352 40.9033 24.0332 40.3252 25.2178 40.2549C25.3889 40.2454 25.5601 40.2454 25.7312 40.2587C25.7635 40.2587 25.7958 40.2625 25.8282 40.2663L26.2389 40.9508C26.2826 41.0231 26.1933 41.1828 26.1286 41.2265C26.0164 41.3045 24.7025 42.5043 24.809 42.7762C24.809 42.7762 24.809 42.7762 24.809 42.78C26.2028 41.8331 27.5015 40.9679 28.996 40.3404L34.3316 38.1005C35.9535 37.4198 36.3776 36.8265 37.4006 35.5088C37.9596 34.79 38.4654 34.0827 38.9826 33.3335L40.0855 31.74C40.3136 31.4092 40.7738 31.3673 41.1237 31.238L44.5901 29.9526H44.5939C44.9247 30.4299 45.2347 30.9015 45.5275 31.394C45.6017 31.5175 45.4895 31.7838 45.3887 31.8465C45.3335 31.8826 45.2461 31.9055 45.1586 31.9112C45.1377 31.9112 45.1149 31.9112 45.0921 31.9112C45.0141 31.9055 44.9419 31.8826 44.8981 31.8351L44.4684 31.3673H44.4646L43.3275 31.9815C43.2267 32.0367 43.2704 32.377 43.3997 32.3846C44.0063 32.4189 44.5368 32.4208 45.1548 32.4227H45.1586C45.3488 32.7478 45.4933 33.0501 45.6169 33.4856H45.6131L43.6907 33.4989C43.6774 33.6757 43.6869 33.8811 43.7173 34.0865L46.0067 34.1036H46.0124L46.2158 34.6132C46.2995 34.8223 46.3547 35.0049 46.3832 35.2426H46.3775L44.4132 35.2502C44.4931 35.5278 44.5673 35.6989 44.6794 35.9366L46.6456 35.9214H46.6513L47.1133 36.8417C47.1666 36.9482 47.0582 37.1764 46.9916 37.2752H46.9878ZM46.6646 32.1603C46.5619 32.2496 46.4383 32.3238 46.2596 32.4398V32.436C46.2748 32.1926 46.2976 31.9226 46.3337 31.7286L46.9878 31.0593L45.4191 29.1977C45.3887 29.1616 45.2917 29.076 45.2442 29.0799C45.2404 29.0799 45.2366 29.0799 45.2328 29.0837L44.9932 29.1977L43.3883 29.9298C43.3655 29.9393 43.318 29.9469 43.2819 29.9507C43.2819 29.9507 43.2781 29.9507 43.2761 29.9507C43.259 29.9507 43.2457 29.9545 43.2381 29.9545C43.2305 29.9545 43.2229 29.9545 43.2172 29.9545C43.2096 29.9545 43.2039 29.9545 43.1982 29.9545C42.816 29.9241 45.7005 28.1843 45.8241 28.1272C45.826 28.1272 45.8279 28.1272 45.8279 28.1272L46.8814 29.4259L46.8852 29.4297C47.0069 28.8878 46.8205 28.3858 46.908 27.8705C47.0468 27.5834 47.2541 27.2868 47.5583 27.0719C47.5583 27.0719 47.5621 27.07 47.5621 27.0681L47.6172 29.5647L47.6553 31.2932L46.6627 32.1603H46.6646ZM47.505 25.4062C47.3244 25.2351 47.2122 25.1096 47.0259 24.889L49.1726 23.5808L52.776 21.4093L54.7535 20.217L57.9955 18.2167L59.2885 17.4047L59.2923 17.4009C59.3018 17.7204 59.2429 17.96 59.1326 18.2186L53.0155 22.0006L47.5088 25.4062H47.505ZM61.1957 24.7236C60.8801 26.0812 60.5359 27.3932 60.0681 28.711L59.2961 30.8825C59.066 31.529 57.4612 35.368 57.0258 35.4669C56.9022 35.4954 56.771 35.5107 56.636 35.5202C56.4344 35.5335 56.2214 35.5278 56.0085 35.5145C55.6225 35.4878 55.2327 35.4346 54.9094 35.4023L54.5709 35.37L54.01 35.3148L53.3768 35.2102L52.1656 35.0011C51.6883 34.9193 51.2548 34.8033 50.8155 34.7006L50.1766 34.5523C50.1291 34.1815 50.0777 33.7841 49.8743 33.4666C49.7412 33.2593 49.7754 33.0844 49.9066 32.8961L50.7604 31.6697C51.9678 32.1051 53.1239 32.4569 54.377 32.6736C54.4093 32.6794 54.4416 32.6851 54.474 32.6889C54.5747 32.7041 54.685 32.7155 54.7972 32.7231C54.9094 32.7307 55.0273 32.7326 55.1452 32.7269C55.2289 32.7231 55.3144 32.7155 55.3962 32.7022C55.7213 32.6508 56.0161 32.5215 56.1796 32.2534L57.6723 29.8062C58.0963 29.1103 58.4842 28.4276 58.8607 27.7013L60.5188 24.4992L61.5703 22.3011C61.6483 22.3296 61.7224 22.379 61.7319 22.4152L61.1976 24.7217L61.1957 24.7236ZM68.9823 15.4462C69.1629 15.7333 69.2656 16.0452 69.083 16.3761C68.9119 16.6898 68.6552 16.7449 68.4213 16.7582C68.3415 16.762 68.2635 16.762 68.1931 16.7659C68.0867 16.7697 67.9954 16.783 67.9365 16.8362C67.868 17.5797 67.4269 17.9771 66.7613 18.0227C66.672 18.0284 66.5788 18.0284 66.4818 18.0227C66.4647 18.0227 66.4476 18.0208 66.4305 18.0189C66.3373 18.2775 66.2555 18.5837 66.1072 18.7605C65.9057 19.0001 65.7041 19.0762 65.5178 19.0838C65.4912 19.0838 65.4664 19.0838 65.4398 19.0838C65.2287 19.0724 65.0405 18.9887 64.9017 18.9792C64.8865 18.9792 64.8732 18.9792 64.858 18.9792C64.7686 18.9849 64.702 19.0343 64.6716 19.1807C64.5499 19.7531 64.0898 20.1562 63.5516 20.2018C63.487 20.2075 63.4204 20.2075 63.3539 20.2018C63.2588 20.1942 63.1637 20.1752 63.0687 20.1467C62.6066 20.0003 62.6522 19.5059 62.715 19.118L61.5056 17.2697C61.2775 16.9218 61.1082 16.5244 61.3421 16.1403C61.4638 15.9425 61.6521 15.8189 61.8707 15.8056C61.8935 15.8056 61.9164 15.8037 61.9392 15.8056C61.9487 15.8056 61.9582 15.8056 61.9677 15.8056C62.0285 15.8094 62.0894 15.8227 62.1522 15.8436C62.4108 15.9292 62.5286 16.222 62.6732 16.4521L63.9129 18.4411C63.9357 18.4563 63.9719 18.4639 64.0118 18.4677C64.0327 18.4677 64.0555 18.4696 64.0764 18.4677C64.143 18.4639 64.2095 18.4506 64.2381 18.4258C64.2932 18.3764 64.3655 18.249 64.375 18.1596L63.0953 16.0794C62.9394 15.8284 62.7283 15.6668 62.561 15.4786C62.2776 15.161 62.6161 14.6343 62.9032 14.4708C63.0154 14.408 63.1219 14.3738 63.2246 14.3662C63.2512 14.3643 63.2778 14.3643 63.3044 14.3662C63.5098 14.3795 63.6885 14.505 63.8178 14.718L65.4227 17.3287C65.4893 17.4371 65.5976 17.4922 65.7003 17.4979C65.7174 17.4979 65.7326 17.4979 65.7497 17.4979C65.784 17.4941 65.8163 17.4865 65.8448 17.4713C66.0711 17.3515 66.0065 17.1595 65.8962 16.9826L64.2324 14.3072C64.0764 14.0562 64.084 13.8052 64.3084 13.5371C64.4111 13.4135 64.6165 13.2842 64.7724 13.2595C64.78 13.2595 64.7895 13.2595 64.799 13.2557C64.8161 13.2557 64.8351 13.2557 64.8541 13.2557C65.0196 13.2633 65.2744 13.3451 65.3599 13.4839L67.0485 16.2391C67.1055 16.3323 67.2234 16.3856 67.3337 16.3913C67.3508 16.3913 67.3679 16.3913 67.385 16.3913C67.3983 16.3913 67.4116 16.3913 67.423 16.3875C67.5295 16.3665 67.6836 16.165 67.5999 16.03L66.0749 13.5523C65.9912 13.4173 65.8962 13.3242 65.7821 13.2063C65.5995 13.0199 65.7688 12.6149 65.9608 12.4951C66.1415 12.3829 66.3392 12.3183 66.5275 12.3107C66.5541 12.3107 66.5826 12.3107 66.6092 12.3107C66.8545 12.3221 67.0808 12.4343 67.2234 12.6606L68.9785 15.4424L68.9823 15.4462ZM75.8656 8.00763L71.8592 10.5138L68.6172 12.5103C68.5392 12.5579 68.448 12.5883 68.3662 12.594C68.3472 12.594 68.3282 12.594 68.311 12.594C68.2844 12.594 68.2616 12.5883 68.2388 12.5807C68.138 12.5465 67.9859 12.2688 68.0829 12.208L74.0231 8.55525L76.6643 6.90667H76.6661C76.7783 7.01885 76.8658 7.14626 76.9533 7.30218L75.8656 8.00763ZM80.2409 5.72585L79.2236 4.23889L80.3436 4.13811L81.0624 4.03163L81.7982 3.92134L82.3706 3.83197L83.5286 3.61711C83.7054 3.58478 83.8842 3.54104 84.0743 3.53154C84.1352 3.52773 84.1979 3.52773 84.2626 3.53154C84.3006 3.53534 84.3405 3.53915 84.3805 3.54675L80.2428 5.72395L80.2409 5.72585ZM85.0041 3.20258L84.8958 2.78806L84.5478 2.21571C84.4337 2.02747 84.2493 1.85824 84.0857 1.64527C84.1618 1.62245 84.2359 1.60724 84.3101 1.60153C84.35 1.59773 84.39 1.59773 84.4299 1.60153C84.9585 1.62625 85.3844 2.07691 85.4301 2.51234C85.4643 2.83179 85.354 3.1056 85.0022 3.20448L85.0041 3.20258Z" fill="#00256C"/>
<path d="M79.7049 31.1263L81.3571 29.1571C82.3611 29.9233 83.5113 30.2404 84.5962 30.2404C85.1511 30.2404 85.3889 30.0943 85.3889 29.844V29.8176C85.3889 29.5534 85.0982 29.4073 84.1066 29.2099C82.0316 28.7871 80.2069 28.1919 80.2069 26.2366V26.2102C80.2069 24.4523 81.5809 23.0907 84.133 23.0907C85.9173 23.0907 87.2384 23.5135 88.3093 24.359L86.8033 26.448C85.9313 25.8138 84.8868 25.5356 84.0273 25.5356C83.5641 25.5356 83.3528 25.6941 83.3528 25.9195V25.9459C83.3528 26.1977 83.6046 26.3563 84.5822 26.5412C86.9478 26.978 88.5347 27.665 88.5347 29.5285V29.555C88.5347 31.4978 86.9354 32.6868 84.4501 32.6868C82.5725 32.6868 80.8815 32.1584 79.7049 31.1279V31.1263Z" fill="#00256C"/>
<path d="M92.0769 25.879H89.3538V23.2617H97.8929V25.879H95.1699V32.5142H92.0769V25.879Z" fill="#00256C"/>
<path d="M99.3852 23.2617H107.276V25.7998H102.425V26.7386H106.945V28.972H102.425V29.9761H107.341V32.5142H99.3852V23.2617Z" fill="#00256C"/>
<path d="M108.293 23.2617H111.756L113.554 28.456L115.353 23.2617H118.763L115.009 32.5795H112.048L108.295 23.2617H108.293Z" fill="#00256C"/>
<path d="M119.936 23.2617H127.827V25.7998H122.976V26.7386H127.496V28.972H122.976V29.9761H127.892V32.5142H119.936V23.2617Z" fill="#00256C"/>
<path d="M130.483 26.3018H129.347V23.2617H132.346V26.6764L129.438 28.5757L130.483 26.3018Z" fill="#00256C"/>
<path d="M132.954 31.1263L134.606 29.157C135.61 29.9233 136.761 30.2404 137.844 30.2404C138.399 30.2404 138.637 30.0943 138.637 29.844V29.8176C138.637 29.5534 138.346 29.4073 137.354 29.2099C135.279 28.7871 133.455 28.1918 133.455 26.2366V26.2101C133.455 24.4523 134.829 23.0907 137.381 23.0907C139.165 23.0907 140.486 23.5135 141.557 24.359L140.049 26.4479C139.177 25.8138 138.133 25.5356 137.273 25.5356C136.81 25.5356 136.599 25.6941 136.599 25.9195V25.9459C136.599 26.1977 136.851 26.3562 137.828 26.5412C140.194 26.9779 141.781 27.6649 141.781 29.5285V29.5549C141.781 31.4978 140.182 32.6868 137.696 32.6868C135.819 32.6868 134.128 32.1583 132.951 31.1278L132.954 31.1263Z" fill="#00256C"/>
<path d="M147.44 23.2617H151.604C154.063 23.2617 155.742 24.359 155.742 26.5536V26.58C155.742 28.8135 154.037 30.0041 151.539 30.0041H150.535V32.5158H147.442V23.2632L147.44 23.2617ZM151.366 27.7955C152.159 27.7955 152.688 27.438 152.688 26.7774V26.751C152.688 26.0764 152.198 25.7329 151.379 25.7329H150.533V27.7955H151.366Z" fill="#00256C"/>
<path d="M157.193 23.2617H161.713C163.353 23.2617 164.396 23.672 165.044 24.3186C165.599 24.8734 165.889 25.5604 165.889 26.5132V26.5396C165.889 27.8872 165.188 28.8259 164.065 29.3684L166.219 32.5142H162.689L160.944 29.8704H160.283V32.5142H157.19V23.2617H157.193ZM161.621 27.6633C162.361 27.6633 162.81 27.3323 162.81 26.765V26.7386C162.81 26.1433 162.347 25.8526 161.634 25.8526H160.286V27.6633H161.621Z" fill="#00256C"/>
<path d="M167.436 23.2617H175.327V25.7998H170.476V26.7386H174.996V28.972H170.476V29.9761H175.392V32.5142H167.436V23.2617Z" fill="#00256C"/>
<path d="M177.018 23.2617H180.243L182.226 26.5132L184.209 23.2617H187.435V32.5142H184.356V27.9276L182.228 31.218H182.175L180.047 27.9276V32.5142H177.021V23.2617H177.018Z" fill="#00256C"/>
<path d="M189.309 23.2617H192.402V32.5142H189.309V23.2617Z" fill="#00256C"/>
<path d="M194.2 28.3643V23.2617H197.346V28.3239C197.346 29.4741 197.941 29.9637 198.773 29.9637C199.604 29.9637 200.2 29.5145 200.2 28.3907V23.2617H203.345V28.2975C203.345 31.4558 201.508 32.6992 198.746 32.6992C195.984 32.6992 194.2 31.4309 194.2 28.3643Z" fill="#00256C"/>
<path d="M205.116 23.2617H208.341L210.324 26.5132L212.307 23.2617H215.532V32.5142H212.453V27.9276L210.326 31.218H210.273L208.145 27.9276V32.5142H205.119V23.2617H205.116Z" fill="#00256C"/>
<path d="M80.4726 36.9627H84.6365C87.0954 36.9627 88.774 38.06 88.774 40.2547V40.2811C88.774 42.5146 87.0689 43.7051 84.5712 43.7051H83.5672V46.2169H80.4742V36.9643L80.4726 36.9627ZM84.3972 41.4965C85.1898 41.4965 85.7183 41.139 85.7183 40.4785V40.4521C85.7183 39.7775 85.2287 39.434 84.4096 39.434H83.5641V41.4965H84.3972Z" fill="#00256C"/>
<path d="M90.226 36.9627H94.7459C96.3841 36.9627 97.4285 37.373 98.0767 38.0196C98.6315 38.5745 98.9222 39.2615 98.9222 40.2142V40.2407C98.9222 41.5882 98.2212 42.527 97.0975 43.0695L99.2517 46.2153H95.7219L93.9765 43.5715H93.3159V46.2153H90.2229V36.9627H90.226ZM94.6542 41.3644C95.394 41.3644 95.8432 41.0334 95.8432 40.466V40.4396C95.8432 39.8443 95.38 39.5537 94.6666 39.5537H93.319V41.3644H94.6542Z" fill="#00256C"/>
<path d="M100.468 36.9627H108.359V39.5008H103.508V40.4396H108.028V42.6731H103.508V43.6772H108.424V46.2153H100.468V36.9627Z" fill="#00256C"/>
<path d="M109.285 44.8325L110.937 42.8633C111.941 43.6295 113.091 43.9466 114.174 43.9466C114.729 43.9466 114.967 43.8005 114.967 43.5503V43.5238C114.967 43.2596 114.676 43.1135 113.685 42.9161C111.61 42.4933 109.785 41.8981 109.785 39.9428V39.9164C109.785 38.1585 111.159 36.7969 113.711 36.7969C115.495 36.7969 116.817 37.2197 117.887 38.0652L116.38 40.1542C115.508 39.52 114.463 39.2418 113.604 39.2418C113.141 39.2418 112.929 39.4003 112.929 39.6257V39.6521C112.929 39.9039 113.181 40.0625 114.159 40.2474C116.524 40.6842 118.111 41.3712 118.111 43.2347V43.2611C118.111 45.204 116.512 46.393 114.027 46.393C112.149 46.393 110.458 45.8646 109.281 44.8341L109.285 44.8325Z" fill="#00256C"/>
<path d="M118.72 44.8325L120.372 42.8633C121.376 43.6295 122.527 43.9466 123.61 43.9466C124.165 43.9466 124.403 43.8005 124.403 43.5503V43.5238C124.403 43.2596 124.112 43.1135 123.12 42.9161C121.045 42.4933 119.221 41.8981 119.221 39.9428V39.9164C119.221 38.1585 120.595 36.7969 123.147 36.7969C124.931 36.7969 126.252 37.2197 127.323 38.0652L125.815 40.1542C124.943 39.52 123.899 39.2418 123.039 39.2418C122.576 39.2418 122.365 39.4003 122.365 39.6257V39.6521C122.365 39.9039 122.617 40.0625 123.594 40.2474C125.96 40.6842 127.547 41.3712 127.547 43.2347V43.2611C127.547 45.204 125.947 46.393 123.462 46.393C121.585 46.393 119.894 45.8646 118.717 44.8341L118.72 44.8325Z" fill="#00256C"/>
<path d="M128.977 42.0644V36.9617H132.123V42.024C132.123 43.1742 132.718 43.6638 133.549 43.6638C134.381 43.6638 134.976 43.2146 134.976 42.0908V36.9617H138.122V41.9976C138.122 45.1559 136.285 46.3993 133.523 46.3993C130.761 46.3993 128.977 45.131 128.977 42.0644Z" fill="#00256C"/>
<path d="M139.893 36.9627H144.412C146.052 36.9627 147.095 37.373 147.743 38.0196C148.298 38.5745 148.589 39.2615 148.589 40.2142V40.2407C148.589 41.5882 147.888 42.527 146.764 43.0695L148.918 46.2153H145.388L143.643 43.5715H142.982V46.2153H139.889V36.9627H139.893ZM144.321 41.3644C145.06 41.3644 145.51 41.0334 145.51 40.466V40.4396C145.51 39.8443 145.046 39.5537 144.333 39.5537H142.986V41.3644H144.321Z" fill="#00256C"/>
<path d="M150.135 36.9627H158.026V39.5008H153.175V40.4396H157.695V42.6731H153.175V43.6772H158.092V46.2153H150.135V36.9627Z" fill="#00256C"/>
<path d="M163.339 36.9707H166.576L167.885 41.4112L169.379 36.9443H172.049L173.543 41.4112L174.851 36.9707H178.038L175.012 46.2885H172.315L170.689 41.6895L169.063 46.2885H166.367L163.34 36.9707H163.339Z" fill="#00256C"/>
<path d="M181.393 36.9027H184.46L188.359 46.2206H185.002L184.513 44.9787H181.275L180.8 46.2206H177.495L181.395 36.9027H181.393ZM183.746 42.7856L182.901 40.5382L182.055 42.7856H183.748H183.746Z" fill="#00256C"/>
<path d="M188.635 44.8325L190.287 42.8633C191.291 43.6295 192.441 43.9466 193.524 43.9466C194.079 43.9466 194.317 43.8005 194.317 43.5503V43.5238C194.317 43.2596 194.027 43.1135 193.035 42.9161C190.96 42.4933 189.135 41.8981 189.135 39.9428V39.9164C189.135 38.1585 190.509 36.7969 193.061 36.7969C194.846 36.7969 196.167 37.2197 197.238 38.0652L195.73 40.1542C194.858 39.52 193.814 39.2418 192.954 39.2418C192.491 39.2418 192.28 39.4003 192.28 39.6257V39.6521C192.28 39.9039 192.531 40.0625 193.509 40.2474C195.875 40.6842 197.461 41.3712 197.461 43.2347V43.2611C197.461 45.204 195.862 46.393 193.377 46.393C191.499 46.393 189.808 45.8646 188.632 44.8341L188.635 44.8325Z" fill="#00256C"/>
<path d="M198.97 36.9627H202.063V40.2282H204.892V36.9627H207.985V46.2153H204.892V42.8985H202.063V46.2153H198.97V36.9627Z" fill="#00256C"/>
<path d="M209.861 36.9627H212.954V46.2153H209.861V36.9627Z" fill="#00256C"/>
<path d="M214.83 36.9627H217.725L221.016 41.0473V36.9627H224.083V46.2153H221.334L217.897 41.9457V46.2153H214.83V36.9627Z" fill="#00256C"/>
<path d="M225.721 41.619V41.5926C225.721 38.8307 227.902 36.7681 230.824 36.7681C232.409 36.7681 233.691 37.2966 234.697 38.1685L232.965 40.2575C232.358 39.7415 231.683 39.4508 230.917 39.4508C229.714 39.4508 228.842 40.3756 228.842 41.6315V41.6579C228.842 42.9666 229.754 43.8649 231.049 43.8649C231.577 43.8649 231.868 43.7857 232.106 43.6536V42.7288H230.519V40.7455H235V45.0275C233.996 45.8466 232.594 46.4155 230.915 46.4155C228.034 46.4155 225.721 44.4851 225.721 41.6175V41.619Z" fill="#00256C"/>
</svg>
