<svg width="486" height="88" viewBox="0 0 486 88" fill="none" xmlns="http://www.w3.org/2000/svg">
<g opacity="0.9">
<path d="M0.0758362 2.87117C0.453415 1.15462 1.93835 0 3.76986 0C4.10235 0 4.44048 0.0391407 4.77579 0.114624C4.91667 0.145377 5.05192 0.198492 5.17872 0.268384L12.9246 4.55697C13.4374 4.84213 13.7389 5.39289 13.7023 5.9716C13.6882 6.1645 13.7615 6.34342 13.9136 6.50557C14.1052 6.70965 14.356 6.79912 14.5166 6.79912C14.5307 6.79912 14.5476 6.79912 14.5589 6.79912C14.6829 6.78514 14.804 6.77675 14.9252 6.77675C15.8409 6.77675 16.4693 7.17933 16.9286 7.47567L20.5071 9.76814L22.4738 10.9815L25.872 13.0419L28.8447 14.792C29.1997 13.7408 30.1831 13.0307 31.3355 13.0055C31.3581 13.0055 31.3806 13.0055 31.4032 13.0055C32.5077 13.0055 33.4629 13.5871 33.9025 14.532C33.9447 14.5795 34.0744 14.683 34.1702 14.7612C34.2209 14.8004 34.2688 14.8423 34.3223 14.8815C34.883 15.3372 35.4494 15.6475 36.1087 15.8571L36.8611 16.0976C37.0949 16.1731 37.3063 16.3017 37.4782 16.475C37.7064 16.7042 37.9994 16.8468 38.3742 17.0285C38.8926 17.2802 39.5379 17.5933 40.062 18.2223C40.1634 18.3425 40.2705 18.4655 40.3832 18.5941C40.7861 19.0526 41.2426 19.5726 41.5751 20.2492C42.0513 21.2165 42.195 22.1978 42.2457 23.1455L43.8856 24.1687L50.4706 28.2337C55.6045 18.1161 64.8381 10.4 76.0104 7.23245C76.2301 5.87654 77.4305 4.86171 78.8985 4.86171C78.9943 4.86171 79.0901 4.8673 79.1859 4.87568L79.8988 4.94278L83.1843 5.00428C83.404 5.00987 83.621 5.01547 83.8408 5.01827C84.2606 5.02945 84.6579 5.04063 85.058 5.04063C86.1513 3.90558 87.9716 2.80128 89.1832 2.43504C89.8904 2.21977 90.6202 2.05483 91.35 1.94021C91.8036 1.86752 92.3249 1.83397 92.8997 1.83397C94.0775 1.83397 95.3709 1.98494 96.3571 2.23655C98.4027 2.75935 100.093 3.59806 101.528 4.8002C103.131 6.14493 103.99 7.82513 104.585 9.37395C118.809 15.846 128.688 30.0984 128.688 46.6405C128.688 69.2716 110.198 87.6169 87.3883 87.6169C85.0017 87.6169 82.6658 87.4156 80.3919 87.0298H80.3891C71.3386 85.495 63.2884 81.0386 57.2698 74.6756C57.0979 74.4967 56.9316 74.315 56.7654 74.1333L53.4489 69.9929C50.4594 65.7239 48.2672 60.8649 47.0865 55.6286L46.9147 55.6594C46.3539 55.7544 45.8467 55.8327 45.286 55.8327C44.8098 55.8327 44.3731 55.774 43.9533 55.651C42.8825 55.3407 42.0936 54.7759 41.6146 53.9792C40.6453 52.3744 39.1913 49.5732 38.4305 47.6609L37.9036 46.3357C37.712 45.8549 37.4894 45.2678 37.2922 44.5884L35.0324 36.7717C35.0267 36.7549 35.0239 36.7381 35.0183 36.7214L34.6238 35.1558C34.6238 35.1558 34.6182 35.1334 34.6153 35.1222L34.3026 33.7496C34.297 33.73 34.2941 33.7104 34.2913 33.6909L34.0631 32.4552C33.4516 32.3853 32.967 32.0721 32.6373 31.8569C32.5641 31.8094 32.488 31.7618 32.4457 31.7367C31.9611 31.4683 31.5553 31.0965 31.2228 30.6156C29.8816 30.3248 29.2335 29.6119 28.8193 29.1562C28.7601 29.0891 28.6813 29.0053 28.6334 28.9578C27.5683 28.6195 26.7089 27.9345 26.1735 27.0203C25.0464 26.6289 24.1617 25.8433 23.7277 24.8201C23.3107 23.8305 23.3896 22.8212 23.956 21.8986L24.9281 20.3191L23.9672 19.7292C23.9672 19.7292 23.9447 19.7152 23.9362 19.7096L23.105 19.17L21.1636 18.0042C21.1636 18.0042 21.1354 17.9875 21.1241 17.9791L19.5406 16.9642L17.5879 15.7174L15.8776 14.6522C15.6409 14.504 15.4098 14.3559 15.1844 14.2105C14.6462 13.861 14.139 13.5311 13.6234 13.2851C12.3949 12.6952 12.0145 11.8929 11.7891 11.412C11.6566 11.1296 11.6341 11.0877 11.4538 10.9703C11.2086 10.8109 11.0705 10.7578 11.0142 10.741C10.9776 10.755 10.9268 10.7746 10.8846 10.7886C10.6338 10.8864 10.2534 11.0346 9.75185 11.0346C9.24749 11.0346 8.7572 10.8864 8.25283 10.5817L7.43006 10.0841L1.76365 6.84105C0.413971 6.06944 -0.25946 4.47589 0.0927429 2.87956L0.0758362 2.87117Z" fill="#FAD25A"/>
<path d="M87.3771 86.2414C65.3307 86.2414 47.4586 68.5089 47.4586 46.6348C47.4586 24.7608 65.3307 7.02832 87.3771 7.02832C109.424 7.02832 127.296 24.7608 127.296 46.6348C127.296 68.5089 109.424 86.2414 87.3771 86.2414Z" fill="#EFAF20"/>
<path d="M47.4587 46.635C47.4587 47.1326 47.4672 47.6247 47.4869 48.1167C47.5348 49.4307 47.6475 50.7279 47.825 52.0055C47.9124 52.6457 48.0138 53.2804 48.1321 53.9122C49.2198 59.7244 51.5867 65.0921 54.9341 69.7162C55.4188 70.3872 55.9259 71.0441 56.4528 71.6844C56.6726 71.9527 56.898 72.2155 57.1263 72.4783C57.2052 72.5678 57.2841 72.6573 57.363 72.7467C57.7969 73.2388 58.2421 73.7196 58.7014 74.1865C58.7493 74.234 58.7972 74.2844 58.8451 74.3319C58.893 74.3794 58.9409 74.4297 58.9888 74.48C64.5819 80.0938 71.8516 84.0581 79.9948 85.5678C82.3871 86.0123 84.8554 86.2443 87.3801 86.2443C109.426 86.2443 127.299 68.5113 127.299 46.6378C127.299 42.7825 126.743 39.0587 125.709 35.5361L117.4 30.4368L107.935 36.3552L99.7554 31.3118L94.0665 27.8032L94.0609 27.7976L84.3989 28.4379L69.2312 29.4443L68.507 29.4918L61.1894 24.8594L51.2203 30.4759L50.8315 30.694C50.716 30.954 50.6033 31.2168 50.4934 31.4824C50.3722 31.7703 50.2539 32.0639 50.1412 32.3546C49.9608 32.8187 49.7861 33.2884 49.6255 33.7608C49.0366 35.4578 48.5604 37.2079 48.2082 39.0028C47.7207 41.4742 47.4672 44.0266 47.4672 46.6378L47.4587 46.635Z" fill="#1874CA"/>
<path d="M58.9888 74.4745C58.9412 74.427 58.8937 74.3766 58.8462 74.3291C58.8937 74.3766 58.9412 74.427 58.9888 74.4773V74.4745Z" fill="white"/>
<path d="M58.8562 65.517C58.1687 67.9884 57.6192 70.197 57.36 72.7438C57.7939 73.2359 58.2391 73.7167 58.6984 74.1836C58.8731 70.9714 59.2197 67.9856 60.0481 64.8209L59.4367 63.834C59.1549 64.3624 59.0196 64.9299 58.859 65.517H58.8562Z" fill="white"/>
<path d="M120.065 65.5059C119.679 66.1628 119.274 66.8059 118.851 67.4349H55.9033C55.4806 66.8059 55.0749 66.1601 54.6889 65.5059H120.065Z" fill="white"/>
<path d="M116.264 70.8421H58.4872C57.9547 70.2159 57.4418 69.5729 56.9487 68.9131H117.8C117.307 69.5729 116.797 70.2159 116.262 70.8421H116.264Z" fill="white"/>
<path d="M121.933 38.8965H123.883V40.8311H121.933V38.8965Z" fill="white"/>
<path d="M119.189 38.8965H121.139V40.8311H119.189V38.8965Z" fill="white"/>
<path d="M121.933 41.627H123.883V43.5616H121.933V41.627Z" fill="white"/>
<path d="M119.189 41.6279H121.139V43.5625H119.189V41.6279Z" fill="white"/>
<path d="M121.933 44.3506H123.883V46.2852H121.933V44.3506Z" fill="white"/>
<path d="M119.189 44.3506H121.139V46.2852H119.189V44.3506Z" fill="white"/>
<path d="M114.315 38.8965H116.264V40.8311H114.315V38.8965Z" fill="white"/>
<path d="M111.57 38.8965H113.52V40.8311H111.57V38.8965Z" fill="white"/>
<path d="M114.315 41.6279H116.264V43.5625H114.315V41.6279Z" fill="white"/>
<path d="M111.57 41.6279H113.52V43.5625H111.57V41.6279Z" fill="white"/>
<path d="M114.315 44.3506H116.264V46.2852H114.315V44.3506Z" fill="white"/>
<path d="M111.57 44.3506H113.52V46.2852H111.57V44.3506Z" fill="white"/>
<path d="M121.933 49.542H123.883V51.4766H121.933V49.542Z" fill="white"/>
<path d="M119.189 49.542H121.139V51.4766H119.189V49.542Z" fill="white"/>
<path d="M121.933 52.2734H123.883V54.2081H121.933V52.2734Z" fill="white"/>
<path d="M119.189 52.2734H121.139V54.2081H119.189V52.2734Z" fill="white"/>
<path d="M121.933 54.9961H123.883V56.9307H121.933V54.9961Z" fill="white"/>
<path d="M119.189 54.9971H121.139V56.9317H119.189V54.9971Z" fill="white"/>
<path d="M114.315 49.542H116.264V51.4766H114.315V49.542Z" fill="white"/>
<path d="M111.57 49.542H113.52V51.4766H111.57V49.542Z" fill="white"/>
<path d="M114.315 52.2734H116.264V54.2081H114.315V52.2734Z" fill="white"/>
<path d="M111.57 52.2734H113.52V54.2081H111.57V52.2734Z" fill="white"/>
<path d="M114.315 54.9971H116.264V56.9317H114.315V54.9971Z" fill="white"/>
<path d="M111.57 54.9971H113.52V56.9317H111.57V54.9971Z" fill="white"/>
<path d="M53.0968 38.8965H55.0466V40.8311H53.0968V38.8965Z" fill="white"/>
<path d="M50.3524 38.8965H52.3022V40.8311H50.3524V38.8965Z" fill="white"/>
<path d="M53.0968 41.6279H55.0466V43.5625H53.0968V41.6279Z" fill="white"/>
<path d="M50.3524 41.6279H52.3022V43.5625H50.3524V41.6279Z" fill="white"/>
<path d="M53.0968 44.3506H55.0466V46.2852H53.0968V44.3506Z" fill="white"/>
<path d="M50.3524 44.3506H52.3022V46.2852H50.3524V44.3506Z" fill="white"/>
<path d="M60.7159 49.542H62.6658V51.4766H60.7159V49.542Z" fill="white"/>
<path d="M57.9715 49.542H59.9214V51.4766H57.9715V49.542Z" fill="white"/>
<path d="M60.7159 52.2734H62.6658V54.2081H60.7159V52.2734Z" fill="white"/>
<path d="M57.9715 52.2734H59.9214V54.2081H57.9715V52.2734Z" fill="white"/>
<path d="M60.7159 54.9971H62.6658V56.9317H60.7159V54.9971Z" fill="white"/>
<path d="M57.9715 54.9971H59.9214V56.9317H57.9715V54.9971Z" fill="white"/>
<path d="M53.0968 49.542H55.0466V51.4766H53.0968V49.542Z" fill="white"/>
<path d="M50.3524 49.542H52.3022V51.4766H50.3524V49.542Z" fill="white"/>
<path d="M53.0968 52.2734H55.0466V54.2081H53.0968V52.2734Z" fill="white"/>
<path d="M50.3524 52.2734H52.3022V54.2081H50.3524V52.2734Z" fill="white"/>
<path d="M53.0968 54.9971H55.0466V56.9317H53.0968V54.9971Z" fill="white"/>
<path d="M50.3524 54.9971H52.3022V56.9317H50.3524V54.9971Z" fill="white"/>
<path d="M61.0117 63.213C61.1103 63.1459 61.254 63.09 61.4006 63.0788C61.44 63.076 61.4766 63.076 61.5161 63.0788C61.6542 63.09 61.7866 63.1459 61.8711 63.2717C61.9951 63.4562 61.981 63.9539 61.8091 64.102C61.7105 64.1859 61.5612 64.2306 61.409 64.239C61.3667 64.2418 61.3217 64.2418 61.2794 64.239C61.1188 64.2279 60.9666 64.1747 60.8905 64.0881C60.6116 63.7693 60.7666 63.3863 61.0145 63.2158L61.0117 63.213ZM61.1751 61.4042L62.5502 57.7502C62.646 57.4958 62.7136 57.3029 62.9306 57.1268C62.9306 57.1268 62.9306 57.1268 62.9362 57.124L63.7393 58.0913L62.1557 61.9605C62.043 62.2373 61.9247 62.5169 61.7274 62.7461H61.7218L60.8398 62.4106L61.1723 61.4042H61.1751ZM58.8843 54.1718L59.569 52.8186L62.4826 52.841H62.491C62.6573 52.4915 62.7671 52.2427 62.8827 51.8318H62.877L59.9663 51.8206C60.0086 51.4711 60.0903 51.1999 60.2143 50.8952L60.5158 50.146L63.9083 50.1208H63.914C63.9562 49.8189 63.9731 49.5197 63.9534 49.2569H63.9478L61.0991 49.2374C61.2822 48.5971 61.4964 48.1526 61.7781 47.6746C62.6939 47.6746 63.48 47.669 64.3789 47.6187H64.3845C64.5733 47.6075 64.6409 47.1043 64.4916 47.026L62.801 46.123L62.167 46.8107C62.1022 46.8806 61.9895 46.9169 61.8711 46.9225C61.8401 46.9225 61.8063 46.9225 61.7725 46.9225C61.6457 46.9141 61.5217 46.8778 61.44 46.8275C61.2907 46.7352 61.1244 46.3438 61.2343 46.1621C61.6682 45.438 62.1275 44.7475 62.615 44.043L67.7573 45.9356C68.2786 46.1258 68.9577 46.1873 69.2958 46.6737L70.9301 49.0165C71.6965 50.1152 72.4488 51.1552 73.2744 52.2148C74.7903 54.1522 75.4159 55.0244 77.8222 56.0253L85.7287 59.3186C87.9434 60.2412 89.8651 61.5104 91.9277 62.9027C91.9277 62.9027 91.9333 62.9027 91.9333 62.9083C92.1052 62.5169 90.1469 60.7388 89.9778 60.6242C89.882 60.5599 89.7496 60.3223 89.8144 60.2188L90.423 59.2124C90.4681 59.2068 90.516 59.204 90.5611 59.2012C90.8147 59.1816 91.0683 59.1816 91.3219 59.1956C93.0773 59.2962 94.8581 60.1461 96.1401 61.2672C97.7772 62.6958 98.8085 64.541 99.2115 66.6601C99.2875 67.0655 99.1579 67.0571 98.9438 67.3338C97.4476 69.2545 95.8781 71.0913 94.1396 72.7827C93.5986 72.8609 93.1449 73.0175 92.6715 73.2384L90.8062 74.0966L89.6481 74.7061C89.558 74.7536 89.4368 74.776 89.2987 74.7788C89.2339 74.7788 89.1663 74.7788 89.0959 74.7732C88.7324 74.7452 88.3125 74.6334 88.0815 74.5327L84.2578 71.5246C81.7557 69.5564 79.4593 67.4569 77.2333 65.184L74.6354 62.5309C73.7337 61.6083 72.8264 60.75 71.8233 59.9169C68.4392 59.3717 65.1228 58.5162 63.2969 55.5081C63.2095 55.3655 63.1475 55.1083 63.0743 54.9461H60.2566C60.4679 55.673 60.5383 56.3859 60.158 57.0066V57.001C59.8593 56.1707 59.5352 55.4997 59.0675 54.8176C58.9689 54.675 58.8054 54.3367 58.8872 54.1801L58.8843 54.1718ZM58.132 43.4698L58.2137 39.8047V39.7991C58.6674 40.1178 58.9773 40.554 59.1858 40.9789C59.3126 41.7337 59.0393 42.4718 59.2168 43.263V43.2686L60.7807 41.3535C60.8286 41.3535 65.289 44.0178 64.6691 44.0402C64.6606 44.0402 64.6522 44.0402 64.6409 44.0402C64.6353 44.0402 64.6268 44.0402 64.6184 44.0402C64.6071 44.0402 64.5818 44.0374 64.5536 44.0346C64.5536 44.0346 64.548 44.0346 64.5451 44.0346C64.4916 44.029 64.4296 44.0206 64.3958 44.0038L62.0176 42.9275L61.6626 42.7598C61.6626 42.7598 61.6485 42.7542 61.6401 42.7542C61.5668 42.7542 61.4316 42.8772 61.3865 42.9275L59.0619 45.6645L60.0312 46.6485C60.0847 46.9365 60.1185 47.3335 60.141 47.6941C60.141 47.6941 60.1354 47.6913 60.1326 47.6886C59.8705 47.5208 59.6902 47.4118 59.5381 47.2832L58.0672 46.0083L58.1236 43.467L58.132 43.4698ZM60.4115 36.626C60.4115 36.626 60.4115 36.626 60.4144 36.626C60.7722 36.7714 61.0878 36.8441 61.4654 36.8664C61.5161 36.8692 61.5696 36.872 61.6232 36.872C61.7612 36.872 61.8852 36.8804 61.9951 36.886C63.0827 36.9503 63.0067 37.1879 63.2377 37.3445L68.0053 40.5819L74.5367 44.7615C74.8467 44.9599 74.0296 45.7204 73.9478 46.0978L74.3987 46.4081C74.5114 46.8974 74.3339 47.2133 74.0211 47.4901C73.8858 47.6103 73.6576 47.6802 73.4435 47.6858C73.4153 47.6858 73.3899 47.6858 73.3646 47.6858C73.2603 47.6802 73.1645 47.6606 73.0856 47.6242C72.8912 47.5348 72.5502 47.1713 72.6658 46.984L73.2068 46.1118L71.967 45.2787L69.617 43.6795L65.7427 41.0516C63.7674 39.7125 61.7781 38.5215 59.5859 37.5039C59.7578 37.1516 60.1016 36.749 60.4115 36.6232V36.626ZM87.532 55.7681L87.6955 54.5743L87.9631 53.2128C89.3156 46.3047 94.9708 39.7851 100.482 35.5385C100.482 35.5385 100.482 35.5385 100.485 35.5357C102.835 37.7359 105.109 39.9473 106.918 42.4998C108.4 44.6133 108.828 46.8387 108.513 49.3827C107.896 54.3283 105.024 61.4294 102.043 65.6453V65.6397C100.488 61.3818 96.3205 57.7083 91.8234 57.015C91.815 57.015 91.8037 57.015 91.7924 57.015C91.7248 57.0122 91.6233 57.0234 91.5445 57.0206C91.5022 57.0178 91.4684 57.0066 91.4571 56.9842C91.2796 56.6571 93.4689 52.4133 93.824 51.7479C94.8158 49.872 96.081 48.2645 97.2391 46.4053C97.2334 46.4053 97.2306 46.4109 97.225 46.4137C94.9342 47.8144 93.2661 49.6903 91.6149 51.5913C89.9327 53.5287 88.552 55.5864 87.439 57.9571H87.4334C87.1601 57.8509 87.4982 56.0169 87.532 55.7765V55.7681ZM37.4528 32.7959H37.4585L39.0166 36.0305L41.4737 40.7385C42.0316 41.8064 42.6064 42.8101 43.2348 43.8333L45.4467 47.4313C45.689 47.8227 46.1229 48.0129 46.5991 48.0911C46.7203 48.1107 46.8443 48.1219 46.9711 48.1275C47.3176 48.1442 47.667 48.1135 47.9657 48.0716C48.0192 48.066 48.0672 48.0576 48.1179 48.0492C49.9719 47.7305 51.6851 47.2133 53.4715 46.5731C53.4715 46.5731 53.4743 46.5731 53.4771 46.5731L54.7451 48.3791C54.9395 48.6558 54.9903 48.9103 54.793 49.2178C54.4915 49.6847 54.4154 50.269 54.3422 50.8141L53.3954 51.0322C52.7417 51.1832 52.0993 51.3509 51.3921 51.4739L49.6 51.7814L48.6617 51.9352L47.3317 52.0638C46.8499 52.1113 46.2723 52.1924 45.6946 52.2287C45.379 52.2511 45.0635 52.2567 44.7648 52.2371C44.5647 52.2231 44.3731 52.198 44.1928 52.1589C43.5447 52.0135 41.1694 46.369 40.8284 45.4185L39.6844 42.2258C38.9885 40.2883 38.4785 38.3621 38.0135 36.3632L37.2218 32.972C37.2358 32.9189 37.3401 32.849 37.4556 32.8043L37.4528 32.7959ZM75.1707 39.623L75.5173 38.6305C76.0583 37.0817 76.6472 35.586 77.4277 34.1378C78.2674 32.5806 79.1916 31.1688 80.3356 29.8213C80.3666 29.785 80.4539 29.7626 80.5357 29.757C80.5554 29.757 80.5723 29.757 80.5892 29.757C80.6512 29.757 80.6991 29.7766 80.6991 29.8129C80.6371 32.4325 82.6884 34.1434 85.2074 34.4426C85.4328 34.4705 85.6554 34.4901 85.8808 34.5013C86.3458 34.5292 86.8079 34.5264 87.2643 34.4985C88.9437 34.3978 90.5836 33.9366 92.1277 33.2153L96.1289 31.3449H96.1317C96.3458 31.4596 96.5233 31.7056 96.5121 31.9432C92.6321 34.6523 88.9155 37.6297 86.1119 41.4011L83.962 44.289H83.9564C83.9056 44.2946 83.8605 44.2946 83.8155 44.2946C83.5957 44.2834 83.4238 44.1995 83.235 44.1017L79.4875 42.1279C78.1575 41.4262 76.8585 40.8 75.4807 40.2017C75.3623 40.1486 75.1792 40.0843 75.1397 40.0004C75.1003 39.9165 75.1341 39.7236 75.1679 39.6258L75.1707 39.623ZM68.6393 39.7907C69.4085 36.6875 71.4767 31.672 74.1084 29.4774C74.1141 29.4746 74.1169 29.469 74.1225 29.4662L71.7021 33.6738C70.8455 35.1667 70.2623 36.7462 69.7804 38.3957L69.2394 40.252H69.231C69.231 40.252 69.2113 40.252 69.2028 40.252C68.9774 40.238 68.5801 40.02 68.6364 39.7935L68.6393 39.7907ZM40.8397 25.5914V25.5858L42.7614 26.7824L47.5656 29.7234L55.8328 34.669L59.014 36.5925C58.735 36.9168 58.5688 37.0985 58.3011 37.3529H58.2954L41.0764 26.7852C40.913 26.405 40.8228 26.0527 40.8369 25.5858L40.8397 25.5914ZM83.6379 30.0422C83.6379 30.0422 83.6549 30.0422 83.6661 30.0422C83.6661 30.0422 83.6718 30.0422 83.6746 30.0422L83.9366 30.0701L84.2099 30.1009C84.379 30.1176 84.2353 29.0665 84.3565 28.5884C84.7876 26.8802 86.7093 26.2652 88.2308 25.9213C89.465 25.6417 90.6512 25.3538 91.8178 24.8673C92.9026 24.4116 93.7 23.6624 94.3509 22.6867C94.3509 22.6867 94.3509 22.6811 94.3537 22.6811C94.5481 23.1843 94.8947 23.4527 95.3286 23.4835C95.3765 23.4863 95.4273 23.4891 95.478 23.4835C95.5484 23.4807 95.6217 23.4695 95.6949 23.4555H95.7006C95.8499 23.654 95.7795 23.9196 95.6893 24.1544C94.8806 26.24 93.8747 28.5772 92.4095 30.2854C91.8037 30.9955 91.0683 31.4037 90.1469 31.5938C89.5608 31.714 88.9747 31.8062 88.3858 31.8426C88.0392 31.8649 87.6926 31.8677 87.3489 31.8482C86.8896 31.823 86.4303 31.7559 85.9738 31.6357C84.1113 31.1493 83.3477 30.0841 83.6379 30.0422ZM26.475 22.7147L29.0758 18.6246C29.2871 18.2919 29.6168 18.1269 29.9802 18.1102C30.0197 18.1102 30.062 18.1102 30.1014 18.1102C30.3832 18.1185 30.679 18.2136 30.9495 18.3813C31.2341 18.5575 31.4821 19.1529 31.2144 19.4269C31.0453 19.6003 30.9045 19.7372 30.7805 19.9357L28.5207 23.5785C28.3995 23.7742 28.6277 24.0734 28.7855 24.1041C28.8024 24.1069 28.8194 24.1097 28.8335 24.1097C28.8588 24.1125 28.8842 24.1125 28.9095 24.1097C29.0758 24.1013 29.2533 24.023 29.3378 23.886L31.8399 19.8351C31.9639 19.6338 32.333 19.5136 32.581 19.4996C32.612 19.4996 32.6374 19.4996 32.6627 19.4996C32.6796 19.4996 32.6937 19.4996 32.7078 19.5052C32.936 19.5415 33.2432 19.7317 33.3925 19.9134C33.725 20.3076 33.7363 20.6766 33.5052 21.0456L31.0397 24.9792C30.8763 25.2364 30.7805 25.5215 31.1158 25.6977C31.1552 25.72 31.2003 25.7312 31.2482 25.7368C31.2708 25.7368 31.2961 25.7396 31.3215 25.7368C31.4736 25.7284 31.6399 25.6473 31.7385 25.488L34.1167 21.6495C34.3083 21.3392 34.5675 21.1547 34.8718 21.1323C34.9113 21.1295 34.9507 21.1295 34.9901 21.1323C35.1423 21.1407 35.3057 21.191 35.4748 21.2861C35.9003 21.5265 36.4018 22.3009 35.982 22.7678C35.734 23.0445 35.4213 23.2822 35.1902 23.6512L33.2939 26.7097C33.308 26.8383 33.415 27.0256 33.4968 27.1011C33.5362 27.1374 33.632 27.157 33.7278 27.1626C33.7588 27.1626 33.7926 27.1626 33.8236 27.1626C33.8884 27.1598 33.9448 27.1458 33.9786 27.1235L35.8157 24.1992C36.0299 23.8609 36.2046 23.4304 36.5878 23.3046C36.6779 23.2738 36.7681 23.257 36.8555 23.2486C36.8696 23.2486 36.8836 23.2486 36.8977 23.2486C36.9315 23.2486 36.9654 23.2486 36.9992 23.2486C37.3288 23.2682 37.6106 23.4471 37.7909 23.7407C38.1375 24.3054 37.8867 24.8897 37.5486 25.4013L35.7566 28.1187C35.8495 28.689 35.9172 29.4159 35.2325 29.6312C35.0888 29.6759 34.9451 29.7039 34.8042 29.7123C34.7056 29.7207 34.6069 29.7179 34.5111 29.7123C33.7165 29.6424 33.0375 29.0497 32.86 28.211C32.812 27.9929 32.7134 27.9202 32.5754 27.9146C32.5556 27.9146 32.5331 27.9146 32.5106 27.9146C32.302 27.9314 32.0259 28.0544 31.7131 28.0684C31.6737 28.0684 31.6371 28.0684 31.5976 28.0684C31.3215 28.0544 31.0256 27.9426 30.7298 27.5931C30.51 27.3331 30.386 26.883 30.2479 26.5028C30.2479 26.5028 30.2451 26.5028 30.2423 26.5028C30.2169 26.5028 30.1916 26.5084 30.1662 26.5084C30.0225 26.5196 29.8844 26.5196 29.752 26.5084C28.7714 26.4385 28.1206 25.857 28.0191 24.7639C27.929 24.6856 27.7909 24.666 27.6303 24.6605C27.526 24.6549 27.4105 24.6577 27.2922 24.6493C26.9484 24.6297 26.5736 24.5458 26.32 24.0873C26.0524 23.6009 26.2017 23.1396 26.4694 22.7202L26.475 22.7147ZM31.6934 15.6807C31.6934 15.6807 31.6934 15.6807 31.6991 15.6779C32.8628 17.2407 34.4773 18.2164 36.3708 18.6162C37.2781 18.8063 36.6357 19.9497 38.7208 21.3951C39.0505 21.6243 38.9039 21.7893 38.5433 21.8005C38.4982 21.8005 38.4531 21.8005 38.4024 21.8005C37.6754 21.7501 36.3765 21.1714 36.0017 19.5527C35.6692 19.3598 35.4128 19.3095 35.1789 19.2983C34.9958 19.2899 34.8267 19.3039 34.652 19.2927C34.3984 19.276 34.1251 19.2033 33.756 18.9293C32.7782 18.2024 31.978 17.3078 31.5751 16.142C31.5215 15.9854 31.5328 15.8205 31.6962 15.6863L31.6934 15.6807ZM82.8349 20.6766C82.8743 20.3271 82.5982 20.2572 82.0938 19.7149C81.9783 19.5919 82.0713 19.1725 82.2404 19.1725H82.2488C83.1449 19.2424 83.4435 19.6869 84.379 19.7428C84.41 19.7428 84.441 19.7456 84.472 19.7484H84.4776C84.3452 19.4241 84.1874 19.1725 83.9394 18.988L82.5278 17.9424C82.4686 17.9005 82.3672 17.7523 82.37 17.6824C82.3728 17.6125 82.5193 17.4755 82.5334 17.4028L82.6968 16.4691C82.7701 16.4048 82.8434 16.374 82.9166 16.3684C82.9335 16.3684 82.9532 16.3684 82.9702 16.3684C83.2829 16.388 83.576 16.8269 83.9113 16.8549C83.9254 16.8549 83.9423 16.8549 83.9592 16.8549C84.0634 16.8521 84.1705 16.8046 84.286 16.6927C84.4044 16.5753 84.3057 16.1895 84.1564 16.0917C83.7225 15.8121 83.3026 15.6388 82.8321 15.4626L81.7163 15.0489C81.643 15.0209 81.5247 14.9566 81.5106 14.8951C81.4965 14.8336 81.5585 14.6771 81.6177 14.6183L83.4858 12.6418C83.683 12.4321 83.9028 12.2085 84.0916 12.0239C84.6608 12.2364 85.1144 12.3622 85.6864 12.4824C86.5008 14.7777 88.6957 13.8831 90.0595 14.8588C90.0595 14.8588 90.0623 14.8588 90.0652 14.8616C90.3244 14.3583 89.5805 14.09 89.4481 13.6734C90.8907 13.7209 92.17 13.7433 93.4999 13.6538C93.5929 13.6482 93.6887 13.6398 93.7845 13.6343H93.7902C93.9339 14.4143 94.148 17.0087 94.7961 17.3106C94.9539 17.3833 95.106 17.4224 95.2554 17.4308C95.3005 17.4308 95.3455 17.4308 95.3906 17.4308C95.7823 17.4056 96.1345 17.1848 96.405 16.8801C96.7826 16.4579 97.3377 16.1224 97.9238 16.0805C97.9717 16.0749 98.0196 16.0749 98.0675 16.0749C98.0928 16.0749 98.1154 16.0749 98.1407 16.0777C98.8874 16.1308 99.3918 16.8381 99.4143 17.5398C99.4312 18.0654 99.3044 18.5351 99.0086 18.9656C98.4309 19.8071 96.7798 21.5209 95.4188 21.6215C95.3512 21.6271 95.2836 21.6271 95.2188 21.6243C94.8299 21.6048 94.4692 21.437 94.1762 21.054C94.1762 21.054 94.1762 21.0568 94.1734 21.0596C93.4802 22.1835 92.7082 23.1144 91.5783 23.6848C90.7301 24.1097 89.6538 24.2886 88.5661 24.3501C87.6673 24.4033 86.76 24.3753 85.971 24.3417C85.5371 24.325 85.0947 24.3194 84.6551 24.2942C83.683 24.2383 82.7306 24.0845 81.8994 23.4835C81.4627 23.1676 81.3331 22.7426 81.3218 22.2534C81.2936 20.7018 82.7701 21.2218 82.8293 20.6822L82.8349 20.6766ZM15.083 10.1592L19.0024 12.5859L27.805 17.9564C27.9487 18.0459 27.7233 18.4512 27.5739 18.5043C27.5401 18.5155 27.5007 18.5239 27.4584 18.5239C27.433 18.5239 27.4049 18.5239 27.3767 18.5239C27.2555 18.5127 27.1259 18.4708 27.0132 18.4009L22.209 15.4654L16.2721 11.7807L14.6603 10.7435C14.7871 10.5143 14.9139 10.3298 15.0802 10.162L15.083 10.1592ZM86.3063 7.65148C86.3514 7.65148 86.3937 7.65148 86.4331 7.65428C86.7149 7.66826 86.867 7.72417 87.1432 7.85277C89.5495 8.96825 91.815 10.2515 93.948 11.8981C93.1534 12.1805 92.3672 12.1917 91.567 12.2672C91.4627 12.2783 91.3585 12.2839 91.2542 12.2923C90.4174 12.3482 89.6059 12.3147 88.7239 12.2616C86.3965 12.1246 84.3227 11.4928 82.3953 10.2738C81.4148 9.6532 80.0904 8.77256 79.6481 7.58439L86.3035 7.65428L86.3063 7.65148ZM3.82625 5.19966C3.92205 5.19128 4.01503 5.19128 4.10519 5.19966C4.38979 5.21364 4.65464 5.27794 4.92233 5.32547L6.63832 5.64138L7.48645 5.77278L8.5769 5.93493L9.64481 6.09149L11.3016 6.23966L9.79134 8.42589H9.7857L3.66 5.22483C3.71635 5.21644 3.77271 5.20805 3.82625 5.20246V5.19966ZM90.9358 4.44483C91.1922 4.34138 91.4599 4.28827 91.7332 4.2687C91.9136 4.25472 92.0967 4.25751 92.2799 4.2687C92.3109 4.2687 92.3419 4.27429 92.3729 4.27429C92.7476 4.29945 93.1196 4.35537 93.4718 4.39451C95.4244 4.97601 97.2503 5.65816 98.986 6.6674C99.42 6.91901 99.6397 7.2517 99.7834 7.72697C100.434 9.86288 100.834 12.0267 100.702 14.2801C100.679 14.6547 100.547 15.074 100.347 15.4179C100.347 15.4179 100.344 15.4151 100.341 15.4123C97.8815 13.173 95.3737 11.3362 92.6434 9.66997C90.8907 8.62718 89.1776 7.75213 87.2249 6.94697C88.3633 5.94332 89.5523 5.01515 90.9358 4.44483ZM2.09899 3.69558C2.16661 3.05817 2.79496 2.39838 3.57547 2.35645C3.63464 2.35645 3.69381 2.35645 3.75298 2.35645C3.86288 2.36204 3.97559 2.38441 4.09111 2.42075C3.84879 2.73666 3.57827 2.98268 3.40639 3.25946L2.89076 4.10096L2.73016 4.71042H2.72451C2.20887 4.56504 2.04827 4.16246 2.09899 3.69558Z" fill="white"/>
<path d="M46.5373 33.3466L43.7591 31.5938L47.3404 35.9103C47.4954 35.3428 47.6616 34.778 47.8391 34.2161L46.5373 33.3466Z" fill="white"/>
<path d="M1.56644 3.19212C1.85103 1.90051 3.09646 1.28266 4.43769 1.58739L12.1836 5.87598C12.0906 7.34371 13.4995 8.43963 14.7364 8.29984C15.3281 8.23275 15.6973 8.48436 16.1481 8.77232L19.6928 11.0424L21.6736 12.2669L25.0859 14.3357L28.2192 16.1809C28.6869 16.4549 29.1096 16.726 29.5689 17.0364C29.7605 17.165 30.1521 17.4362 30.3606 17.3663C31.0115 17.1454 29.9352 16.5276 30.2705 15.3282C30.4226 14.7858 30.8988 14.5258 31.3666 14.5175C31.84 14.5063 32.3049 14.702 32.519 15.1689C32.6993 15.563 33.0262 15.7811 33.3531 16.0495C34.0462 16.6142 34.7732 17.0196 35.641 17.2964L36.3934 17.5368C37.2218 18.3671 38.2615 18.4342 38.887 19.1863C39.3576 19.751 39.8817 20.2598 40.2029 20.914C40.6622 21.8505 40.7242 22.8794 40.7411 23.9166C40.8735 24.0312 41.0539 24.1933 41.1948 24.2828L43.0742 25.457L51.2117 30.4808L51.3103 30.5423L51.8175 30.9449L54.0041 32.2114L58.3095 34.8086C59.214 35.3537 59.5916 34.5933 60.3975 34.1236L64.4944 31.7389L66.4894 30.766C67.0811 30.478 67.6672 30.2963 68.2392 29.9832L69.2254 29.4464L70.2961 28.8649C70.9639 28.5015 71.9923 28.3953 72.4235 28.1996C72.7813 28.0346 73.1251 28.0178 73.5224 27.934L75.1059 27.5957C77.5601 27.0729 80.0595 27.2462 82.6123 27.3301L82.973 25.9574C83.0152 25.7925 83.0293 25.3563 82.8687 25.2725C82.5475 25.1019 82.1558 25.0348 81.8093 24.9454C80.561 24.6239 79.8707 23.4245 80.0566 22.1525C80.144 21.5598 80.5497 21.009 80.8202 20.4974C80.6878 19.8321 80.6258 19.094 81.2626 18.6187C80.6455 17.4334 81.5303 17.0643 81.5444 16.1054C81.0682 15.9405 80.7301 15.7336 80.53 15.4205C79.8059 14.2882 80.9132 13.5166 81.8318 12.7282L80.592 12.1411C80.4427 12.0712 80.2426 11.9119 80.0848 11.8084C78.8478 10.9865 77.8645 9.84306 77.439 8.42006C77.4615 8.18242 77.4869 7.90006 77.4953 7.64845C77.5179 6.84609 78.2618 6.30931 79.0366 6.38479L79.8059 6.45749L83.1477 6.51899C84.024 6.53576 84.9031 6.5749 85.7681 6.54415C86.4754 5.51534 88.476 4.22932 89.6171 3.88545C90.2539 3.69255 90.9217 3.54158 91.5783 3.43814C92.835 3.23964 94.7454 3.39062 95.9683 3.70653C97.6617 4.13986 99.203 4.84158 100.536 5.95985C101.987 7.17598 102.745 8.75274 103.351 10.4553C103.517 10.9222 103.754 11.3751 103.787 11.9035C103.937 14.1205 103.869 16.2871 102.767 18.286C102.195 19.3232 101.375 20.1592 100.482 20.9559L98.8311 22.4293C97.6645 23.4693 96.6811 24.8224 96.6501 26.4411L96.6051 28.7196L97.7829 28.8118C98.3549 29.3486 98.7634 29.9608 99.2199 30.5843L99.7496 31.3112L100.818 32.7761C101.096 33.1591 101.432 33.5198 101.745 33.8664L103.106 35.3845L106.101 38.689L107.022 39.824C107.642 40.59 108.149 41.3784 108.659 42.2283C109.454 43.5591 110.026 44.9597 110.234 46.5141L110.392 47.6967C110.561 48.952 110.336 51.4205 110.023 52.6479C109.381 55.1528 108.4 57.4564 107.171 59.7153C106.126 61.636 105.002 63.3917 103.641 65.1026C102.996 65.9134 102.497 66.7884 101.649 67.4594C100.463 68.3988 99.6905 69.7183 98.4056 70.5738L97.7462 71.0127L94.0719 74.0768C93.793 74.3117 93.5535 74.5521 93.2802 74.8428L91.8037 74.9183C91.2937 74.9435 91.0316 75.0777 90.6822 75.4159L88.7465 77.3002L80.3243 85.2652C80.206 85.3798 80.0933 85.4692 79.9946 85.5671C71.7134 84.0323 64.331 79.9561 58.7012 74.1886C58.8759 70.9764 59.2225 67.9906 60.0509 64.8259L59.4394 63.839C59.1577 64.3674 59.0224 64.9349 58.8618 65.522C58.1743 67.9934 57.6248 70.202 57.3656 72.7489C56.5062 71.7788 55.6975 70.7695 54.9367 69.7183L55.01 69.3661L55.1931 68.4826L55.6919 66.6459C56.3568 64.1941 56.8753 62.9584 58.0869 60.7162C58.6561 59.6622 59.1098 59.665 59.0957 58.6586C59.0816 57.476 59.0562 56.1872 58.2335 55.2059C57.8052 53.8388 58.7857 52.9945 58.5265 52.4074C58.3687 52.0468 57.7432 51.8287 57.56 51.8846L55.6214 52.4717L51.4259 53.4334C50.3326 53.6851 49.2393 53.7354 48.1348 53.9171C48.101 53.9227 48.0671 53.9283 48.0333 53.9339L46.6498 54.1687C45.8919 54.2973 45.1283 54.4203 44.3759 54.2023C43.7927 54.0317 43.2404 53.7438 42.9136 53.2042C41.933 51.5799 40.5354 48.8597 39.8394 47.1068L39.3125 45.7788C39.0984 45.2449 38.9124 44.7361 38.749 44.1713L36.4892 36.3546L36.0947 34.789L35.7819 33.4163L35.5086 31.9346L35.3508 30.9925L34.2773 30.9533C33.9109 30.9393 33.508 30.5955 33.1812 30.4137C32.6965 30.1454 32.395 29.7148 32.1753 29.22C30.0732 29.0942 30.0732 27.811 29.1406 27.5286C28.2248 27.2546 27.5429 26.62 27.2499 25.7338C26.3116 25.5856 25.4719 25.0488 25.1282 24.2325C24.8858 23.6566 24.9591 23.1561 25.2521 22.6809L26.7822 20.1871C26.9738 19.874 26.7906 19.6839 26.5455 19.5357L24.7647 18.4398L23.9109 17.8835L21.9441 16.7065L20.3578 15.6888L18.3966 14.4364L16.6778 13.3684C15.8804 12.8736 15.1168 12.3228 14.2771 11.9203C12.8936 11.2577 13.4459 10.4581 12.2766 9.70049C10.3774 8.47038 10.3549 10.0891 9.0362 9.28952L8.19651 8.7807L2.51319 5.52931C1.68196 5.05405 1.38048 4.06158 1.56926 3.19771L1.56644 3.19212ZM31.6906 15.6777C31.5244 15.8091 31.5103 15.9796 31.5666 16.1362C31.9696 17.302 32.7698 18.1938 33.7475 18.9235C34.1195 19.2002 34.3956 19.2701 34.652 19.2869C34.8295 19.2981 34.9958 19.2869 35.1789 19.2925C35.41 19.3065 35.6636 19.3568 35.9932 19.5469C36.3708 21.1712 37.6754 21.7471 38.4024 21.7946C38.4531 21.7974 38.4982 21.8002 38.5433 21.7946C38.8983 21.7807 39.0448 21.6157 38.7152 21.3893C36.63 19.9439 37.2725 18.8032 36.3652 18.6103C34.4745 18.2106 32.86 17.2377 31.6991 15.6777C31.6991 15.6777 31.6991 15.6777 31.6991 15.6749L31.6906 15.6777ZM49.5746 40.5928C49.9128 40.4754 50.2481 40.3692 50.5439 40.1819C51.3554 39.6703 52.1077 39.1838 52.8319 38.6191C53.3757 38.1941 53.8068 37.7328 54.4859 37.4729C54.6352 37.4141 54.8691 37.0367 54.6831 36.9221L49.6197 33.7602L49.0787 33.4219L47.7572 32.5413L44.4548 30.4557L42.2204 29.0746C41.8992 28.8761 41.6033 28.7279 41.2032 28.5267C41.2032 28.5267 41.2004 28.5267 41.1976 28.5239C41.1469 29.2815 41.1835 29.9552 41.2708 30.6793C41.7442 31.1937 42.1584 31.6718 42.6092 32.217L47.2585 37.8195L47.8643 38.5688L48.2052 39.0021L49.1294 40.1791C49.2196 40.2937 49.3858 40.5928 49.5352 40.6012C49.538 40.6012 49.5408 40.6012 49.5464 40.6012C49.5577 40.6012 49.569 40.6012 49.5774 40.5956L49.5746 40.5928ZM61.6203 36.8718C61.5668 36.8718 61.5133 36.8718 61.4626 36.8662C61.085 36.8438 60.7694 36.7711 60.4087 36.6286C60.4087 36.6286 60.4087 36.6286 60.4059 36.6286C60.0931 36.7516 59.7494 37.1541 59.5775 37.5092C61.7697 38.5268 63.759 39.7178 65.7342 41.0569L69.6086 43.6849L71.9585 45.284L73.1983 46.1171L72.6573 46.9894C72.5418 47.1767 72.8827 47.5401 73.0772 47.6296C73.1589 47.6687 73.2575 47.6883 73.3646 47.6911C73.3899 47.6911 73.4181 47.6911 73.4435 47.6911C73.6548 47.6827 73.8802 47.6156 74.0155 47.4954C74.3282 47.2186 74.5057 46.9055 74.393 46.4135L73.9422 46.1031C74.0267 45.7257 74.841 44.9653 74.5311 44.7668L67.9996 40.5872L63.2321 37.3498C63.001 37.1933 63.0771 36.9557 61.9951 36.8914C61.8852 36.8858 61.7584 36.8802 61.6232 36.8774L61.6203 36.8718ZM68.6336 39.7905C68.5773 40.0197 68.983 40.2406 69.2056 40.249C69.2141 40.249 69.2253 40.249 69.2338 40.249L69.7748 38.3926C70.2566 36.746 70.8371 35.1636 71.6965 33.6707L74.1084 29.4744L74.1141 29.4632C71.4739 31.6522 69.4001 36.6817 68.6308 39.7877L68.6336 39.7905ZM94.3481 22.6865V22.6809C93.6944 23.6594 92.897 24.4114 91.8121 24.8671C90.6484 25.3563 89.4593 25.6443 88.2252 25.9211C86.7487 26.2538 84.8975 26.8408 84.3959 28.4344C84.379 28.4847 84.3649 28.535 84.3508 28.5882C84.2325 29.0606 84.3734 30.0978 84.2099 30.1006H84.2043L83.9282 30.0699L83.6661 30.0419C83.6661 30.0419 83.6464 30.0419 83.6379 30.0419C83.328 30.0643 84.086 31.1434 85.9654 31.6355C86.4247 31.7557 86.8868 31.8228 87.3489 31.8479C87.6955 31.8675 88.0392 31.8619 88.3858 31.8423C88.9719 31.8032 89.558 31.7137 90.1384 31.5935C91.0598 31.4034 91.7924 30.9952 92.401 30.2851C93.0322 29.5499 93.5788 28.6972 94.0607 27.797C94.6975 26.6088 95.2216 25.3396 95.6809 24.1542C95.771 23.9194 95.8443 23.6566 95.6949 23.4581C95.6217 23.472 95.5484 23.4832 95.478 23.486C95.4273 23.486 95.3765 23.486 95.3286 23.486C94.8919 23.4581 94.5425 23.1925 94.3481 22.6893V22.6865ZM80.5357 29.754C80.4511 29.7595 80.361 29.7847 80.33 29.8183C79.186 31.1658 78.2618 32.5776 77.4221 34.1348C76.6387 35.5858 76.0527 37.0787 75.5117 38.6275L75.1651 39.62C75.1313 39.7178 75.0975 39.9107 75.1369 39.9946C75.1764 40.0784 75.3595 40.1427 75.4779 40.1959C76.8585 40.7941 78.1547 41.4204 79.4875 42.1221L83.235 44.0958C83.4238 44.1965 83.5985 44.2804 83.8211 44.2887C83.8662 44.2887 83.9113 44.2887 83.962 44.2832L86.1091 41.3952C88.9155 37.6238 92.6293 34.6436 96.5093 31.9374C96.5205 31.7026 96.343 31.4565 96.1317 31.3391C96.1317 31.3391 96.1317 31.3391 96.1289 31.3391L92.1249 33.2094C90.5808 33.9307 88.9437 34.3892 87.2672 34.4927C86.8079 34.5206 86.3458 34.5234 85.8837 34.4954C85.6582 34.4815 85.43 34.4619 85.2046 34.4367C82.6856 34.1376 80.6343 32.4238 80.6963 29.8071C80.6963 29.7735 80.6512 29.7568 80.592 29.7512C80.5751 29.7512 80.5582 29.7512 80.5385 29.7512L80.5357 29.754ZM81.6092 14.6153C81.55 14.6768 81.4909 14.8334 81.5021 14.8921C81.5162 14.9536 81.6346 15.0179 81.7078 15.0458L82.8236 15.4596C83.2942 15.6329 83.714 15.8091 84.148 16.0886C84.2973 16.1865 84.3959 16.5723 84.2776 16.6897C84.1649 16.8015 84.0606 16.8463 83.9564 16.8519C83.9423 16.8519 83.9254 16.8519 83.9084 16.8519C83.576 16.8295 83.2801 16.3934 82.9673 16.3654C82.9504 16.3654 82.9307 16.3654 82.9138 16.3654C82.8405 16.371 82.7645 16.399 82.6856 16.466L82.5221 17.3998C82.508 17.4725 82.3615 17.6095 82.3587 17.6794C82.3559 17.7493 82.4573 17.8974 82.5165 17.9394L83.9282 18.985C84.1733 19.1667 84.3311 19.4211 84.4664 19.7454C84.4354 19.7454 84.4044 19.7454 84.3734 19.7398C83.4323 19.6867 83.1364 19.2394 82.2347 19.1695C82.06 19.1583 81.9642 19.586 82.0826 19.7118C82.5869 20.257 82.8631 20.3269 82.8236 20.6736C82.7645 21.2131 81.288 20.6931 81.3162 22.2447C81.3246 22.7368 81.457 23.1589 81.891 23.4748C82.725 24.0787 83.6802 24.2325 84.6523 24.2856C85.0919 24.3108 85.5315 24.3163 85.9682 24.3331C86.76 24.3639 87.6645 24.3918 88.5633 24.3415C89.6481 24.28 90.7189 24.1011 91.567 23.6761C92.7025 23.1058 93.4746 22.1748 94.1677 21.0454C94.1677 21.0454 94.1677 21.0482 94.1706 21.051C94.4664 21.4312 94.8271 21.5989 95.2159 21.6157C95.2836 21.6185 95.3484 21.6157 95.416 21.6129C96.7769 21.5067 98.4197 19.7957 98.9973 18.957C99.2932 18.5265 99.42 18.0568 99.4031 17.5312C99.3805 16.8323 98.879 16.1278 98.1379 16.0691C98.1125 16.0691 98.09 16.0691 98.0646 16.0663C98.0167 16.0663 97.9688 16.0663 97.9209 16.0719C97.3348 16.1082 96.7741 16.4465 96.3965 16.8714C96.126 17.1734 95.7767 17.3942 95.3878 17.4222C95.3427 17.4222 95.2976 17.425 95.2526 17.4222C95.1004 17.4138 94.9426 17.3774 94.7848 17.302C94.1367 16.9972 93.9226 14.4056 93.7789 13.6256C93.6831 13.6312 93.5901 13.6396 93.4943 13.6452C92.1615 13.7347 90.8851 13.7123 89.4424 13.6648H89.434C89.5664 14.0813 90.3047 14.3497 90.0539 14.8501C90.0539 14.8501 90.0539 14.8501 90.0539 14.8529C88.6901 13.8689 86.4923 14.7691 85.6752 12.471C85.1032 12.3508 84.6523 12.225 84.086 12.0153C84.086 12.0153 84.0831 12.0153 84.0803 12.0153C83.8915 12.197 83.6718 12.4235 83.4717 12.6332L81.6036 14.6097L81.6092 14.6153ZM86.3063 7.65124L79.6509 7.58135H79.6453C80.0848 8.76952 81.412 9.65295 82.3925 10.2708C84.3198 11.4897 86.3937 12.1216 88.7211 12.2585H88.7296C89.6115 12.3117 90.423 12.3452 91.2599 12.2893C91.3613 12.2837 91.4627 12.2753 91.5642 12.2641C92.3644 12.1914 93.1477 12.1803 93.9451 11.8951C91.8093 10.2484 89.5467 8.96522 87.1375 7.84974C86.8614 7.72114 86.7121 7.66522 86.4331 7.65124C86.3937 7.65124 86.3514 7.65125 86.3063 7.64845V7.65124ZM100.341 15.4121C100.539 15.0682 100.671 14.6516 100.694 14.277C100.826 12.0237 100.426 9.85984 99.775 7.72393C99.6285 7.24866 99.4087 6.91598 98.9776 6.66436C97.2419 5.65512 95.416 4.97297 93.4633 4.39147C93.1111 4.35233 92.742 4.29921 92.37 4.27125C92.339 4.27125 92.308 4.26567 92.2771 4.26567C92.0939 4.25728 91.9108 4.25448 91.7304 4.26567C91.4543 4.28524 91.1838 4.33556 90.9274 4.4418C89.5411 5.00932 88.3548 5.93748 87.2136 6.94393C89.1663 7.74909 90.8767 8.62415 92.6321 9.66694C95.3625 11.3332 97.873 13.1727 100.336 15.4149C100.336 15.4149 100.336 15.4149 100.336 15.4093L100.341 15.4121ZM102.038 65.645C102.038 65.645 102.04 65.6394 102.043 65.6394C105.022 61.4235 107.893 54.3253 108.51 49.3825C108.828 46.8384 108.397 44.613 106.915 42.4995C105.103 39.947 102.835 37.7384 100.485 35.5382C100.485 35.5382 100.485 35.5382 100.482 35.5354C94.968 39.7821 89.3128 46.3044 87.9575 53.2154L87.6926 54.5769L87.5264 55.7706C87.4926 56.0139 87.1488 57.8758 87.4334 57.9541C88.5492 55.5833 89.9299 53.5285 91.6093 51.5911C93.2604 49.6872 94.9342 47.8085 97.2306 46.4051C97.2306 46.4051 97.2278 46.4107 97.225 46.4135C96.0697 48.2698 94.8045 49.8745 93.8155 51.7476C93.4633 52.4158 91.2739 56.6569 91.4486 56.984C91.4627 57.0063 91.4965 57.0175 91.5444 57.0203C91.6205 57.0259 91.7248 57.0119 91.7924 57.0147C91.8009 57.0147 91.8093 57.0147 91.815 57.0147C96.3148 57.708 100.482 61.3844 102.038 65.645ZM61.7246 62.7431C61.919 62.5138 62.0374 62.2343 62.1501 61.9603L63.7336 58.0911L62.9334 57.1266H62.9306C62.708 57.2999 62.6432 57.4928 62.5446 57.75L61.1695 61.404L60.837 62.4104L61.7246 62.7459V62.7431ZM60.8821 64.085C60.961 64.1745 61.1132 64.2276 61.2794 64.236C61.3217 64.2388 61.3639 64.2388 61.409 64.236C61.5612 64.2276 61.7077 64.1801 61.8035 64.099C61.9754 63.9508 61.9895 63.4532 61.8655 63.2687C61.7838 63.1457 61.6542 63.087 61.5189 63.0758C61.4823 63.073 61.4428 63.073 61.4034 63.0758C61.254 63.087 61.1075 63.1401 61.0061 63.21C60.7581 63.3805 60.6032 63.7663 60.8821 64.0822V64.085ZM59.059 54.8089C59.5268 55.4939 59.8508 56.1648 60.1523 56.9979C60.1523 56.9979 60.1523 56.9924 60.1551 56.9924C60.5299 56.3745 60.4595 55.6644 60.2481 54.9431H63.0658C63.1391 55.1025 63.2011 55.3597 63.2884 55.5023C65.1115 58.5104 68.4308 59.3659 71.8148 59.911C72.8179 60.7442 73.7252 61.6052 74.6269 62.525L77.2248 65.1781C79.4508 67.451 81.7473 69.5478 84.2494 71.5188L88.073 74.5269C88.3069 74.6276 88.7267 74.7422 89.093 74.7673C89.1635 74.7729 89.2311 74.7729 89.2959 74.7729C89.4312 74.7673 89.5495 74.745 89.6369 74.7002L90.7978 74.0908L92.6603 73.2325C93.1336 73.0145 93.5873 72.8551 94.1311 72.7768C95.8668 71.0826 97.4363 69.2459 98.9353 67.328C99.1495 67.0512 99.2791 67.0596 99.203 66.6543C98.8001 64.5351 97.7716 62.69 96.1317 61.2614C94.8496 60.1431 93.0745 59.2932 91.319 59.1898C91.0654 59.1758 90.8118 59.1758 90.5582 59.1954C90.5103 59.1954 90.4625 59.201 90.4146 59.2065L89.8059 60.213C89.7411 60.3192 89.8735 60.5541 89.9693 60.6184C90.1356 60.733 92.0826 62.4971 91.9248 62.8968C91.9248 62.8968 91.9248 62.8969 91.9248 62.9024C89.8595 61.5102 87.935 60.2381 85.7202 59.3156L77.8137 56.0223C75.4102 55.0214 74.7819 54.1491 73.2659 52.2117C72.4375 51.155 71.688 50.115 70.9216 49.0135L69.2873 46.6707C68.9492 46.1842 68.2673 46.1227 67.7489 45.9326L62.6122 44.0427H62.6065C62.1163 44.7444 61.657 45.4378 61.223 46.1619C61.1132 46.3436 61.2794 46.735 61.4287 46.8272C61.5105 46.8803 61.6401 46.9139 61.7697 46.9223C61.8007 46.9223 61.8345 46.9223 61.8683 46.9223C61.9838 46.9139 62.0909 46.8803 62.1557 46.8105L62.7925 46.1227H62.7981L64.4831 47.0257C64.6325 47.1068 64.5677 47.6072 64.3761 47.6184C63.4772 47.6687 62.6911 47.6715 61.7753 47.6743H61.7697C61.4879 48.1524 61.2738 48.5969 61.0906 49.2371H61.0963L63.945 49.2567C63.9647 49.5167 63.9506 49.8186 63.9055 50.1206L60.513 50.1457H60.5045L60.203 50.895C60.0791 51.2025 59.9973 51.4709 59.9551 51.8203H59.9635L62.8742 51.8315C62.7559 52.2397 62.646 52.4913 62.4797 52.8408L59.5662 52.8184H59.5578L58.8731 54.1715C58.7942 54.3281 58.9548 54.6635 59.0534 54.8089H59.059ZM59.5381 47.2885C59.6902 47.4199 59.8734 47.5289 60.1382 47.6995V47.6939C60.1157 47.336 60.0819 46.9391 60.0283 46.6539L59.059 45.6698L61.3837 42.9328C61.4287 42.8797 61.5725 42.7539 61.6429 42.7595C61.6485 42.7595 61.6542 42.7595 61.6598 42.7651L62.0148 42.9328L64.393 44.0092C64.4268 44.0231 64.4972 44.0343 64.5508 44.0399C64.5508 44.0399 64.5564 44.0399 64.5592 44.0399C64.5846 44.0399 64.6043 44.0455 64.6156 44.0455C64.6269 44.0455 64.6381 44.0455 64.6466 44.0455C64.6578 44.0455 64.6663 44.0455 64.6747 44.0455C65.2411 44.0008 60.9666 41.4427 60.7835 41.3589C60.7807 41.3589 60.7779 41.3589 60.7779 41.3589L59.2168 43.2683L59.2112 43.2739C59.0309 42.4771 59.307 41.7391 59.1774 40.9815C58.9717 40.5593 58.6646 40.1232 58.2137 39.8073C58.2137 39.8073 58.2081 39.8045 58.2081 39.8017L58.1264 43.4724L58.07 46.0137L59.5409 47.2885H59.5381ZM58.2926 37.3582C58.5603 37.1066 58.7265 36.9221 59.0027 36.5978L55.8215 34.6744L50.4819 31.4817L47.5515 29.7288L42.7473 26.7877L40.8313 25.594L40.8256 25.5884C40.8115 26.0581 40.8989 26.4103 41.0623 26.7905L50.1269 32.3512L58.287 37.3582H58.2926ZM38.0051 36.3546C38.4728 38.3507 38.9828 40.2797 39.676 42.2171L40.82 45.4098C41.1609 46.3603 43.5391 52.0048 44.1843 52.1502C44.3675 52.1922 44.5619 52.2145 44.762 52.2285C45.0606 52.2481 45.3762 52.2397 45.6918 52.2201C46.2638 52.181 46.8414 52.1027 47.3205 52.0552L47.822 52.0076L48.6532 51.9266L49.5915 51.7728L51.3864 51.4653C52.0937 51.3451 52.7361 51.1745 53.387 51.0236L54.3337 50.8055C54.4042 50.2603 54.4803 49.676 54.7818 49.2092C54.979 48.9044 54.9283 48.6472 54.7339 48.3705L53.4687 46.5672C51.6795 47.2074 49.9663 47.7246 48.1094 48.0433C48.0615 48.0517 48.0136 48.0601 47.9657 48.0657C47.8164 48.0881 47.6529 48.1049 47.4867 48.116C47.3204 48.1272 47.1458 48.13 46.9711 48.1216C46.8471 48.116 46.7203 48.1049 46.5991 48.0853C46.1173 48.0098 45.6805 47.8197 45.4382 47.4255L43.2263 43.8275C42.598 42.8042 42.0231 41.8006 41.4652 40.7326L39.0082 36.0247L37.45 32.7929C37.3345 32.8348 37.2246 32.9075 37.2105 32.9606L38.0023 36.3518L38.0051 36.3546ZM26.4666 22.7144C26.1989 23.1366 26.0467 23.5951 26.3172 24.0815C26.5708 24.5428 26.9512 24.6239 27.2978 24.6434C27.4161 24.649 27.5317 24.649 27.6359 24.6546C27.7937 24.6602 27.929 24.6798 28.0163 24.7581C28.1177 25.8512 28.7715 26.4355 29.7577 26.5026C29.8901 26.511 30.0282 26.511 30.1719 26.5026C30.1972 26.5026 30.2226 26.4998 30.2479 26.497C30.386 26.8772 30.5072 27.3273 30.7269 27.5873C31.0256 27.9396 31.3243 28.0514 31.6004 28.0626C31.6399 28.0626 31.6765 28.0626 31.716 28.0626C32.0287 28.0458 32.3077 27.9228 32.5134 27.9088C32.5359 27.9088 32.5556 27.9088 32.5782 27.9088C32.7106 27.9172 32.8092 27.9899 32.8543 28.2052C33.0346 29.0467 33.7165 29.6393 34.514 29.7064C34.6098 29.7148 34.7084 29.7148 34.807 29.7064C34.9479 29.6953 35.0888 29.6673 35.2296 29.6254C35.9143 29.4101 35.8467 28.6832 35.7538 28.1129L37.5458 25.3955C37.8839 24.8839 38.1347 24.2996 37.7881 23.7348C37.6078 23.4441 37.3288 23.2624 37.0048 23.2428C36.971 23.2428 36.9372 23.24 36.9034 23.2428C36.8893 23.2428 36.8752 23.2428 36.8611 23.2428C36.7709 23.2484 36.6808 23.268 36.5878 23.2987C36.2046 23.4245 36.0299 23.8551 35.8157 24.1933L33.9786 27.1176C33.9448 27.14 33.8912 27.1512 33.8321 27.1568C33.8011 27.1568 33.7673 27.1596 33.7363 27.1568C33.6376 27.1512 33.539 27.1316 33.4968 27.0953C33.415 27.0226 33.308 26.8353 33.2939 26.7039L35.1902 23.6454C35.4213 23.2764 35.734 23.0387 35.982 22.7619C36.4018 22.2951 35.9003 21.5207 35.4748 21.2802C35.3085 21.188 35.1508 21.1376 34.9986 21.1265C34.9592 21.1237 34.9197 21.1237 34.8802 21.1265C34.5759 21.146 34.3111 21.3306 34.1195 21.6437L31.7413 25.4821C31.6427 25.6415 31.4821 25.7226 31.3299 25.731C31.3046 25.731 31.282 25.731 31.2567 25.731C31.206 25.7254 31.1581 25.7142 31.1158 25.6918C30.7805 25.5157 30.8763 25.2333 31.0397 24.9733L33.5052 21.0398C33.7363 20.6708 33.725 20.3017 33.3925 19.9075C33.2403 19.7258 32.936 19.5357 32.705 19.4994C32.6937 19.4994 32.6796 19.4994 32.6655 19.4938C32.6402 19.4938 32.612 19.4938 32.5838 19.4938C32.3387 19.505 31.9611 19.6252 31.8343 19.8293L29.3322 23.8802C29.2476 24.0172 29.0729 24.0955 28.9095 24.1039C28.8842 24.1039 28.8588 24.1039 28.8335 24.1039C28.8137 24.1039 28.794 24.1039 28.7771 24.0983C28.6193 24.0675 28.3911 23.7712 28.515 23.5727L30.7748 19.9299C30.8988 19.7314 31.0397 19.5944 31.2088 19.4211C31.4793 19.1471 31.2285 18.5516 30.9439 18.3755C30.6762 18.2106 30.3832 18.1155 30.1042 18.1043C30.0648 18.1043 30.0225 18.1043 29.9831 18.1043C29.6196 18.1211 29.2843 18.286 29.073 18.6187L26.4722 22.7088L26.4666 22.7144ZM16.2664 11.7777L22.2034 15.4624L27.0076 18.3979C27.1231 18.4678 27.2583 18.5125 27.3795 18.5209C27.4077 18.5209 27.4359 18.5209 27.4612 18.5209C27.5007 18.5209 27.5345 18.5125 27.5683 18.5013C27.7176 18.451 27.943 18.0428 27.7993 17.9534L18.9968 12.5828L15.083 10.159H15.0802C14.914 10.3239 14.7843 10.5112 14.6547 10.7405L16.2664 11.7777ZM9.78288 8.42285L11.2904 6.23662L9.63074 6.08845L8.56563 5.93189L7.47517 5.76975L6.62706 5.63835L4.91106 5.32244C4.64902 5.27491 4.38416 5.21061 4.10239 5.19663C4.01221 5.19104 3.91924 5.19104 3.82343 5.19663C3.76707 5.20222 3.70791 5.20781 3.64874 5.219L9.78008 8.42006L9.78288 8.42285ZM2.72452 4.71298L2.88513 4.10351L3.40077 3.26202C3.56984 2.98524 3.84315 2.73643 4.08548 2.42331C3.97277 2.38976 3.86288 2.36739 3.75299 2.359C3.69382 2.35341 3.63464 2.35341 3.57547 2.359C2.79214 2.39535 2.16098 3.05793 2.09335 3.69814C2.04263 4.16782 2.20606 4.57039 2.72734 4.71577L2.72452 4.71298Z" fill="#00256C"/>
</g>
<path d="M150.592 37.9856L154.16 33.7091C156.329 35.3731 158.813 36.0617 161.156 36.0617C162.354 36.0617 162.868 35.7444 162.868 35.201V35.1436C162.868 34.5698 162.24 34.2525 160.098 33.8239C155.617 32.9058 151.676 31.613 151.676 27.3668V27.3095C151.676 23.492 154.643 20.5352 160.155 20.5352C164.009 20.5352 166.863 21.4532 169.176 23.2894L165.923 27.8259C164.039 26.4487 161.784 25.8446 159.927 25.8446C158.927 25.8446 158.47 26.1888 158.47 26.6783V26.7357C158.47 27.2825 159.014 27.6267 161.126 28.0284C166.235 28.9769 169.662 30.4688 169.662 34.5158V34.5732C169.662 38.7923 166.208 41.3745 160.84 41.3745C156.785 41.3745 153.133 40.2269 150.592 37.989V37.9856Z" fill="#00256C"/>
<path d="M177.313 26.5903H171.431V20.9062H189.874V26.5903H183.993V40.9996H177.313V26.5903Z" fill="#00256C"/>
<path d="M193.097 20.9062H210.14V26.4182H199.663V28.4569H209.425V33.3072H199.663V35.4877H210.281V40.9996H193.097V20.9062Z" fill="#00256C"/>
<path d="M212.336 20.9062H219.815L223.699 32.1866L227.583 20.9062H234.948L226.841 41.1414H220.446L212.339 20.9062H212.336Z" fill="#00256C"/>
<path d="M237.482 20.9062H254.526V26.4182H244.049V28.4569H253.811V33.3072H244.049V35.4877H254.667V40.9996H237.482V20.9062Z" fill="#00256C"/>
<path d="M260.263 27.5084H257.809V20.9062H264.288V28.3219L258.007 32.4465L260.263 27.5084Z" fill="#00256C"/>
<path d="M265.6 37.9856L269.169 33.7091C271.337 35.3731 273.821 36.0617 276.161 36.0617C277.36 36.0617 277.873 35.7444 277.873 35.201V35.1436C277.873 34.5698 277.245 34.2525 275.104 33.8239C270.622 32.9058 266.681 31.613 266.681 27.3668V27.3095C266.681 23.492 269.649 20.5352 275.161 20.5352C279.015 20.5352 281.868 21.4532 284.181 23.2894L280.925 27.8259C279.041 26.4487 276.786 25.8446 274.929 25.8446C273.929 25.8446 273.472 26.1888 273.472 26.6783V26.7357C273.472 27.2825 274.016 27.6267 276.128 28.0284C281.237 28.9769 284.664 30.4688 284.664 34.5158V34.5732C284.664 38.7923 281.21 41.3745 275.842 41.3745C271.787 41.3745 268.135 40.2269 265.594 37.989L265.6 37.9856Z" fill="#00256C"/>
<path d="M296.887 20.9062H305.88C311.191 20.9062 314.816 23.2892 314.816 28.0552V28.1126C314.816 32.9629 311.134 35.5485 305.739 35.5485H303.571V41.003H296.89V20.9096L296.887 20.9062ZM305.367 30.7521C307.079 30.7521 308.22 29.9758 308.22 28.5413V28.4839C308.22 27.019 307.163 26.273 305.393 26.273H303.567V30.7521H305.367Z" fill="#00256C"/>
<path d="M317.952 20.9062H327.714C331.255 20.9062 333.508 21.7973 334.907 23.2015C336.106 24.4065 336.734 25.8984 336.734 27.9674V28.0248C336.734 30.9513 335.22 32.9899 332.793 34.1679L337.445 40.9996H329.822L326.052 35.2582H324.625V40.9996H317.945V20.9062H317.952ZM327.515 30.4652C329.113 30.4652 330.084 29.7462 330.084 28.5142V28.4569C330.084 27.1641 329.083 26.5329 327.542 26.5329H324.632V30.4652H327.515Z" fill="#00256C"/>
<path d="M340.074 20.9062H357.117V26.4182H346.64V28.4569H356.402V33.3072H346.64V35.4877H357.258V40.9996H340.074V20.9062Z" fill="#00256C"/>
<path d="M360.769 20.9062H367.735L372.018 27.9674L376.302 20.9062H383.267V40.9996H376.617V31.039L372.022 38.1846H371.908L367.312 31.039V40.9996H360.776V20.9062H360.769Z" fill="#00256C"/>
<path d="M387.316 20.9062H393.996V40.9996H387.316V20.9062Z" fill="#00256C"/>
<path d="M397.88 31.9846V20.9033H404.675V31.8968C404.675 34.3945 405.961 35.4578 407.756 35.4578C409.552 35.4578 410.838 34.4823 410.838 32.0419V20.9033H417.633V31.8394C417.633 38.6981 413.665 41.3984 407.699 41.3984C401.734 41.3984 397.88 38.6441 397.88 31.9846Z" fill="#00256C"/>
<path d="M421.456 20.9062H428.422L432.705 27.9674L436.989 20.9062H443.955V40.9996H437.304V31.039L432.709 38.1846H432.595L427.999 31.039V40.9996H421.463V20.9062H421.456Z" fill="#00256C"/>
<path d="M152.25 50.6699H161.243C166.554 50.6699 170.179 53.0529 170.179 57.8189V57.8763C170.179 62.7266 166.497 65.3121 161.102 65.3121H158.933V70.7667H152.253V50.6733L152.25 50.6699ZM160.726 60.5158C162.438 60.5158 163.579 59.7394 163.579 58.3049V58.2476C163.579 56.7827 162.522 56.0367 160.753 56.0367H158.927V60.5158H160.726Z" fill="#00256C"/>
<path d="M173.315 50.6699H183.077C186.615 50.6699 188.871 51.561 190.27 52.9651C191.469 54.1701 192.097 55.662 192.097 57.7311V57.7885C192.097 60.7149 190.583 62.7536 188.156 63.9316L192.808 70.7633H185.185L181.415 65.0219H179.988V70.7633H173.308V50.6699H173.315ZM182.878 60.2289C184.476 60.2289 185.447 59.5099 185.447 58.2779V58.2205C185.447 56.9278 184.446 56.2966 182.905 56.2966H179.995V60.2289H182.878Z" fill="#00256C"/>
<path d="M195.437 50.6699H212.48V56.1818H202.003V58.2205H211.765V63.0709H202.003V65.2514H212.621V70.7633H195.437V50.6699Z" fill="#00256C"/>
<path d="M214.477 67.7493L218.046 63.4727C220.214 65.1368 222.699 65.8254 225.038 65.8254C226.237 65.8254 226.75 65.5081 226.75 64.9647V64.9073C226.75 64.3335 226.123 64.0162 223.981 63.5875C219.499 62.6694 215.558 61.3767 215.558 57.1305V57.0731C215.558 53.2556 218.526 50.2988 224.038 50.2988C227.892 50.2988 230.745 51.2169 233.058 53.0531L229.802 57.5895C227.919 56.2124 225.663 55.6082 223.806 55.6082C222.806 55.6082 222.349 55.9525 222.349 56.4419V56.4993C222.349 57.0461 222.893 57.3904 225.005 57.7921C230.114 58.7405 233.541 60.2324 233.541 64.2795V64.3368C233.541 68.556 230.087 71.1381 224.719 71.1381C220.664 71.1381 217.012 69.9905 214.471 67.7527L214.477 67.7493Z" fill="#00256C"/>
<path d="M234.858 67.7493L238.426 63.4727C240.595 65.1368 243.079 65.8254 245.418 65.8254C246.617 65.8254 247.131 65.5081 247.131 64.9647V64.9073C247.131 64.3335 246.503 64.0162 244.361 63.5875C239.88 62.6694 235.938 61.3767 235.938 57.1305V57.0731C235.938 53.2556 238.906 50.2988 244.418 50.2988C248.272 50.2988 251.125 51.2169 253.438 53.0531L250.182 57.5895C248.299 56.2124 246.043 55.6082 244.186 55.6082C243.186 55.6082 242.73 55.9525 242.73 56.4419V56.4993C242.73 57.0461 243.273 57.3904 245.385 57.7921C250.494 58.7405 253.922 60.2324 253.922 64.2795V64.3368C253.922 68.556 250.467 71.1381 245.1 71.1381C241.044 71.1381 237.392 69.9905 234.851 67.7527L234.858 67.7493Z" fill="#00256C"/>
<path d="M257.01 61.7482V50.667H263.804V61.6605C263.804 64.1582 265.09 65.2214 266.886 65.2214C268.682 65.2214 269.968 64.246 269.968 61.8056V50.667H276.762V61.6031C276.762 68.4618 272.794 71.162 266.829 71.162C260.864 71.162 257.01 68.4078 257.01 61.7482Z" fill="#00256C"/>
<path d="M280.585 50.6699H290.347C293.889 50.6699 296.141 51.561 297.541 52.9651C298.74 54.1701 299.367 55.662 299.367 57.7311V57.7885C299.367 60.7149 297.853 62.7536 295.426 63.9316L300.079 70.7633H292.455L288.686 65.0219H287.259V70.7633H280.579V50.6699H280.585ZM290.149 60.2289C291.747 60.2289 292.717 59.5099 292.717 58.2779V58.2205C292.717 56.9278 291.717 56.2966 290.176 56.2966H287.266V60.2289H290.149Z" fill="#00256C"/>
<path d="M302.708 50.6699H319.751V56.1818H309.274V58.2205H319.036V63.0709H309.274V65.2514H319.892V70.7633H302.708V50.6699Z" fill="#00256C"/>
<path d="M331.225 50.6707H338.218L341.044 60.314L344.27 50.6133H350.037L353.263 60.314L356.09 50.6707H362.972L356.436 70.9058H350.611L347.1 60.9182L343.589 70.9058H337.764L331.228 50.6707H331.225Z" fill="#00256C"/>
<path d="M370.219 50.5254H376.842L385.265 70.7605H378.014L376.957 68.0636H369.964L368.937 70.7605H361.8L370.223 50.5254H370.219ZM375.302 63.301L373.475 58.4203L371.649 63.301H375.305H375.302Z" fill="#00256C"/>
<path d="M385.859 67.7493L389.427 63.4727C391.596 65.1368 394.08 65.8254 396.42 65.8254C397.618 65.8254 398.132 65.5081 398.132 64.9647V64.9073C398.132 64.3335 397.504 64.0162 395.362 63.5875C390.881 62.6694 386.94 61.3767 386.94 57.1305V57.0731C386.94 53.2556 389.907 50.2988 395.42 50.2988C399.273 50.2988 402.127 51.2169 404.44 53.0531L401.183 57.5895C399.3 56.2124 397.044 55.6082 395.188 55.6082C394.188 55.6082 393.731 55.9525 393.731 56.4419V56.4993C393.731 57.0461 394.275 57.3904 396.386 57.7921C401.496 58.7405 404.923 60.2324 404.923 64.2795V64.3368C404.923 68.556 401.469 71.1381 396.101 71.1381C392.046 71.1381 388.393 69.9905 385.852 67.7527L385.859 67.7493Z" fill="#00256C"/>
<path d="M408.183 50.6699H414.863V57.7615H420.973V50.6699H427.653V70.7633H420.973V63.5603H414.863V70.7633H408.183V50.6699Z" fill="#00256C"/>
<path d="M431.705 50.6699H438.385V70.7633H431.705V50.6699Z" fill="#00256C"/>
<path d="M442.437 50.6699H448.688L455.798 59.5403V50.6699H462.421V70.7633H456.482L449.06 61.4912V70.7633H442.437V50.6699Z" fill="#00256C"/>
<path d="M465.959 60.7727V60.7153C465.959 54.7173 470.669 50.2383 476.98 50.2383C480.404 50.2383 483.173 51.3859 485.345 53.2795L481.606 57.8159C480.293 56.6953 478.836 56.0641 477.181 56.0641C474.583 56.0641 472.7 58.0724 472.7 60.7997V60.8571C472.7 63.6991 474.67 65.6501 477.467 65.6501C478.608 65.6501 479.236 65.4779 479.749 65.191V63.1827H476.322V58.8758H486V68.1748C483.831 69.9536 480.803 71.189 477.178 71.189C470.954 71.189 465.959 66.9968 465.959 60.7693V60.7727Z" fill="#00256C"/>
</svg>
