<svg width="355" height="64" viewBox="0 0 355 64" fill="none" xmlns="http://www.w3.org/2000/svg">
<g opacity="0.9">
<path d="M0.0552673 2.09725C0.33107 0.843393 1.41574 0 2.75357 0C2.99644 0 3.24343 0.0285904 3.48836 0.0837276C3.59126 0.106191 3.69006 0.144989 3.78268 0.196042L9.44068 3.32865C9.81528 3.53695 10.0355 3.93925 10.0088 4.36197C9.99846 4.50287 10.052 4.63356 10.1631 4.75201C10.3031 4.90108 10.4863 4.96643 10.6036 4.96643C10.6139 4.96643 10.6262 4.96643 10.6344 4.96643C10.725 4.95622 10.8135 4.95009 10.902 4.95009C11.5709 4.95009 12.0299 5.24416 12.3654 5.46062L14.9793 7.13516L16.4159 8.02144L18.8981 9.52648L21.0695 10.8049C21.3289 10.037 22.0472 9.51831 22.889 9.49993C22.9055 9.49993 22.9219 9.49993 22.9384 9.49993C23.7452 9.49993 24.4429 9.9247 24.764 10.6149C24.7949 10.6497 24.8896 10.7252 24.9596 10.7824C24.9966 10.811 25.0316 10.8416 25.0707 10.8702C25.4803 11.2031 25.894 11.4297 26.3756 11.5829L26.9251 11.7585C27.096 11.8137 27.2503 11.9076 27.3759 12.0342C27.5426 12.2017 27.7567 12.3058 28.0304 12.4385C28.4091 12.6223 28.8804 12.8511 29.2633 13.3105C29.3374 13.3983 29.4156 13.4882 29.4979 13.5821C29.7922 13.917 30.1256 14.2969 30.3685 14.7911C30.7164 15.4976 30.8213 16.2144 30.8584 16.9067L32.0562 17.6541L36.8663 20.6234C40.6163 13.2329 47.3611 7.59668 55.5218 5.28296C55.6824 4.29253 56.5592 3.55125 57.6315 3.55125C57.7015 3.55125 57.7715 3.55533 57.8414 3.56146L58.3622 3.61046L60.762 3.65539C60.9226 3.65948 61.0811 3.66356 61.2416 3.66561C61.5483 3.67377 61.8385 3.68194 62.1307 3.68194C62.9293 2.85284 64.2589 2.0462 65.144 1.77868C65.6606 1.62144 66.1936 1.50096 66.7267 1.41723C67.0581 1.36414 67.4389 1.33963 67.8587 1.33963C68.7191 1.33963 69.6638 1.4499 70.3842 1.63369C71.8784 2.01557 73.1133 2.62821 74.161 3.50632C75.3321 4.48858 75.9598 5.71589 76.3941 6.84722C86.7839 11.5747 94 21.9855 94 34.0687C94 50.5996 80.4941 64 63.8329 64C62.0896 64 60.3833 63.853 58.7224 63.5711H58.7203C52.1093 62.45 46.229 59.1949 41.8327 54.547C41.7072 54.4163 41.5857 54.2836 41.4643 54.1509L39.0418 51.1265C36.858 48.0082 35.2568 44.459 34.3944 40.6341L34.2688 40.6565C33.8592 40.726 33.4888 40.7832 33.0792 40.7832C32.7313 40.7832 32.4123 40.7403 32.1056 40.6504C31.3235 40.4237 30.7472 40.0112 30.3973 39.4292C29.6893 38.2571 28.6273 36.2108 28.0716 34.814L27.6867 33.8461C27.5467 33.4948 27.3841 33.066 27.24 32.5697L25.5894 26.86C25.5853 26.8477 25.5832 26.8355 25.5791 26.8232L25.2909 25.6796C25.2909 25.6796 25.2868 25.6633 25.2847 25.6551L25.0563 24.6525C25.0522 24.6382 25.0501 24.6239 25.0481 24.6096L24.8813 23.707C24.4347 23.6559 24.0807 23.4272 23.8399 23.2699C23.7864 23.2352 23.7308 23.2005 23.6999 23.1821C23.3459 22.9861 23.0495 22.7145 22.8067 22.3632C21.827 22.1509 21.3536 21.6301 21.051 21.2973C21.0078 21.2482 20.9502 21.187 20.9152 21.1523C20.1372 20.9052 19.5094 20.4048 19.1184 19.7371C18.2951 19.4512 17.6488 18.8773 17.3318 18.1299C17.0272 17.407 17.0849 16.6698 17.4986 15.9959L18.2086 14.8421L17.5068 14.4112C17.5068 14.4112 17.4903 14.401 17.4842 14.3969L16.877 14.0028L15.4589 13.1512C15.4589 13.1512 15.4383 13.139 15.4301 13.1329L14.2733 12.3916L12.847 11.4808L11.5977 10.7027C11.4248 10.5945 11.256 10.4863 11.0914 10.3801C10.6982 10.1248 10.3278 9.88385 9.95111 9.70415C9.05373 9.27326 8.77588 8.68717 8.61122 8.33593C8.51448 8.12968 8.49802 8.09904 8.36629 8.01327C8.18723 7.89687 8.08638 7.85808 8.04521 7.84582C8.01846 7.85603 7.98141 7.87032 7.95055 7.88054C7.76736 7.95201 7.4895 8.06024 7.12314 8.06024C6.75472 8.06024 6.39659 7.95201 6.02818 7.72942L5.42718 7.36592L1.28813 4.99706C0.302254 4.43344 -0.189659 3.26943 0.0676193 2.10338L0.0552673 2.09725Z" fill="#FAD25A"/>
<path d="M63.8246 62.9953C47.7207 62.9953 34.666 50.0426 34.666 34.0646C34.666 18.0866 47.7207 5.13391 63.8246 5.13391C79.9284 5.13391 92.9832 18.0866 92.9832 34.0646C92.9832 50.0426 79.9284 62.9953 63.8246 62.9953Z" fill="#EFAF20"/>
<path d="M34.6661 34.0645C34.6661 34.428 34.6723 34.7874 34.6867 35.1468C34.7217 36.1066 34.804 37.0542 34.9337 37.9874C34.9975 38.4551 35.0716 38.9186 35.158 39.3801C35.9525 43.6257 37.6814 47.5466 40.1265 50.9242C40.4805 51.4143 40.851 51.8942 41.2359 52.3619C41.3964 52.5579 41.5611 52.7499 41.7278 52.9419C41.7854 53.0072 41.8431 53.0726 41.9007 53.1379C42.2177 53.4973 42.5429 53.8485 42.8783 54.1896C42.9133 54.2243 42.9483 54.2611 42.9833 54.2958C43.0183 54.3305 43.0533 54.3672 43.0883 54.404C47.1738 58.5046 52.484 61.4003 58.4322 62.5031C60.1796 62.8277 61.9826 62.9972 63.8268 62.9972C79.9302 62.9972 92.9854 50.0441 92.9854 34.0666C92.9854 31.2505 92.5799 28.5304 91.8245 25.9573L85.7549 22.2325L78.8414 26.5556L72.8664 22.8717L68.7109 20.3088L68.7068 20.3047L61.6492 20.7724L50.5699 21.5075L50.0409 21.5422L44.6957 18.1584L37.4138 22.2611L37.1298 22.4203C37.0454 22.6103 36.9631 22.8022 36.8828 22.9962C36.7943 23.2066 36.7078 23.421 36.6255 23.6334C36.4938 23.9724 36.3662 24.3154 36.2489 24.6606C35.8187 25.9001 35.4709 27.1785 35.2136 28.4895C34.8575 30.2948 34.6723 32.1592 34.6723 34.0666L34.6661 34.0645Z" fill="#1874CA"/>
<path d="M43.0884 54.4C43.0537 54.3653 43.0189 54.3285 42.9842 54.2938C43.0189 54.3285 43.0537 54.3653 43.0884 54.4021V54.4Z" fill="white"/>
<path d="M42.9914 47.857C42.4892 49.6623 42.0879 51.2755 41.8985 53.1359C42.2155 53.4953 42.5407 53.8466 42.8762 54.1876C43.0038 51.8412 43.2569 49.6602 43.8621 47.3485L43.4154 46.6277C43.2096 47.0136 43.1108 47.4282 42.9935 47.857H42.9914Z" fill="white"/>
<path d="M87.7019 47.8489C87.4199 48.3288 87.1235 48.7985 86.8148 49.2579H40.8345C40.5258 48.7985 40.2294 48.3267 39.9474 47.8489H87.7019Z" fill="white"/>
<path d="M84.9254 51.7472H42.7219C42.3329 51.2898 41.9583 50.8201 41.5981 50.3381H86.0471C85.6869 50.8201 85.3144 51.2898 84.9233 51.7472H84.9254Z" fill="white"/>
<path d="M89.0664 28.412H90.4907V29.8252H89.0664V28.412Z" fill="white"/>
<path d="M87.0618 28.412H88.4861V29.8251H87.0618V28.412Z" fill="white"/>
<path d="M89.0664 30.4071H90.4907V31.8202H89.0664V30.4071Z" fill="white"/>
<path d="M87.0618 30.4071H88.4861V31.8202H87.0618V30.4071Z" fill="white"/>
<path d="M89.0664 32.3963H90.4907V33.8094H89.0664V32.3963Z" fill="white"/>
<path d="M87.0618 32.3962H88.4861V33.8094H87.0618V32.3962Z" fill="white"/>
<path d="M83.501 28.412H84.9253V29.8251H83.501V28.412Z" fill="white"/>
<path d="M81.4964 28.412H82.9207V29.8251H81.4964V28.412Z" fill="white"/>
<path d="M83.501 30.4071H84.9253V31.8202H83.501V30.4071Z" fill="white"/>
<path d="M81.4964 30.4071H82.9207V31.8202H81.4964V30.4071Z" fill="white"/>
<path d="M83.501 32.3962H84.9253V33.8094H83.501V32.3962Z" fill="white"/>
<path d="M81.4964 32.3962H82.9207V33.8094H81.4964V32.3962Z" fill="white"/>
<path d="M89.0664 36.1883H90.4907V37.6015H89.0664V36.1883Z" fill="white"/>
<path d="M87.0618 36.1884H88.4861V37.6015H87.0618V36.1884Z" fill="white"/>
<path d="M89.0664 38.1835H90.4907V39.5966H89.0664V38.1835Z" fill="white"/>
<path d="M87.0618 38.1835H88.4861V39.5966H87.0618V38.1835Z" fill="white"/>
<path d="M89.0664 40.1725H90.4907V41.5857H89.0664V40.1725Z" fill="white"/>
<path d="M87.0618 40.1726H88.4861V41.5858H87.0618V40.1726Z" fill="white"/>
<path d="M83.501 36.1884H84.9253V37.6015H83.501V36.1884Z" fill="white"/>
<path d="M81.4964 36.1884H82.9207V37.6015H81.4964V36.1884Z" fill="white"/>
<path d="M83.501 38.1835H84.9253V39.5966H83.501V38.1835Z" fill="white"/>
<path d="M81.4964 38.1835H82.9207V39.5966H81.4964V38.1835Z" fill="white"/>
<path d="M83.501 40.1726H84.9253V41.5858H83.501V40.1726Z" fill="white"/>
<path d="M81.4964 40.1726H82.9207V41.5858H81.4964V40.1726Z" fill="white"/>
<path d="M38.7845 28.412H40.2087V29.8251H38.7845V28.412Z" fill="white"/>
<path d="M36.7798 28.412H38.2041V29.8251H36.7798V28.412Z" fill="white"/>
<path d="M38.7845 30.4071H40.2087V31.8202H38.7845V30.4071Z" fill="white"/>
<path d="M36.7798 30.4071H38.2041V31.8202H36.7798V30.4071Z" fill="white"/>
<path d="M38.7845 32.3962H40.2087V33.8094H38.7845V32.3962Z" fill="white"/>
<path d="M36.7798 32.3962H38.2041V33.8094H36.7798V32.3962Z" fill="white"/>
<path d="M44.3499 36.1884H45.7742V37.6015H44.3499V36.1884Z" fill="white"/>
<path d="M42.3453 36.1884H43.7695V37.6015H42.3453V36.1884Z" fill="white"/>
<path d="M44.3499 38.1835H45.7742V39.5966H44.3499V38.1835Z" fill="white"/>
<path d="M42.3453 38.1835H43.7695V39.5966H42.3453V38.1835Z" fill="white"/>
<path d="M44.3499 40.1726H45.7742V41.5858H44.3499V40.1726Z" fill="white"/>
<path d="M42.3453 40.1726H43.7695V41.5858H42.3453V40.1726Z" fill="white"/>
<path d="M38.7845 36.1884H40.2087V37.6015H38.7845V36.1884Z" fill="white"/>
<path d="M36.7798 36.1884H38.2041V37.6015H36.7798V36.1884Z" fill="white"/>
<path d="M38.7845 38.1835H40.2087V39.5966H38.7845V38.1835Z" fill="white"/>
<path d="M36.7798 38.1835H38.2041V39.5966H36.7798V38.1835Z" fill="white"/>
<path d="M38.7845 40.1726H40.2087V41.5858H38.7845V40.1726Z" fill="white"/>
<path d="M36.7798 40.1726H38.2041V41.5858H36.7798V40.1726Z" fill="white"/>
<path d="M44.5659 46.1743C44.638 46.1253 44.7429 46.0844 44.8499 46.0763C44.8788 46.0742 44.9055 46.0742 44.9343 46.0763C45.0352 46.0844 45.1319 46.1253 45.1937 46.2172C45.2842 46.3519 45.2739 46.7154 45.1484 46.8237C45.0764 46.8849 44.9673 46.9176 44.8561 46.9237C44.8253 46.9258 44.7923 46.9258 44.7614 46.9237C44.6441 46.9156 44.533 46.8768 44.4774 46.8135C44.2737 46.5807 44.3869 46.3009 44.568 46.1763L44.5659 46.1743ZM44.6853 44.853L45.6897 42.184C45.7597 41.9981 45.8091 41.8572 45.9676 41.7286C45.9676 41.7286 45.9676 41.7286 45.9717 41.7265L46.5583 42.4331L45.4015 45.2594C45.3192 45.4616 45.2328 45.6658 45.0887 45.8332H45.0846L44.4404 45.5882L44.6832 44.853H44.6853ZM43.012 39.5701L43.5121 38.5817L45.6403 38.598H45.6465C45.7679 38.3428 45.8482 38.161 45.9326 37.8608H45.9285L43.8023 37.8526C43.8332 37.5974 43.8929 37.3993 43.9835 37.1767L44.2037 36.6294L46.6818 36.611H46.6859C46.7167 36.3905 46.7291 36.172 46.7147 35.98H46.7106L44.6297 35.9657C44.7635 35.4981 44.9199 35.1734 45.1258 34.8242C45.7947 34.8242 46.3689 34.8201 47.0255 34.7833H47.0296C47.1675 34.7752 47.2169 34.4076 47.1078 34.3504L45.8729 33.6908L45.4098 34.1932C45.3624 34.2442 45.2801 34.2708 45.1937 34.2749C45.171 34.2749 45.1463 34.2749 45.1216 34.2749C45.029 34.2687 44.9385 34.2422 44.8788 34.2054C44.7697 34.138 44.6483 33.8521 44.7285 33.7194C45.0455 33.1905 45.381 32.6861 45.737 32.1715L49.4933 33.554C49.874 33.6928 50.3701 33.7378 50.617 34.0931L51.8108 35.8044C52.3706 36.607 52.9202 37.3666 53.5232 38.1406C54.6305 39.5558 55.0875 40.1929 56.8452 40.924L62.6205 43.3296C64.2383 44.0035 65.642 44.9306 67.1486 45.9476C67.1486 45.9476 67.1527 45.9476 67.1527 45.9517C67.2782 45.6658 65.8478 44.367 65.7243 44.2833C65.6543 44.2363 65.5576 44.0627 65.6049 43.9872L66.0495 43.252C66.0824 43.2479 66.1174 43.2459 66.1503 43.2438C66.3356 43.2295 66.5208 43.2295 66.706 43.2397C67.9883 43.3133 69.2891 43.9341 70.2256 44.753C71.4214 45.7965 72.1747 47.1443 72.469 48.6922C72.5246 48.9883 72.4299 48.9822 72.2735 49.1844C71.1806 50.5873 70.0342 51.929 68.7643 53.1645C68.3691 53.2216 68.0377 53.336 67.6919 53.4973L66.3294 54.1242L65.4835 54.5694C65.4176 54.6041 65.3291 54.6205 65.2282 54.6225C65.1809 54.6225 65.1315 54.6225 65.0801 54.6184C64.8145 54.598 64.5079 54.5163 64.3391 54.4428L61.5461 52.2455C59.7184 50.8078 58.041 49.2742 56.415 47.614L54.5173 45.676C53.8587 45.0021 53.196 44.3752 52.4633 43.7666C49.9914 43.3684 47.5688 42.7435 46.2351 40.5462C46.1713 40.442 46.126 40.2542 46.0725 40.1357H44.0143C44.1687 40.6667 44.2201 41.1874 43.9423 41.6408V41.6367C43.7241 41.0302 43.4874 40.5401 43.1458 40.0418C43.0737 39.9376 42.9543 39.6905 43.014 39.5762L43.012 39.5701ZM42.4624 31.7528L42.5221 29.0756V29.0715C42.8535 29.3043 43.0799 29.6229 43.2322 29.9333C43.3248 30.4847 43.1252 31.0238 43.2548 31.6017V31.6058L44.3972 30.2069C44.4321 30.2069 47.6903 32.1531 47.2375 32.1694C47.2313 32.1694 47.2251 32.1694 47.2169 32.1694C47.2128 32.1694 47.2066 32.1694 47.2004 32.1694C47.1922 32.1694 47.1737 32.1674 47.1531 32.1653C47.1531 32.1653 47.149 32.1653 47.1469 32.1653C47.1078 32.1613 47.0625 32.1551 47.0378 32.1429L45.3007 31.3567L45.0414 31.2341C45.0414 31.2341 45.0311 31.23 45.0249 31.23C44.9714 31.23 44.8726 31.3199 44.8397 31.3567L43.1416 33.3559L43.8497 34.0747C43.8888 34.2851 43.9135 34.575 43.9299 34.8385C43.9299 34.8385 43.9258 34.8364 43.9238 34.8344C43.7323 34.7119 43.6006 34.6322 43.4895 34.5383L42.4151 33.6071L42.4563 31.7508L42.4624 31.7528ZM44.1275 26.7537C44.1275 26.7537 44.1275 26.7537 44.1296 26.7537C44.391 26.8599 44.6215 26.913 44.8973 26.9293C44.9343 26.9314 44.9734 26.9334 45.0126 26.9334C45.1134 26.9334 45.204 26.9396 45.2842 26.9436C46.0787 26.9906 46.0231 27.1642 46.1919 27.2786L49.6744 29.6433L54.4453 32.6963C54.6717 32.8413 54.0748 33.3967 54.0151 33.6724L54.3445 33.8991C54.4268 34.2565 54.2971 34.4872 54.0687 34.6894C53.9699 34.7772 53.8032 34.8283 53.6467 34.8323C53.6261 34.8323 53.6076 34.8323 53.5891 34.8323C53.5129 34.8283 53.443 34.814 53.3853 34.7874C53.2433 34.7221 52.9943 34.4566 53.0787 34.3198L53.4738 33.6826L52.5682 33.0741L50.8517 31.906L48.0217 29.9864C46.5788 29.0082 45.1257 28.1383 43.5245 27.395C43.65 27.1376 43.9011 26.8436 44.1275 26.7517V26.7537ZM63.9378 40.7361L64.0571 39.8641L64.2527 38.8696C65.2406 33.8235 69.3714 29.0613 73.3973 25.9593C73.3973 25.9593 73.3973 25.9593 73.3993 25.9573C75.1159 27.5645 76.7768 29.1798 78.0982 31.0442C79.1808 32.5881 79.4937 34.2136 79.2632 36.0719C78.8124 39.6844 76.7151 44.8714 74.5375 47.9509V47.9468C73.4014 44.8367 70.3573 42.1533 67.0724 41.6469C67.0662 41.6469 67.058 41.6469 67.0498 41.6469C67.0004 41.6449 66.9263 41.653 66.8686 41.651C66.8378 41.6489 66.8131 41.6408 66.8048 41.6244C66.6752 41.3855 68.2744 38.2856 68.5337 37.7995C69.2582 36.4293 70.1824 35.2551 71.0283 33.8971C71.0242 33.8971 71.0221 33.9011 71.018 33.9032C69.3447 34.9263 68.1262 36.2965 66.9201 37.6852C65.6913 39.1004 64.6828 40.6034 63.8698 42.3351H63.8657C63.6661 42.2575 63.9131 40.9179 63.9378 40.7422V40.7361ZM27.3573 23.956H27.3614L28.4996 26.3188L30.2943 29.7577C30.7018 30.5378 31.1217 31.2709 31.5807 32.0183L33.1964 34.6465C33.3734 34.9324 33.6904 35.0713 34.0382 35.1285C34.1267 35.1428 34.2173 35.1509 34.3099 35.155C34.563 35.1673 34.8183 35.1448 35.0364 35.1142C35.0755 35.1101 35.1105 35.104 35.1476 35.0978C36.5019 34.865 37.7533 34.4872 39.0582 34.0196C39.0582 34.0196 39.0602 34.0196 39.0623 34.0196L39.9885 35.3388C40.1305 35.541 40.1675 35.7268 40.0235 35.9514C39.8032 36.2925 39.7477 36.7193 39.6941 37.1175L39.0026 37.2768C38.5251 37.387 38.0558 37.5096 37.5392 37.5994L36.2302 37.8241L35.5448 37.9364L34.5733 38.0303C34.2214 38.065 33.7994 38.1242 33.3775 38.1508C33.147 38.1671 32.9165 38.1712 32.6983 38.1569C32.5522 38.1467 32.4122 38.1283 32.2805 38.0997C31.8071 37.9935 30.072 33.8705 29.823 33.1762L28.9874 30.8441C28.479 29.4289 28.1064 28.0219 27.7668 26.5618L27.1885 24.0847C27.1988 24.0459 27.2749 23.9948 27.3593 23.9622L27.3573 23.956ZM54.9084 28.9429L55.1616 28.2179C55.5567 27.0866 55.9869 25.9941 56.557 24.9362C57.1704 23.7988 57.8455 22.7675 58.6811 21.7832C58.7037 21.7567 58.7675 21.7403 58.8272 21.7362C58.8416 21.7362 58.854 21.7362 58.8663 21.7362C58.9116 21.7362 58.9466 21.7505 58.9466 21.7771C58.9013 23.6906 60.3997 24.9403 62.2397 25.1588C62.4044 25.1793 62.567 25.1935 62.7316 25.2017C63.0712 25.2221 63.4088 25.2201 63.7422 25.1997C64.9689 25.1262 66.1668 24.7892 67.2947 24.2623L70.2173 22.8962H70.2194C70.3758 22.9799 70.5055 23.1596 70.4973 23.3332C67.6631 25.312 64.9483 27.4869 62.9004 30.2417L61.33 32.3512H61.3259C61.2888 32.3553 61.2559 32.3553 61.223 32.3553C61.0624 32.3471 60.9369 32.2858 60.799 32.2144L58.0616 30.7726C57.0901 30.26 56.1413 29.8026 55.1348 29.3656C55.0484 29.3268 54.9146 29.2798 54.8858 29.2186C54.8569 29.1573 54.8816 29.0164 54.9063 28.9449L54.9084 28.9429ZM50.1375 29.0654C50.6994 26.7987 52.2101 23.1351 54.1325 21.532C54.1366 21.53 54.1386 21.5259 54.1428 21.5239L52.3748 24.5973C51.7491 25.6877 51.323 26.8415 50.9711 28.0464L50.5759 29.4024H50.5697C50.5697 29.4024 50.5553 29.4024 50.5491 29.4024C50.3845 29.3921 50.0943 29.2329 50.1354 29.0675L50.1375 29.0654ZM29.8312 18.6935V18.6894L31.2349 19.5634L34.7442 21.7117L40.7829 25.3242L43.1067 26.7292C42.9029 26.9661 42.7815 27.0988 42.5859 27.2847H42.5818L30.0041 19.5655C29.8847 19.2877 29.8189 19.0304 29.8292 18.6894L29.8312 18.6935ZM61.0933 21.9445C61.0933 21.9445 61.1057 21.9445 61.1139 21.9445C61.1139 21.9445 61.118 21.9445 61.1201 21.9445L61.3115 21.965L61.5111 21.9874C61.6346 21.9997 61.5297 21.2318 61.6182 20.8826C61.9331 19.6349 63.3368 19.1856 64.4482 18.9345C65.3497 18.7302 66.2162 18.5199 67.0683 18.1646C67.8607 17.8317 68.4432 17.2844 68.9186 16.5717C68.9186 16.5717 68.9186 16.5676 68.9207 16.5676C69.0627 16.9352 69.3159 17.1313 69.6328 17.1537C69.6678 17.1558 69.7049 17.1578 69.7419 17.1537C69.7934 17.1517 69.8469 17.1435 69.9004 17.1333H69.9045C70.0136 17.2783 69.9621 17.4723 69.8963 17.6438C69.3056 19.1673 68.5708 20.8745 67.5005 22.1222C67.058 22.6409 66.5208 22.9391 65.8478 23.0779C65.4197 23.1657 64.9916 23.2331 64.5614 23.2597C64.3082 23.276 64.0551 23.278 63.804 23.2637C63.4685 23.2454 63.133 23.1964 62.7996 23.1085C61.4391 22.7532 60.8813 21.9752 61.0933 21.9445ZM19.3385 16.5921L21.2382 13.6045C21.3926 13.3615 21.6334 13.241 21.8989 13.2288C21.9277 13.2288 21.9586 13.2288 21.9874 13.2288C22.1932 13.2349 22.4093 13.3043 22.6069 13.4269C22.8148 13.5555 22.9959 13.9905 22.8004 14.1906C22.6769 14.3172 22.574 14.4173 22.4834 14.5623L20.8327 17.2232C20.7442 17.3661 20.911 17.5846 21.0262 17.6071C21.0386 17.6091 21.0509 17.6112 21.0612 17.6112C21.0797 17.6132 21.0983 17.6132 21.1168 17.6112C21.2382 17.605 21.3679 17.5479 21.4296 17.4478L23.2573 14.4888C23.3479 14.3417 23.6175 14.2539 23.7986 14.2437C23.8213 14.2437 23.8398 14.2437 23.8583 14.2437C23.8707 14.2437 23.881 14.2437 23.8913 14.2478C24.058 14.2743 24.2823 14.4132 24.3914 14.5459C24.6343 14.8339 24.6425 15.1034 24.4737 15.373L22.6728 18.2463C22.5534 18.4341 22.4834 18.6424 22.7284 18.7711C22.7572 18.7874 22.7901 18.7956 22.8251 18.7997C22.8416 18.7997 22.8601 18.8017 22.8786 18.7997C22.9897 18.7935 23.1112 18.7343 23.1832 18.6179L24.9204 15.8141C25.0603 15.5874 25.2497 15.4526 25.472 15.4363C25.5008 15.4343 25.5296 15.4343 25.5584 15.4363C25.6695 15.4424 25.7889 15.4792 25.9124 15.5486C26.2232 15.7242 26.5896 16.2899 26.2829 16.6309C26.1018 16.8331 25.8733 17.0067 25.7045 17.2763L24.3193 19.5103C24.3296 19.6043 24.4079 19.7411 24.4675 19.7962C24.4964 19.8228 24.5663 19.8371 24.6363 19.8412C24.659 19.8412 24.6837 19.8412 24.7063 19.8412C24.7536 19.8391 24.7948 19.8289 24.8195 19.8126L26.1614 17.6765C26.3179 17.4294 26.4455 17.1149 26.7254 17.023C26.7912 17.0006 26.8571 16.9883 26.9209 16.9822C26.9312 16.9822 26.9415 16.9822 26.9518 16.9822C26.9765 16.9822 27.0012 16.9822 27.0259 16.9822C27.2667 16.9965 27.4725 17.1272 27.6042 17.3416C27.8574 17.7541 27.6742 18.1809 27.4272 18.5546L26.1182 20.5396C26.1861 20.9562 26.2355 21.4871 25.7354 21.6443C25.6304 21.677 25.5255 21.6974 25.4226 21.7036C25.3505 21.7097 25.2785 21.7077 25.2085 21.7036C24.6281 21.6525 24.1321 21.2196 24.0024 20.607C23.9674 20.4477 23.8954 20.3946 23.7945 20.3905C23.7801 20.3905 23.7636 20.3905 23.7472 20.3905C23.5949 20.4027 23.3932 20.4926 23.1647 20.5028C23.1359 20.5028 23.1091 20.5028 23.0803 20.5028C22.8786 20.4926 22.6625 20.4109 22.4464 20.1556C22.2858 19.9657 22.1953 19.6369 22.0944 19.3592C22.0944 19.3592 22.0924 19.3592 22.0903 19.3592C22.0718 19.3592 22.0533 19.3633 22.0347 19.3633C21.9298 19.3715 21.8289 19.3715 21.7322 19.3633C21.0159 19.3122 20.5405 18.8875 20.4664 18.089C20.4005 18.0318 20.2997 18.0175 20.1824 18.0135C20.1062 18.0094 20.0218 18.0114 19.9354 18.0053C19.6843 17.991 19.4105 17.9297 19.2253 17.5948C19.0298 17.2395 19.1388 16.9025 19.3344 16.5962L19.3385 16.5921ZM23.1503 11.4542C23.1503 11.4542 23.1503 11.4542 23.1544 11.4521C24.0044 12.5937 25.1838 13.3064 26.5669 13.5984C27.2297 13.7373 26.7604 14.5725 28.2835 15.6283C28.5243 15.7957 28.4172 15.9162 28.1538 15.9244C28.1209 15.9244 28.0879 15.9244 28.0509 15.9244C27.5199 15.8876 26.571 15.4649 26.2973 14.2825C26.0544 14.1416 25.8671 14.1048 25.6963 14.0967C25.5625 14.0905 25.439 14.1008 25.3114 14.0926C25.1262 14.0803 24.9265 14.0272 24.6569 13.8271C23.9427 13.2962 23.3582 12.6427 23.0638 11.7911C23.0247 11.6768 23.033 11.5563 23.1523 11.4583L23.1503 11.4542ZM60.5067 15.1034C60.5355 14.8482 60.3338 14.7971 59.9654 14.4009C59.881 14.3111 59.949 14.0048 60.0724 14.0048H60.0786C60.7331 14.0558 60.9513 14.3805 61.6346 14.4214C61.6573 14.4214 61.6799 14.4234 61.7025 14.4255H61.7067C61.6099 14.1886 61.4947 14.0048 61.3135 13.87L60.2824 13.1062C60.2392 13.0756 60.1651 12.9674 60.1671 12.9163C60.1692 12.8653 60.2762 12.7652 60.2865 12.7121L60.4059 12.0301C60.4594 11.9831 60.5129 11.9606 60.5664 11.9565C60.5788 11.9565 60.5932 11.9565 60.6055 11.9565C60.834 11.9708 61.048 12.2914 61.293 12.3119C61.3033 12.3119 61.3156 12.3119 61.328 12.3119C61.4041 12.3098 61.4823 12.2751 61.5667 12.1934C61.6531 12.1077 61.5811 11.8258 61.472 11.7544C61.1551 11.5502 60.8484 11.4235 60.5047 11.2949L59.6896 10.9927C59.6361 10.9722 59.5497 10.9253 59.5394 10.8803C59.5291 10.8354 59.5744 10.7211 59.6176 10.6782L60.9822 9.23439C61.1262 9.08123 61.2868 8.91786 61.4247 8.78309C61.8404 8.93829 62.1718 9.03018 62.5896 9.11799C63.1845 10.7946 64.7878 10.1411 65.784 10.8538C65.784 10.8538 65.786 10.8538 65.7881 10.8558C65.9774 10.4883 65.4341 10.2922 65.3373 9.98793C66.3911 10.0226 67.3256 10.039 68.297 9.97364C68.365 9.96955 68.4349 9.96343 68.5049 9.95934H68.509C68.614 10.5291 68.7704 12.4242 69.2438 12.6447C69.3591 12.6978 69.4702 12.7264 69.5793 12.7325C69.6122 12.7325 69.6452 12.7325 69.6781 12.7325C69.9642 12.7142 70.2215 12.5528 70.419 12.3302C70.6948 12.0219 71.1003 11.7768 71.5284 11.7462C71.5634 11.7421 71.5984 11.7421 71.6334 11.7421C71.6519 11.7421 71.6684 11.7421 71.6869 11.7442C72.2323 11.783 72.6007 12.2996 72.6172 12.8122C72.6296 13.1961 72.5369 13.5392 72.3208 13.8537C71.8989 14.4683 70.6928 15.7202 69.6987 15.7937C69.6493 15.7978 69.5999 15.7978 69.5525 15.7957C69.2685 15.7814 69.0051 15.6589 68.791 15.3791C68.791 15.3791 68.791 15.3812 68.7889 15.3832C68.2826 16.2041 67.7187 16.8842 66.8933 17.3008C66.2738 17.6112 65.4876 17.7419 64.6931 17.7868C64.0366 17.8256 63.3738 17.8052 62.7975 17.7807C62.4805 17.7684 62.1574 17.7643 61.8363 17.7459C61.1262 17.7051 60.4306 17.5928 59.8234 17.1537C59.5044 16.923 59.4097 16.6126 59.4015 16.2552C59.3809 15.1218 60.4594 15.5017 60.5026 15.1075L60.5067 15.1034ZM11.0172 7.42099L13.8801 9.19355L20.31 13.1165C20.4149 13.1818 20.2503 13.4779 20.1412 13.5167C20.1165 13.5249 20.0877 13.531 20.0568 13.531C20.0383 13.531 20.0177 13.531 19.9971 13.531C19.9086 13.5228 19.8139 13.4922 19.7316 13.4412L16.2224 11.2969L11.8857 8.60542L10.7084 7.84779C10.801 7.68034 10.8937 7.54556 11.0151 7.42303L11.0172 7.42099ZM63.0424 5.58921C63.0754 5.58921 63.1062 5.58921 63.1351 5.59125C63.3409 5.60146 63.452 5.6423 63.6537 5.73624C65.4114 6.55105 67.0662 7.48838 68.6243 8.69119C68.0439 8.89744 67.4696 8.90561 66.8851 8.96075C66.809 8.96892 66.7328 8.973 66.6566 8.97913C66.0454 9.01997 65.4526 8.99547 64.8084 8.95667C63.1083 8.8566 61.5935 8.39508 60.1856 7.50472C59.4694 7.05137 58.502 6.4081 58.1789 5.5402L63.0404 5.59125L63.0424 5.58921ZM2.79464 3.79827C2.86462 3.79215 2.93253 3.79215 2.9984 3.79827C3.20628 3.80848 3.39974 3.85545 3.59527 3.89016L4.84872 4.12092L5.46825 4.2169L6.26477 4.33535L7.04483 4.44971L8.25505 4.55794L7.15186 6.15488H7.14774L2.6732 3.81665C2.71436 3.81052 2.75553 3.8044 2.79464 3.80032V3.79827ZM66.4241 3.2469C66.6114 3.17134 66.8069 3.13254 67.0065 3.11824C67.1383 3.10803 67.2721 3.11008 67.4058 3.11824C67.4285 3.11824 67.4511 3.12233 67.4738 3.12233C67.7475 3.14071 68.0192 3.18155 68.2765 3.21014C69.7028 3.6349 71.0365 4.13318 72.3044 4.87039C72.6213 5.05418 72.7819 5.29719 72.8868 5.64435C73.3623 7.20453 73.6545 8.78513 73.5578 10.4311C73.5413 10.7047 73.4446 11.011 73.2985 11.2622C73.2985 11.2622 73.2964 11.2602 73.2944 11.2581C71.4975 9.6224 69.6657 8.28072 67.6713 7.06362C66.3911 6.30191 65.1397 5.66273 63.7134 5.0746C64.5449 4.34148 65.4135 3.66349 66.4241 3.2469ZM1.53296 2.69961C1.58235 2.23401 2.04134 1.75207 2.61146 1.72144C2.65468 1.72144 2.6979 1.72144 2.74113 1.72144C2.8214 1.72552 2.90372 1.74186 2.98811 1.76841C2.8111 1.99917 2.61351 2.17887 2.48795 2.38104L2.11131 2.99572L1.994 3.4409H1.98988C1.61322 3.33471 1.49591 3.04065 1.53296 2.69961Z" fill="white"/>
<path d="M33.993 24.3584L31.9636 23.078L34.5796 26.231C34.6928 25.8165 34.8142 25.404 34.9438 24.9935L33.993 24.3584Z" fill="white"/>
<path d="M1.14422 2.33205C1.3521 1.38859 2.26182 0.93728 3.24152 1.15987L8.89954 4.29248C8.83161 5.36459 9.86072 6.1651 10.7643 6.063C11.1965 6.01399 11.4661 6.19778 11.7954 6.40812L14.3847 8.06632L15.8316 8.96077L18.3241 10.4719L20.6128 11.8197C20.9544 12.0199 21.2632 12.2179 21.5987 12.4446C21.7386 12.5386 22.0247 12.7366 22.177 12.6856C22.6525 12.5243 21.8662 12.073 22.1112 11.1969C22.2223 10.8007 22.5701 10.6108 22.9118 10.6047C23.2576 10.5965 23.5972 10.7395 23.7536 11.0805C23.8853 11.3684 24.1241 11.5277 24.3628 11.7238C24.8692 12.1363 25.4002 12.4324 26.0341 12.6345L26.5836 12.8102C27.1887 13.4167 27.9482 13.4657 28.4052 14.015C28.7489 14.4275 29.1317 14.7992 29.3663 15.277C29.7018 15.9611 29.7471 16.7126 29.7594 17.4703C29.8562 17.554 29.9879 17.6724 30.0908 17.7378L31.4636 18.5955L37.4077 22.2652L37.4798 22.3101L37.8502 22.6042L39.4474 23.5292L42.5924 25.4264C43.253 25.8246 43.5288 25.2691 44.1175 24.926L47.1101 23.1841L48.5673 22.4735C48.9996 22.2631 49.4277 22.1304 49.8455 21.9017L50.5658 21.5096L51.348 21.0848C51.8358 20.8193 52.587 20.7417 52.9019 20.5988C53.1633 20.4783 53.4144 20.4661 53.7046 20.4048L54.8613 20.1577C56.654 19.7758 58.4796 19.9024 60.3444 19.9637L60.6078 18.961C60.6387 18.8405 60.649 18.522 60.5317 18.4607C60.297 18.3361 60.011 18.2871 59.7578 18.2218C58.846 17.9869 58.3417 17.1109 58.4776 16.1817C58.5414 15.7488 58.8378 15.3465 59.0354 14.9728C58.9386 14.4867 58.8933 13.9476 59.3585 13.6005C58.9078 12.7346 59.554 12.465 59.5643 11.7646C59.2165 11.6441 58.9695 11.493 58.8234 11.2643C58.2944 10.4372 59.1033 9.87359 59.7743 9.29771L58.8686 8.86887C58.7596 8.81781 58.6134 8.70141 58.4982 8.62585C57.5946 8.02547 56.8763 7.19025 56.5655 6.15081C56.582 5.97723 56.6005 5.77098 56.6067 5.58719C56.6231 5.0011 57.1665 4.60901 57.7325 4.66415L58.2944 4.71724L60.7354 4.76217C61.3755 4.77442 62.0177 4.80301 62.6496 4.78055C63.1662 4.02905 64.6275 3.08967 65.4611 2.83849C65.9262 2.69759 66.414 2.58731 66.8936 2.51175C67.8115 2.36676 69.207 2.47704 70.1003 2.7078C71.3373 3.02433 72.4631 3.5369 73.4366 4.35375C74.4966 5.24207 75.0503 6.39382 75.4928 7.63747C75.6142 7.9785 75.7871 8.30933 75.8118 8.69529C75.9209 10.3147 75.8715 11.8973 75.0667 13.3574C74.6489 14.1151 74.05 14.7257 73.3975 15.3077L72.1914 16.3839C71.3393 17.1435 70.621 18.1319 70.5984 19.3143L70.5654 20.9786L71.4258 21.046C71.8436 21.4381 72.142 21.8853 72.4754 22.3407L72.8624 22.8717L73.6424 23.9417C73.8462 24.2215 74.0911 24.485 74.3196 24.7382L75.3137 25.847L77.5016 28.2608L78.1746 29.0899C78.6274 29.6495 78.9979 30.2253 79.3704 30.8461C79.9509 31.8182 80.3687 32.8413 80.521 33.9767L80.6362 34.8405C80.7597 35.7574 80.5951 37.5606 80.3666 38.4571C79.8973 40.2869 79.1811 41.9696 78.2837 43.6196C77.5201 45.0225 76.6989 46.305 75.7048 47.5548C75.2334 48.147 74.8691 48.7862 74.2496 49.2763C73.3831 49.9624 72.8192 50.9263 71.8806 51.5512L71.399 51.8718L68.7151 54.11C68.5113 54.2815 68.3364 54.4571 68.1367 54.6695L67.0582 54.7246C66.6857 54.743 66.4943 54.841 66.2391 55.0881L64.8251 56.4645L58.6731 62.2825C58.5867 62.3662 58.5043 62.4316 58.4323 62.5031C52.3832 61.3819 46.9907 58.4045 42.8785 54.1916C43.0061 51.8453 43.2592 49.6643 43.8643 47.3526L43.4177 46.6317C43.2119 47.0177 43.1131 47.4322 42.9958 47.8611C42.4936 49.6663 42.0922 51.2796 41.9029 53.14C41.2751 52.4313 40.6844 51.6941 40.1287 50.9263L40.1822 50.669L40.316 50.0237L40.6803 48.682C41.166 46.8911 41.5447 45.9885 42.4298 44.3507C42.8455 43.5808 43.1769 43.5828 43.1666 42.8477C43.1563 41.9839 43.1378 41.0425 42.5368 40.3257C42.2239 39.3271 42.9402 38.7104 42.7508 38.2815C42.6356 38.0181 42.1787 37.8588 42.0449 37.8996L40.6288 38.3285L37.5642 39.031C36.7656 39.2148 35.967 39.2515 35.1602 39.3842C35.1355 39.3883 35.1108 39.3924 35.0861 39.3965L34.0755 39.568C33.5218 39.662 32.9641 39.7518 32.4145 39.5925C31.9885 39.468 31.5851 39.2576 31.3463 38.8635C30.6301 37.677 29.6092 35.6901 29.1008 34.4096L28.7159 33.4396C28.5595 33.0496 28.4237 32.6779 28.3043 32.2654L26.6536 26.5557L26.3655 25.4121L26.137 24.4094L25.9374 23.3271L25.8221 22.6389L25.0379 22.6103C24.7704 22.6001 24.476 22.3489 24.2373 22.2162C23.8833 22.0201 23.663 21.7056 23.5025 21.3442C21.9671 21.2523 21.9671 20.3149 21.2858 20.1087C20.6169 19.9086 20.1188 19.445 19.9048 18.7976C19.2194 18.6894 18.606 18.2973 18.3549 17.701C18.1779 17.2804 18.2314 16.9148 18.4455 16.5677L19.5631 14.7461C19.7031 14.5174 19.5693 14.3785 19.3902 14.2703L18.0894 13.4698L17.4658 13.0634L16.0292 12.2037L14.8704 11.4603L13.4379 10.5455L12.1824 9.76536C11.5999 9.40391 11.0421 9.00161 10.4288 8.70754C9.4182 8.22356 9.82161 7.63952 8.96745 7.0861C7.58022 6.18757 7.56376 7.36996 6.60052 6.78591L5.98717 6.41424L1.83577 4.03926C1.2286 3.6921 1.00838 2.96715 1.14628 2.33613L1.14422 2.33205ZM23.1485 11.4522C23.0271 11.5481 23.0168 11.6727 23.0579 11.7871C23.3522 12.6386 23.9368 13.2901 24.651 13.823C24.9227 14.0252 25.1244 14.0763 25.3117 14.0885C25.4413 14.0967 25.5628 14.0885 25.6965 14.0926C25.8653 14.1028 26.0506 14.1396 26.2914 14.2784C26.5672 15.4649 27.5201 15.8856 28.0511 15.9203C28.0882 15.9223 28.1211 15.9244 28.154 15.9203C28.4134 15.9101 28.5204 15.7896 28.2796 15.6242C26.7565 14.5684 27.2258 13.7352 26.5631 13.5943C25.182 13.3023 24.0026 12.5917 23.1547 11.4522C23.1547 11.4522 23.1547 11.4522 23.1547 11.4501L23.1485 11.4522ZM36.2119 29.6515C36.4589 29.5657 36.7038 29.4881 36.9199 29.3513C37.5127 28.9776 38.0622 28.6223 38.5912 28.2098C38.9884 27.8994 39.3033 27.5624 39.7994 27.3725C39.9085 27.3296 40.0793 27.0539 39.9435 26.9702L36.2449 24.6606L35.8497 24.4135L34.8844 23.7702L32.4722 22.2468L30.84 21.238C30.6054 21.093 30.3893 20.9848 30.097 20.8377C30.097 20.8377 30.0949 20.8377 30.0929 20.8357C30.0558 21.3891 30.0826 21.8812 30.1464 22.4102C30.4922 22.7859 30.7947 23.1351 31.124 23.5333L34.5201 27.6257L34.9626 28.173L35.2116 28.4895L35.8867 29.3493C35.9526 29.433 36.074 29.6515 36.1831 29.6576C36.1852 29.6576 36.1872 29.6576 36.1913 29.6576C36.1996 29.6576 36.2078 29.6576 36.214 29.6536L36.2119 29.6515ZM45.0108 26.9335C44.9716 26.9335 44.9325 26.9334 44.8955 26.9294C44.6197 26.913 44.3892 26.8599 44.1257 26.7558C44.1257 26.7558 44.1257 26.7558 44.1237 26.7558C43.8952 26.8456 43.6441 27.1397 43.5186 27.399C45.1198 28.1424 46.5729 29.0123 48.0157 29.9905L50.8458 31.9101L52.5623 33.0782L53.4679 33.6867L53.0727 34.3239C52.9884 34.4607 53.2374 34.7262 53.3794 34.7915C53.4391 34.8201 53.5111 34.8344 53.5894 34.8365C53.6079 34.8365 53.6285 34.8365 53.647 34.8365C53.8013 34.8303 53.966 34.7813 54.0648 34.6935C54.2933 34.4913 54.4229 34.2626 54.3406 33.9032L54.0113 33.6765C54.073 33.4008 54.6678 32.8454 54.4414 32.7004L49.6705 29.6474L46.188 27.2826C46.0193 27.1683 46.0748 26.9947 45.2845 26.9477C45.2042 26.9437 45.1116 26.9396 45.0128 26.9375L45.0108 26.9335ZM50.1336 29.0654C50.0925 29.2329 50.3888 29.3942 50.5514 29.4003C50.5576 29.4003 50.5658 29.4003 50.572 29.4003L50.9672 28.0444C51.3192 26.8416 51.7431 25.6857 52.3709 24.5952L54.1327 21.53L54.1368 21.5218C52.2083 23.1208 50.6935 26.7946 50.1316 29.0634L50.1336 29.0654ZM68.9168 16.5717V16.5677C68.4393 17.2824 67.8568 17.8317 67.0644 18.1646C66.2144 18.522 65.3458 18.7323 64.4443 18.9345C63.3658 19.1775 62.0136 19.6063 61.6472 20.7703C61.6349 20.8071 61.6246 20.8439 61.6143 20.8827C61.5278 21.2278 61.6308 21.9854 61.5114 21.9874H61.5073L61.3056 21.965L61.1141 21.9446C61.1141 21.9446 61.0997 21.9446 61.0936 21.9446C60.8672 21.9609 61.4208 22.7491 62.7936 23.1086C63.1291 23.1964 63.4667 23.2454 63.8042 23.2638C64.0574 23.2781 64.3085 23.274 64.5616 23.2597C64.9898 23.2311 65.4179 23.1657 65.8418 23.0779C66.5149 22.9391 67.05 22.6409 67.4946 22.1222C67.9556 21.5851 68.3549 20.9623 68.7069 20.3047C69.172 19.4368 69.5549 18.5097 69.8903 17.6439C69.9562 17.4723 70.0097 17.2804 69.9006 17.1354C69.8471 17.1456 69.7936 17.1537 69.7422 17.1558C69.7051 17.1558 69.6681 17.1558 69.6331 17.1558C69.314 17.1354 69.0588 16.9414 68.9168 16.5738V16.5717ZM58.8275 21.7342C58.7657 21.7383 58.6999 21.7567 58.6772 21.7812C57.8416 22.7655 57.1665 23.7968 56.5532 24.9342C55.981 25.9941 55.5529 27.0846 55.1577 28.2159L54.9045 28.9409C54.8798 29.0123 54.8551 29.1532 54.884 29.2145C54.9128 29.2758 55.0466 29.3227 55.133 29.3615C56.1415 29.7985 57.0883 30.256 58.0618 30.7685L60.7992 32.2103C60.9371 32.2838 61.0648 32.3451 61.2273 32.3512C61.2603 32.3512 61.2932 32.3512 61.3303 32.3471L62.8986 30.2376C64.9486 27.4828 67.6613 25.3059 70.4954 23.3291C70.5037 23.1576 70.374 22.9779 70.2196 22.8921C70.2196 22.8921 70.2197 22.8921 70.2176 22.8921L67.2929 24.2583C66.165 24.7851 64.9692 25.12 63.7445 25.1956C63.409 25.216 63.0715 25.2181 62.734 25.1977C62.5693 25.1874 62.4026 25.1731 62.2379 25.1548C60.3979 24.9363 58.8995 23.6844 58.9448 21.773C58.9448 21.7485 58.9119 21.7363 58.8686 21.7322C58.8563 21.7322 58.8439 21.7322 58.8295 21.7322L58.8275 21.7342ZM59.6117 10.6761C59.5684 10.7211 59.5252 10.8354 59.5334 10.8783C59.5437 10.9232 59.6302 10.9702 59.6837 10.9906L60.4987 11.2929C60.8425 11.4195 61.1491 11.5481 61.4661 11.7523C61.5752 11.8238 61.6472 12.1056 61.5608 12.1914C61.4785 12.2731 61.4023 12.3058 61.3261 12.3098C61.3159 12.3098 61.3035 12.3098 61.2912 12.3098C61.0483 12.2935 60.8322 11.9749 60.6037 11.9545C60.5914 11.9545 60.577 11.9545 60.5646 11.9545C60.5111 11.9586 60.4555 11.979 60.3979 12.028L60.2785 12.7101C60.2682 12.7632 60.1612 12.8633 60.1591 12.9143C60.1571 12.9654 60.2312 13.0736 60.2744 13.1042L61.3056 13.868C61.4846 14.0007 61.5999 14.1865 61.6987 14.4234C61.676 14.4234 61.6534 14.4234 61.6308 14.4194C60.9433 14.3806 60.7272 14.0538 60.0686 14.0028C59.941 13.9946 59.871 14.307 59.9574 14.3989C60.3259 14.7971 60.5276 14.8482 60.4987 15.1014C60.4555 15.4955 59.377 15.1157 59.3976 16.2491C59.4038 16.6085 59.5005 16.9169 59.8175 17.1476C60.4267 17.5887 61.1244 17.701 61.8345 17.7398C62.1556 17.7582 62.4767 17.7623 62.7957 17.7745C63.3741 17.797 64.0347 17.8174 64.6913 17.7807C65.4837 17.7357 66.2658 17.6051 66.8854 17.2947C67.7148 16.8781 68.2788 16.198 68.7851 15.373C68.7851 15.373 68.7851 15.3751 68.7871 15.3771C69.0033 15.6548 69.2667 15.7774 69.5507 15.7896C69.6001 15.7917 69.6475 15.7896 69.6969 15.7876C70.691 15.71 71.8909 14.4602 72.3128 13.8476C72.529 13.5331 72.6216 13.19 72.6092 12.8061C72.5928 12.2955 72.2264 11.7809 71.6851 11.738C71.6666 11.738 71.6501 11.738 71.6316 11.736C71.5966 11.736 71.5616 11.736 71.5266 11.7401C71.0985 11.7666 70.6889 12.0137 70.4131 12.3241C70.2155 12.5447 69.9603 12.706 69.6763 12.7264C69.6434 12.7264 69.6104 12.7285 69.5775 12.7264C69.4663 12.7203 69.3511 12.6938 69.2358 12.6386C68.7624 12.416 68.606 10.523 68.5011 9.95323C68.4311 9.95732 68.3632 9.96344 68.2932 9.96753C67.3196 10.0329 66.3873 10.0165 65.3335 9.98182H65.3273C65.424 10.2861 65.9633 10.4821 65.7801 10.8477C65.7801 10.8477 65.7801 10.8477 65.7801 10.8497C64.7839 10.1309 63.1785 10.7885 62.5817 9.10984C62.1638 9.02203 61.8345 8.93014 61.4208 8.77698C61.4208 8.77698 61.4188 8.77698 61.4167 8.77698C61.2788 8.90971 61.1183 9.07512 60.9721 9.22828L59.6075 10.6721L59.6117 10.6761ZM63.0427 5.58923L58.1812 5.53817H58.1771C58.4982 6.40607 59.4676 7.05138 60.1838 7.50269C61.5917 8.39305 63.1065 8.85458 64.8066 8.95464H64.8127C65.457 8.99344 66.0497 9.01794 66.661 8.9771C66.7351 8.97302 66.8092 8.96689 66.8833 8.95872C67.4678 8.90563 68.04 8.89746 68.6225 8.68916C67.0624 7.48635 65.4096 6.54903 63.6499 5.73422C63.4482 5.64028 63.3391 5.59944 63.1353 5.58923C63.1065 5.58923 63.0756 5.58923 63.0427 5.58719V5.58923ZM73.2946 11.2581C73.4387 11.007 73.5354 10.7027 73.5519 10.429C73.6486 8.7831 73.3564 7.2025 72.8809 5.64232C72.7739 5.29516 72.6133 5.05215 72.2984 4.86836C71.0306 4.13115 69.6969 3.63288 68.2705 3.20812C68.0133 3.17953 67.7436 3.14073 67.4719 3.12031C67.4493 3.12031 67.4267 3.11622 67.404 3.11622C67.2702 3.1101 67.1365 3.10806 67.0047 3.11622C66.803 3.13052 66.6054 3.16728 66.4181 3.24488C65.4055 3.65943 64.539 4.33741 63.7054 5.07257C65.1318 5.6607 66.3811 6.29989 67.6634 7.0616C69.6578 8.2787 71.4916 9.62241 73.2905 11.2602C73.2905 11.2602 73.2905 11.2602 73.2905 11.2561L73.2946 11.2581ZM74.5337 47.9509C74.5337 47.9509 74.5357 47.9468 74.5378 47.9468C76.7133 44.8673 78.8106 39.6824 79.2614 36.0719C79.4939 34.2136 79.179 32.5881 78.0964 31.0442C76.773 29.1798 75.1161 27.5665 73.3996 25.9594C73.3996 25.9594 73.3996 25.9594 73.3975 25.9573C69.3696 29.0593 65.2388 33.8236 64.2488 38.8717L64.0553 39.8662L63.9339 40.7382C63.9092 40.9158 63.6581 42.2759 63.866 42.3331C64.681 40.6013 65.6895 39.1004 66.9162 37.6852C68.1223 36.2945 69.3449 34.9222 71.0224 33.8971C71.0224 33.8971 71.0203 33.9012 71.0182 33.9032C70.1744 35.2592 69.2502 36.4313 68.5278 37.7996C68.2705 38.2876 66.6713 41.3855 66.7989 41.6245C66.8092 41.6408 66.8339 41.649 66.8689 41.651C66.9245 41.6551 67.0006 41.6449 67.05 41.6469C67.0562 41.6469 67.0624 41.6469 67.0665 41.6469C70.3534 42.1534 73.3975 44.8387 74.5337 47.9509ZM45.0869 45.8312C45.2289 45.6638 45.3154 45.4595 45.3977 45.2594L46.5544 42.4331L45.9699 41.7286H45.9678C45.8052 41.8552 45.7579 41.9961 45.6858 42.184L44.6814 44.853L44.4386 45.5882L45.0869 45.8333V45.8312ZM44.4715 46.8114C44.5291 46.8768 44.6403 46.9156 44.7617 46.9217C44.7926 46.9238 44.8235 46.9238 44.8564 46.9217C44.9675 46.9156 45.0746 46.8809 45.1445 46.8216C45.2701 46.7134 45.2804 46.3499 45.1898 46.2151C45.1301 46.1253 45.0355 46.0824 44.9367 46.0742C44.9099 46.0722 44.8811 46.0722 44.8523 46.0742C44.7432 46.0824 44.6362 46.1212 44.5621 46.1722C44.3809 46.2968 44.2677 46.5786 44.4715 46.8094V46.8114ZM43.1398 40.0357C43.4815 40.536 43.7182 41.0261 43.9384 41.6347C43.9384 41.6347 43.9384 41.6306 43.9405 41.6306C44.2142 41.1793 44.1628 40.6606 44.0084 40.1337H46.0666C46.1201 40.2501 46.1654 40.438 46.2292 40.5421C47.5609 42.7395 49.9854 43.3643 52.4573 43.7625C53.1901 44.3711 53.8528 45.0001 54.5114 45.6719L56.4091 47.6099C58.0351 49.2701 59.7125 50.8017 61.5402 52.2414L64.3332 54.4387C64.504 54.5123 64.8107 54.596 65.0783 54.6144C65.1297 54.6185 65.1791 54.6185 65.2264 54.6185C65.3252 54.6144 65.4117 54.598 65.4755 54.5654L66.3235 54.1202L67.6839 53.4932C68.0297 53.334 68.3611 53.2176 68.7583 53.1604C70.0262 51.9229 71.1726 50.5812 72.2676 49.1803C72.424 48.9781 72.5187 48.9842 72.4631 48.6881C72.1688 47.1402 71.4175 45.7924 70.2196 44.7489C69.2832 43.932 67.9865 43.3112 66.7042 43.2357C66.519 43.2255 66.3338 43.2255 66.1485 43.2398C66.1135 43.2398 66.0785 43.2439 66.0436 43.2479L65.599 43.9831C65.5516 44.0607 65.6484 44.2322 65.7184 44.2792C65.8398 44.3629 67.262 45.6515 67.1467 45.9435C67.1467 45.9435 67.1467 45.9435 67.1467 45.9476C65.6381 44.9306 64.2323 44.0015 62.6146 43.3276L56.8393 40.922C55.0836 40.1909 54.6246 39.5537 53.5173 38.1386C52.9122 37.3666 52.3647 36.607 51.8049 35.8024L50.6111 34.0911C50.3641 33.7357 49.8661 33.6908 49.4874 33.552L45.7352 32.1715H45.7311C45.373 32.684 45.0375 33.1905 44.7205 33.7194C44.6403 33.8521 44.7617 34.138 44.8708 34.2054C44.9305 34.2442 45.0252 34.2687 45.1198 34.2749C45.1425 34.2749 45.1672 34.2749 45.1919 34.2749C45.2763 34.2687 45.3545 34.2442 45.4018 34.1932L45.867 33.6908H45.8711L47.1019 34.3504C47.211 34.4096 47.1636 34.7752 47.0237 34.7834C46.3671 34.8201 45.7929 34.8222 45.124 34.8242H45.1198C44.914 35.1734 44.7576 35.4981 44.6238 35.9657H44.6279L46.7088 35.98C46.7232 36.17 46.7129 36.3905 46.68 36.6111L44.2019 36.6294H44.1957L43.9755 37.1767C43.8849 37.4013 43.8252 37.5974 43.7943 37.8527H43.8005L45.9267 37.8608C45.8402 38.159 45.7599 38.3428 45.6385 38.598L43.5103 38.5817H43.5041L43.004 39.5701C42.9464 39.6844 43.0637 39.9295 43.1357 40.0357H43.1398ZM43.4897 34.5424C43.6009 34.6384 43.7347 34.718 43.9281 34.8426V34.8385C43.9117 34.5771 43.887 34.2871 43.8479 34.0788L43.1398 33.36L44.8379 31.3608C44.8708 31.322 44.9758 31.2301 45.0272 31.2342C45.0313 31.2342 45.0355 31.2342 45.0396 31.2382L45.2989 31.3608L47.036 32.147C47.0607 32.1572 47.1122 32.1654 47.1513 32.1694C47.1513 32.1694 47.1554 32.1694 47.1575 32.1694C47.176 32.1694 47.1904 32.1735 47.1986 32.1735C47.2069 32.1735 47.2151 32.1735 47.2213 32.1735C47.2295 32.1735 47.2357 32.1735 47.2418 32.1735C47.6555 32.1408 44.5332 30.2723 44.3995 30.2111C44.3974 30.2111 44.3954 30.2111 44.3954 30.2111L43.2551 31.6058L43.251 31.6099C43.1193 31.0279 43.321 30.4888 43.2263 29.9354C43.076 29.627 42.8517 29.3084 42.5224 29.0777C42.5224 29.0777 42.5183 29.0756 42.5183 29.0736L42.4586 31.7549L42.4174 33.6112L43.4918 34.5424H43.4897ZM42.58 27.2888C42.7755 27.105 42.897 26.9702 43.0987 26.7333L40.775 25.3283L36.8747 22.9962L34.7341 21.7158L31.2249 19.5675L29.8253 18.6955L29.8212 18.6915C29.8109 19.0345 29.8747 19.2918 29.9941 19.5696L36.6153 23.6313L42.5759 27.2888H42.58ZM27.7609 26.5557C28.1026 28.0137 28.4751 29.4228 28.9814 30.838L29.8171 33.1701C30.0661 33.8644 31.8032 37.9874 32.2746 38.0936C32.4084 38.1243 32.5504 38.1406 32.6965 38.1508C32.9147 38.1651 33.1452 38.159 33.3757 38.1447C33.7935 38.1161 34.2155 38.0589 34.5654 38.0242L34.9317 37.9895L35.5389 37.9303L36.2243 37.8179L37.5353 37.5933C38.052 37.5055 38.5212 37.3809 38.9967 37.2707L39.6882 37.1114C39.7397 36.7132 39.7953 36.2864 40.0155 35.9453C40.1596 35.7227 40.1225 35.5349 39.9805 35.3327L39.0564 34.0155C37.7494 34.4832 36.498 34.8609 35.1417 35.0938C35.1067 35.0999 35.0717 35.106 35.0367 35.1101C34.9276 35.1264 34.8082 35.1387 34.6868 35.1468C34.5654 35.155 34.4378 35.1571 34.3101 35.1509C34.2196 35.1469 34.127 35.1387 34.0385 35.1244C33.6865 35.0692 33.3675 34.9304 33.1905 34.6424L31.5748 32.0142C31.1158 31.2668 30.6959 30.5337 30.2884 29.7536L28.4937 26.3147L27.3555 23.954C27.2711 23.9846 27.1908 24.0377 27.1805 24.0765L27.7589 26.5536L27.7609 26.5557ZM19.3326 16.5922C19.137 16.9005 19.0259 17.2354 19.2235 17.5908C19.4087 17.9277 19.6866 17.9869 19.9398 18.0012C20.0262 18.0053 20.1106 18.0053 20.1867 18.0094C20.302 18.0135 20.4008 18.0278 20.4646 18.0849C20.5387 18.8834 21.0162 19.3102 21.7366 19.3592C21.8333 19.3654 21.9342 19.3654 22.0391 19.3592C22.0576 19.3592 22.0762 19.3572 22.0947 19.3551C22.1955 19.6329 22.284 19.9617 22.4446 20.1516C22.6628 20.4089 22.8809 20.4906 23.0826 20.4987C23.1114 20.4987 23.1382 20.4987 23.167 20.4987C23.3955 20.4865 23.5992 20.3966 23.7495 20.3864C23.766 20.3864 23.7804 20.3864 23.7968 20.3864C23.8936 20.3925 23.9656 20.4456 23.9985 20.6029C24.1303 21.2176 24.6283 21.6505 25.2108 21.6995C25.2808 21.7056 25.3528 21.7056 25.4249 21.6995C25.5278 21.6913 25.6307 21.6709 25.7336 21.6403C26.2337 21.483 26.1843 20.9521 26.1164 20.5355L27.4254 18.5506C27.6724 18.1768 27.8556 17.75 27.6024 17.3375C27.4707 17.1252 27.267 16.9924 27.0303 16.9781C27.0056 16.9781 26.9809 16.9761 26.9562 16.9781C26.9459 16.9781 26.9356 16.9781 26.9253 16.9781C26.8594 16.9822 26.7936 16.9965 26.7256 17.019C26.4457 17.1109 26.3181 17.4253 26.1617 17.6724L24.8197 19.8085C24.795 19.8248 24.756 19.833 24.7127 19.8371C24.6901 19.8371 24.6654 19.8391 24.6427 19.8371C24.5707 19.833 24.4987 19.8187 24.4678 19.7922C24.4081 19.7391 24.3299 19.6022 24.3196 19.5063L25.7048 17.2722C25.8736 17.0026 26.102 16.8291 26.2831 16.6269C26.5898 16.2858 26.2234 15.7202 25.9127 15.5446C25.7912 15.4772 25.676 15.4404 25.5648 15.4322C25.536 15.4302 25.5072 15.4302 25.4784 15.4322C25.2561 15.4465 25.0626 15.5813 24.9227 15.81L23.1855 18.6139C23.1135 18.7303 22.9962 18.7895 22.885 18.7956C22.8665 18.7956 22.8501 18.7956 22.8315 18.7956C22.7945 18.7915 22.7595 18.7834 22.7286 18.767C22.4837 18.6384 22.5537 18.4321 22.673 18.2422L24.474 15.3689C24.6427 15.0994 24.6345 14.8298 24.3917 14.5419C24.2805 14.4091 24.0582 14.2703 23.8894 14.2437C23.8812 14.2437 23.8709 14.2437 23.8606 14.2396C23.8421 14.2396 23.8215 14.2396 23.8009 14.2396C23.6219 14.2478 23.3461 14.3356 23.2535 14.4847L21.4258 17.4437C21.364 17.5438 21.2364 17.601 21.117 17.6071C21.0985 17.6071 21.08 17.6071 21.0615 17.6071C21.0471 17.6071 21.0327 17.6071 21.0203 17.603C20.905 17.5805 20.7383 17.3641 20.8289 17.2191L22.4796 14.5582C22.5701 14.4132 22.673 14.3132 22.7965 14.1865C22.9941 13.9864 22.8109 13.5514 22.6031 13.4228C22.4075 13.3023 22.1935 13.2329 21.9897 13.2247C21.9609 13.2247 21.93 13.2247 21.9012 13.2247C21.6357 13.237 21.3908 13.3574 21.2364 13.6005L19.3367 16.5881L19.3326 16.5922ZM11.8819 8.60339L16.2185 11.2949L19.7277 13.4391C19.8121 13.4902 19.9109 13.5229 19.9994 13.529C20.02 13.529 20.0406 13.529 20.0591 13.529C20.0879 13.529 20.1126 13.5229 20.1373 13.5147C20.2464 13.4779 20.4111 13.1798 20.3061 13.1144L13.8763 9.19153L11.0174 7.42101H11.0154C10.8939 7.54149 10.7993 7.67832 10.7046 7.84577L11.8819 8.60339ZM7.14594 6.15285L8.24709 4.55591L7.0348 4.44768L6.25679 4.33332L5.46027 4.21488L4.84076 4.1189L3.5873 3.88814C3.39589 3.85343 3.20242 3.80646 2.9966 3.79625C2.93074 3.79216 2.86282 3.79216 2.79284 3.79625C2.75168 3.80033 2.70846 3.80442 2.66523 3.81259L7.14389 6.15081L7.14594 6.15285ZM1.99014 3.44296L2.10745 2.99778L2.48411 2.3831C2.6076 2.18093 2.80724 1.99919 2.98425 1.77047C2.90192 1.74596 2.82166 1.72962 2.74139 1.7235C2.69817 1.71941 2.65494 1.71941 2.61172 1.7235C2.03954 1.75004 1.5785 2.23403 1.5291 2.70167C1.49205 3.04475 1.61143 3.33881 1.9922 3.445L1.99014 3.44296Z" fill="#00256C"/>
</g>
<path d="M110 27.7468L112.607 24.623C114.191 25.8385 116.005 26.3414 117.717 26.3414C118.592 26.3414 118.967 26.1097 118.967 25.7127V25.6708C118.967 25.2517 118.509 25.0199 116.944 24.7068C113.671 24.0362 110.792 23.0919 110.792 19.9903V19.9483C110.792 17.1598 112.96 15 116.986 15C119.801 15 121.885 15.6707 123.575 17.0119L121.199 20.3256C119.823 19.3196 118.175 18.8783 116.819 18.8783C116.089 18.8783 115.755 19.1298 115.755 19.4873V19.5292C115.755 19.9286 116.152 20.1801 117.695 20.4735C121.427 21.1663 123.93 22.2561 123.93 25.2122V25.2541C123.93 28.336 121.407 30.2222 117.486 30.2222C114.524 30.2222 111.856 29.3839 110 27.7492V27.7468Z" fill="white"/>
<path d="M129.518 19.4231H125.222V15.2711H138.694V19.4231H134.398V29.9484H129.518V19.4231Z" fill="white"/>
<path d="M141.048 15.2711H153.498V19.2973H145.845V20.7865H152.975V24.3294H145.845V25.9222H153.601V29.9484H141.048V15.2711Z" fill="white"/>
<path d="M155.101 15.2711H160.565L163.402 23.5109L166.239 15.2711H171.619L165.697 30.0519H161.026L155.104 15.2711H155.101Z" fill="white"/>
<path d="M173.47 15.2711H185.919V19.2973H178.266V20.7865H185.397V24.3294H178.266V25.9222H186.022V29.9484H173.47V15.2711Z" fill="white"/>
<path d="M190.11 20.0937H188.317V15.2711H193.05V20.6879L188.462 23.7007L190.11 20.0937Z" fill="white"/>
<path d="M194.008 27.7467L196.615 24.6229C198.199 25.8384 200.013 26.3414 201.723 26.3414C202.598 26.3414 202.973 26.1096 202.973 25.7127V25.6708C202.973 25.2516 202.515 25.0199 200.95 24.7068C197.677 24.0361 194.798 23.0918 194.798 19.9902V19.9483C194.798 17.1598 196.966 15 200.992 15C203.807 15 205.891 15.6706 207.581 17.0119L205.202 20.3255C203.826 19.3196 202.179 18.8783 200.823 18.8783C200.092 18.8783 199.758 19.1297 199.758 19.4872V19.5292C199.758 19.9286 200.156 20.1801 201.698 20.4735C205.43 21.1663 207.934 22.256 207.934 25.2122V25.2541C207.934 28.336 205.411 30.2221 201.49 30.2221C198.528 30.2221 195.86 29.3839 194.003 27.7492L194.008 27.7467Z" fill="white"/>
<path d="M216.862 15.2711H223.431C227.31 15.2711 229.958 17.0118 229.958 20.4931V20.535C229.958 24.078 227.268 25.9666 223.328 25.9666H221.744V29.9508H216.864V15.2736L216.862 15.2711ZM223.056 22.463C224.306 22.463 225.14 21.896 225.14 20.8481V20.8062C225.14 19.7362 224.368 19.1913 223.075 19.1913H221.741V22.463H223.056Z" fill="white"/>
<path d="M232.249 15.2711H239.379C241.966 15.2711 243.612 15.922 244.634 16.9477C245.509 17.8279 245.968 18.9176 245.968 20.429V20.4709C245.968 22.6085 244.862 24.0977 243.089 24.9581L246.488 29.9484H240.919L238.165 25.7545H237.123V29.9484H232.244V15.2711H232.249ZM239.235 22.2535C240.402 22.2535 241.11 21.7283 241.11 20.8284V20.7865C241.11 19.8422 240.38 19.3811 239.254 19.3811H237.128V22.2535H239.235Z" fill="white"/>
<path d="M248.408 15.2711H260.857V19.2973H253.204V20.7865H260.335V24.3294H253.204V25.9222H260.96V29.9484H248.408V15.2711Z" fill="white"/>
<path d="M263.525 15.2711H268.613L271.742 20.429L274.871 15.2711H279.959V29.9484H275.101V22.6726L271.744 27.8921H271.661L268.304 22.6726V29.9484H263.53V15.2711H263.525Z" fill="white"/>
<path d="M282.916 15.2711H287.796V29.9484H282.916V15.2711Z" fill="white"/>
<path d="M290.633 23.363V15.2687H295.596V23.2989C295.596 25.1234 296.535 25.9 297.847 25.9C299.159 25.9 300.098 25.1875 300.098 23.4049V15.2687H305.061V23.257C305.061 28.2669 302.163 30.2393 297.805 30.2393C293.448 30.2393 290.633 28.2275 290.633 23.363Z" fill="white"/>
<path d="M307.854 15.2711H312.942L316.071 20.429L319.2 15.2711H324.288V29.9484H319.43V22.6726L316.073 27.8921H315.99L312.633 22.6726V29.9484H307.859V15.2711H307.854Z" fill="white"/>
<path d="M111.211 37.0122H117.781C121.66 37.0122 124.308 38.7528 124.308 42.2342V42.2761C124.308 45.819 121.618 47.7076 117.678 47.7076H116.094V51.6919H111.214V37.0146L111.211 37.0122ZM117.403 44.2041C118.654 44.2041 119.487 43.637 119.487 42.5892V42.5473C119.487 41.4772 118.715 40.9324 117.423 40.9324H116.089V44.2041H117.403Z" fill="white"/>
<path d="M126.598 37.0122H133.729C136.313 37.0122 137.961 37.6631 138.984 38.6887C139.859 39.5689 140.318 40.6587 140.318 42.17V42.212C140.318 44.3496 139.212 45.8388 137.439 46.6992L140.837 51.6894H135.269L132.515 47.4956H131.473V51.6894H126.593V37.0122H126.598ZM133.584 43.9945C134.751 43.9945 135.46 43.4694 135.46 42.5695V42.5275C135.46 41.5833 134.729 41.1222 133.604 41.1222H131.478V43.9945H133.584Z" fill="white"/>
<path d="M142.757 37.0122H155.207V41.0384H147.554V42.5275H154.684V46.0705H147.554V47.6632H155.31V51.6894H142.757V37.0122Z" fill="white"/>
<path d="M156.666 49.4878L159.272 46.364C160.856 47.5795 162.671 48.0825 164.38 48.0825C165.255 48.0825 165.63 47.8507 165.63 47.4538V47.4118C165.63 46.9927 165.172 46.7609 163.607 46.4478C160.334 45.7772 157.455 44.8329 157.455 41.7313V41.6894C157.455 38.9009 159.623 36.7411 163.649 36.7411C166.464 36.7411 168.548 37.4117 170.238 38.7529L167.859 42.0666C166.484 41.0606 164.836 40.6193 163.48 40.6193C162.749 40.6193 162.416 40.8708 162.416 41.2283V41.2702C162.416 41.6696 162.813 41.9211 164.355 42.2145C168.087 42.9073 170.591 43.9971 170.591 46.9532V46.9952C170.591 50.0771 168.068 51.9632 164.147 51.9632C161.185 51.9632 158.517 51.1249 156.661 49.4903L156.666 49.4878Z" fill="white"/>
<path d="M171.552 49.4878L174.159 46.364C175.743 47.5795 177.557 48.0825 179.267 48.0825C180.142 48.0825 180.517 47.8507 180.517 47.4538V47.4118C180.517 46.9927 180.059 46.7609 178.494 46.4478C175.221 45.7772 172.342 44.8329 172.342 41.7313V41.6894C172.342 38.9009 174.509 36.7411 178.536 36.7411C181.351 36.7411 183.435 37.4117 185.125 38.7529L182.746 42.0666C181.37 41.0606 179.723 40.6193 178.367 40.6193C177.636 40.6193 177.302 40.8708 177.302 41.2283V41.2702C177.302 41.6696 177.7 41.9211 179.242 42.2145C182.974 42.9073 185.478 43.9971 185.478 46.9532V46.9952C185.478 50.0771 182.954 51.9632 179.034 51.9632C176.071 51.9632 173.404 51.1249 171.547 49.4903L171.552 49.4878Z" fill="white"/>
<path d="M187.733 45.104V37.0097H192.696V45.0399C192.696 46.8644 193.636 47.6411 194.947 47.6411C196.259 47.6411 197.198 46.9285 197.198 45.146V37.0097H202.161V44.998C202.161 50.008 199.263 51.9804 194.906 51.9804C190.548 51.9804 187.733 49.9685 187.733 45.104Z" fill="white"/>
<path d="M204.954 37.0122H212.085C214.672 37.0122 216.317 37.6631 217.34 38.6887C218.215 39.5689 218.674 40.6587 218.674 42.17V42.212C218.674 44.3496 217.568 45.8388 215.795 46.6992L219.194 51.6894H213.625L210.871 47.4956H209.829V51.6894H204.949V37.0122H204.954ZM211.94 43.9945C213.108 43.9945 213.816 43.4694 213.816 42.5695V42.5275C213.816 41.5833 213.086 41.1222 211.96 41.1222H209.834V43.9945H211.94Z" fill="white"/>
<path d="M221.114 37.0122H233.563V41.0384H225.91V42.5275H233.041V46.0705H225.91V47.6632H233.666V51.6894H221.114V37.0122Z" fill="white"/>
<path d="M241.944 37.0122H247.052L249.117 44.0562L251.473 36.9703H255.686L258.042 44.0562L260.107 37.0122H265.134L260.36 51.7931H256.105L253.54 44.4976L250.975 51.7931H246.721L241.947 37.0122H241.944Z" fill="white"/>
<path d="M270.428 36.9061H275.266L281.418 51.6869H276.121L275.349 49.717H270.241L269.491 51.6869H264.278L270.43 36.9061H270.428ZM274.14 46.2381L272.806 42.673L271.472 46.2381H274.143H274.14Z" fill="white"/>
<path d="M281.852 49.4878L284.458 46.364C286.042 47.5795 287.857 48.0825 289.566 48.0825C290.441 48.0825 290.817 47.8507 290.817 47.4538V47.4118C290.817 46.9927 290.358 46.7609 288.794 46.4478C285.52 45.7772 282.641 44.8329 282.641 41.7313V41.6894C282.641 38.9009 284.809 36.7411 288.835 36.7411C291.65 36.7411 293.735 37.4117 295.424 38.7529L293.046 42.0666C291.67 41.0606 290.022 40.6193 288.666 40.6193C287.935 40.6193 287.602 40.8708 287.602 41.2283V41.2702C287.602 41.6696 287.999 41.9211 289.542 42.2145C293.274 42.9073 295.777 43.9971 295.777 46.9532V46.9952C295.777 50.0771 293.254 51.9632 289.333 51.9632C286.371 51.9632 283.703 51.1249 281.847 49.4903L281.852 49.4878Z" fill="white"/>
<path d="M298.158 37.0122H303.038V42.1922H307.501V37.0122H312.38V51.6894H307.501V46.428H303.038V51.6894H298.158V37.0122Z" fill="white"/>
<path d="M315.34 37.0122H320.219V51.6894H315.34V37.0122Z" fill="white"/>
<path d="M323.179 37.0122H327.745L332.939 43.4916V37.0122H337.776V51.6894H333.439L328.017 44.9166V51.6894H323.179V37.0122Z" fill="white"/>
<path d="M340.361 44.3914V44.3495C340.361 39.9682 343.801 36.6965 348.411 36.6965C350.912 36.6965 352.935 37.5348 354.522 38.9179L351.79 42.2316C350.831 41.413 349.767 40.952 348.558 40.952C346.66 40.952 345.285 42.419 345.285 44.4111V44.453C345.285 46.529 346.724 47.9541 348.767 47.9541C349.601 47.9541 350.059 47.8283 350.434 47.6188V46.1518H347.931V43.0058H355V49.7983C353.416 51.0976 351.204 52 348.556 52C344.01 52 340.361 48.9378 340.361 44.3889V44.3914Z" fill="white"/>
</svg>
