<svg xmlns="http://www.w3.org/2000/svg" width="19" height="20" viewBox="0 0 19 20" fill="none">
  <path d="M15.0413 3.33301H3.95801C3.32812 3.33301 2.72403 3.5964 2.27863 4.06524C1.83323 4.53408 1.58301 5.16997 1.58301 5.83301V14.1663C1.58301 14.8294 1.83323 15.4653 2.27863 15.9341C2.72403 16.4029 3.32812 16.6663 3.95801 16.6663H15.0413C15.6712 16.6663 16.2753 16.4029 16.7207 15.9341C17.1661 15.4653 17.4163 14.8294 17.4163 14.1663V5.83301C17.4163 5.16997 17.1661 4.53408 16.7207 4.06524C16.2753 3.5964 15.6712 3.33301 15.0413 3.33301ZM14.5109 4.99967L9.49967 8.95801L4.48842 4.99967H14.5109ZM15.0413 14.9997H3.95801C3.74804 14.9997 3.54668 14.9119 3.39822 14.7556C3.24975 14.5993 3.16634 14.3874 3.16634 14.1663V6.04134L9.02467 10.6663C9.16171 10.7745 9.32838 10.833 9.49967 10.833C9.67097 10.833 9.83764 10.7745 9.97467 10.6663L15.833 6.04134V14.1663C15.833 14.3874 15.7496 14.5993 15.6011 14.7556C15.4527 14.9119 15.2513 14.9997 15.0413 14.9997Z" fill="#fff"/>
</svg>