<svg xmlns="http://www.w3.org/2000/svg" width="18" height="19" viewBox="0 0 18 19" fill="none">
  <g clip-path="url(#clip0_8_1174)">
    <path d="M9.5 2.62134C7.9529 2.62134 6.46917 3.2189 5.37521 4.28258C4.28125 5.34626 3.66667 6.78891 3.66667 8.29318C3.66667 10.6122 5.15167 12.8493 6.78167 14.5824C7.61512 15.4653 8.52453 16.2775 9.5 17.01C9.64556 16.9014 9.81639 16.7691 10.0125 16.613C10.7957 15.9877 11.5328 15.3097 12.2183 14.5841C13.8483 12.8493 15.3333 10.613 15.3333 8.29318C15.3333 6.78891 14.7188 5.34626 13.6248 4.28258C12.5308 3.2189 11.0471 2.62134 9.5 2.62134ZM9.5 19L9.0275 18.684L9.025 18.6824L9.02 18.6783L9.00333 18.667L8.94083 18.624L8.71583 18.4644C7.57572 17.6313 6.51656 16.6983 5.55167 15.6771C3.84833 13.8637 2 11.2393 2 8.29237C2 6.35831 2.79018 4.50347 4.1967 3.13589C5.60322 1.7683 7.51088 1 9.5 1C11.4891 1 13.3968 1.7683 14.8033 3.13589C16.2098 4.50347 17 6.35831 17 8.29237C17 11.2393 15.1517 13.8646 13.4483 15.6755C12.4837 16.6966 11.4248 17.6296 10.285 18.4628C10.19 18.5318 10.0942 18.5996 9.9975 18.6662L9.98 18.6775L9.975 18.6816L9.97333 18.6824L9.5 19ZM9.5 6.67265C9.05797 6.67265 8.63405 6.84339 8.32149 7.14729C8.00893 7.4512 7.83333 7.86339 7.83333 8.29318C7.83333 8.72297 8.00893 9.13516 8.32149 9.43906C8.63405 9.74297 9.05797 9.91371 9.5 9.91371C9.94203 9.91371 10.366 9.74297 10.6785 9.43906C10.9911 9.13516 11.1667 8.72297 11.1667 8.29318C11.1667 7.86339 10.9911 7.4512 10.6785 7.14729C10.366 6.84339 9.94203 6.67265 9.5 6.67265ZM6.16667 8.29318C6.16667 7.4336 6.51786 6.60922 7.14298 6.00141C7.7681 5.39359 8.61594 5.05213 9.5 5.05213C10.3841 5.05213 11.2319 5.39359 11.857 6.00141C12.4821 6.60922 12.8333 7.4336 12.8333 8.29318C12.8333 9.15276 12.4821 9.97714 11.857 10.585C11.2319 11.1928 10.3841 11.5342 9.5 11.5342C8.61594 11.5342 7.7681 11.1928 7.14298 10.585C6.51786 9.97714 6.16667 9.15276 6.16667 8.29318Z" fill="white"/>
  </g>
  <defs>
    <clipPath id="clip0_8_1174">
      <rect width="18" height="19" fill="white"/>
    </clipPath>
  </defs>
</svg>