<svg xmlns="http://www.w3.org/2000/svg" width="24" height="16" viewBox="0 0 24 16" fill="none">
  <path d="M0 0V16H24V0H0ZM6 13.7143C6 12.805 5.62072 11.9329 4.94558 11.2899C4.27045 10.6469 3.35478 10.2857 2.4 10.2857V5.71429C3.35478 5.71429 4.27045 5.35306 4.94558 4.71008C5.62072 4.0671 6 3.19503 6 2.28571H18C18 3.19503 18.3793 4.0671 19.0544 4.71008C19.7295 5.35306 20.6452 5.71429 21.6 5.71429V10.2857C20.6452 10.2857 19.7295 10.6469 19.0544 11.2899C18.3793 11.9329 18 12.805 18 13.7143H6ZM12 4.57143C13.32 4.57143 14.4 6.05714 14.4 8C14.4 9.94286 13.32 11.4286 12 11.4286C10.68 11.4286 9.6 9.94286 9.6 8C9.6 6.05714 10.68 4.57143 12 4.57143Z" fill="#00256C"/>
</svg>