<svg xmlns="http://www.w3.org/2000/svg" width="40" height="40" viewBox="0 0 40 40" fill="none">
  <rect width="40" height="40" rx="8" fill="#011F57"/>
  <path d="M8 12V28H32V12H8ZM14 25.7143C14 24.805 13.6207 23.9329 12.9456 23.2899C12.2705 22.6469 11.3548 22.2857 10.4 22.2857V17.7143C11.3548 17.7143 12.2705 17.3531 12.9456 16.7101C13.6207 16.0671 14 15.195 14 14.2857H26C26 15.195 26.3793 16.0671 27.0544 16.7101C27.7295 17.3531 28.6452 17.7143 29.6 17.7143V22.2857C28.6452 22.2857 27.7295 22.6469 27.0544 23.2899C26.3793 23.9329 26 24.805 26 25.7143H14ZM20 16.5714C21.32 16.5714 22.4 18.0571 22.4 20C22.4 21.9429 21.32 23.4286 20 23.4286C18.68 23.4286 17.6 21.9429 17.6 20C17.6 18.0571 18.68 16.5714 20 16.5714Z" fill="#EFAF20"/>
</svg>