<svg xmlns="http://www.w3.org/2000/svg" width="120" height="17" viewBox="0 0 120 17" fill="none">
  <g clip-path="url(#clip0_87_5152)">
    <path d="M48.1296 4.52374C52.0493 4.52374 53.9406 7.50774 53.9406 10.4223C53.9406 10.9127 53.8957 11.4233 53.8957 11.4956H45.1563C45.4111 13.4316 46.6101 14.5273 48.3609 14.5273C49.6991 14.5273 50.7132 13.922 50.9901 12.8494H53.8714C53.4789 15.4834 51.2414 17 48.2909 17C44.3484 17 42.2958 13.9213 42.2958 10.7514C42.2958 7.58006 44.2106 4.52374 48.1296 4.52374ZM69.6929 4.71178H72.4842V7.15915H69.6936V12.6853C69.6936 13.828 70.3859 14.4579 71.3537 14.4579C71.769 14.4579 72.1594 14.3892 72.4842 14.2952V16.8366C72.1159 16.9306 71.607 17 71.0075 17C68.5409 17 66.7881 15.6946 66.7881 12.989V7.15987H65.0059V4.71105H66.7881V1.14269H69.6929V4.71178ZM85.1332 16.8134H82.2284V15.3908C81.6746 16.3006 80.3614 17 78.8155 17C75.2412 17 73.0973 14.4355 73.0973 10.7492C73.0973 7.06513 75.2641 4.52229 78.7698 4.52229C80.2457 4.52229 81.5361 5.15222 82.2284 6.08662V0.00072321H85.1332V16.8134ZM92.3866 4.52446C95.938 4.52446 98.4981 7.15987 98.4981 10.7499C98.4981 14.34 95.9152 16.9986 92.3866 16.9986C88.8581 16.9986 86.2766 14.3414 86.2766 10.7499C86.2766 7.15843 88.8352 4.52446 92.3866 4.52446ZM105.415 4.52446C108.966 4.52446 111.526 7.15987 111.526 10.7499C111.526 14.34 108.943 16.9986 105.415 16.9986C101.886 16.9986 99.3046 14.3414 99.3046 10.7499C99.3046 7.15843 101.863 4.52446 105.415 4.52446ZM6.70386 0.00072321V2.39169L10.458 0.00072321L20.9166 6.65868L19.2844 9.2912L17.2717 8.0111V16.8199H3.64419V8.01038L1.63225 9.29048L0 6.65796L3.63563 4.34366V0.00072321H6.70386ZM36.4005 9.14222C37.0116 10.156 37.5888 11.1903 38.1313 12.2434C38.1313 12.2434 38.0378 10.7029 38.0378 8.6743V0.00072321H41.1039V16.8134H37.7837L32.1811 7.71892C31.1491 5.97958 30.4589 4.63294 30.4511 4.61776C30.4525 4.63801 30.5667 6.16906 30.5667 8.18612V16.8141H27.4763V0H30.7979L36.4005 9.1415V9.14222ZM59.1121 8.25555L61.4417 4.71033H64.6013L60.7044 10.6566L64.7619 16.8134H61.533L59.1121 13.1062H59.11L56.6663 16.8134H53.4624L57.5206 10.6805L53.6009 4.71033H56.7598L59.1121 8.25555ZM119.194 4.52374C119.539 4.52374 119.77 4.54688 120 4.59317V7.39058C119.655 7.32115 119.286 7.25172 118.847 7.25172C117.165 7.25172 115.596 8.7213 115.596 12.3591V16.8141H112.692V4.70961H115.596V6.92411C116.127 5.54782 117.74 4.52302 119.194 4.52302V4.52374ZM79.2309 7.06513C77.3167 7.06513 76.0499 8.53472 76.0499 10.7492C76.0499 12.9644 77.3167 14.4564 79.2309 14.4564C81.145 14.4564 82.4126 12.9644 82.4126 10.7492C82.4126 8.53399 81.145 7.06513 79.2309 7.06513ZM92.3866 7.06513C90.5431 7.06513 89.2513 8.58028 89.2513 10.7492C89.2513 12.9189 90.4725 14.4564 92.3866 14.4564C94.3008 14.4564 95.5455 12.9413 95.5455 10.7492C95.5455 8.55786 94.2309 7.06586 92.3866 7.06586V7.06513ZM105.415 7.06513C103.571 7.06513 102.279 8.58028 102.279 10.7492C102.279 12.9181 103.5 14.4564 105.415 14.4564C107.329 14.4564 108.574 12.9413 108.574 10.7492C108.574 8.55786 107.259 7.06586 105.415 7.06586V7.06513ZM48.1282 6.76138C46.6294 6.76138 45.6145 7.67119 45.2469 9.28035H50.8032C50.6868 7.83392 49.7654 6.7621 48.1282 6.7621V6.76138Z" fill="white"/>
  </g>
  <defs>
    <clipPath id="clip0_87_5152">
      <rect width="120" height="17" fill="white"/>
    </clipPath>
  </defs>
</svg>