<svg xmlns="http://www.w3.org/2000/svg" width="24" height="24" viewBox="0 0 24 24" fill="none">
  <g clip-path="url(#clip0_8_1194)">
    <path fill-rule="evenodd" clip-rule="evenodd" d="M18 5.25V18.75C18 19.3467 17.7629 19.919 17.341 20.341C16.919 20.7629 16.3467 21 15.75 21H8.25C7.65326 21 7.08097 20.7629 6.65901 20.341C6.23705 19.919 6 19.3467 6 18.75V5.25C6 4.65326 6.23705 4.08097 6.65901 3.65901C7.08097 3.23705 7.65326 3 8.25 3H15.75C16.3467 3 16.919 3.23705 17.341 3.65901C17.7629 4.08097 18 4.65326 18 5.25ZM15.75 0.75C16.9435 0.75 18.0881 1.22411 18.932 2.06802C19.7759 2.91193 20.25 4.05653 20.25 5.25V18.75C20.25 19.9435 19.7759 21.0881 18.932 21.932C18.0881 22.7759 16.9435 23.25 15.75 23.25H8.25C7.05653 23.25 5.91193 22.7759 5.06802 21.932C4.22411 21.0881 3.75 19.9435 3.75 18.75V5.25C3.75 4.05653 4.22411 2.91193 5.06802 2.06802C5.91193 1.22411 7.05653 0.75 8.25 0.75H15.75ZM9.375 16.5C9.07663 16.5 8.79048 16.6185 8.5795 16.8295C8.36853 17.0405 8.25 17.3266 8.25 17.625C8.25 17.9234 8.36853 18.2095 8.5795 18.4205C8.79048 18.6315 9.07663 18.75 9.375 18.75H14.625C14.9234 18.75 15.2095 18.6315 15.4205 18.4205C15.6315 18.2095 15.75 17.9234 15.75 17.625C15.75 17.3266 15.6315 17.0405 15.4205 16.8295C15.2095 16.6185 14.9234 16.5 14.625 16.5H9.375Z" fill="#1874CA"/>
  </g>
  <defs>
    <clipPath id="clip0_8_1194">
      <rect width="24" height="24" fill="white"/>
    </clipPath>
  </defs>
</svg>