<svg xmlns="http://www.w3.org/2000/svg" width="22" height="27" viewBox="0 0 22 27" fill="none">
  <path d="M20.84 2.19781C20.6851 2.0725 20.5041 1.9835 20.3103 1.93736C20.1165 1.89121 19.9148 1.88909 19.72 1.93114C18.2953 2.22973 16.8245 2.23354 15.3982 1.94232C13.9719 1.6511 12.6203 1.07103 11.4267 0.237807C11.2035 0.0829707 10.9383 0 10.6667 0C10.395 0 10.1299 0.0829707 9.90667 0.237807C8.71302 1.07103 7.36144 1.6511 5.93516 1.94232C4.50889 2.23354 3.03809 2.22973 1.61334 1.93114C1.41859 1.88909 1.21689 1.89121 1.02308 1.93736C0.829256 1.9835 0.648242 2.0725 0.493341 2.19781C0.338647 2.3233 0.214036 2.48186 0.128664 2.66183C0.0432926 2.8418 -0.000669587 3.03861 7.70865e-06 3.23781V13.1711C-0.00117767 15.0828 0.454372 16.9671 1.32872 18.6671C2.20307 20.3671 3.47091 21.8336 5.02667 22.9445L9.89334 26.4111C10.1192 26.5719 10.3895 26.6583 10.6667 26.6583C10.9439 26.6583 11.2142 26.5719 11.44 26.4111L16.3067 22.9445C17.8624 21.8336 19.1303 20.3671 20.0046 18.6671C20.879 16.9671 21.3345 15.0828 21.3333 13.1711V3.23781C21.334 3.03861 21.2901 2.8418 21.2047 2.66183C21.1193 2.48186 20.9947 2.3233 20.84 2.19781ZM18.6667 13.1711C18.6677 14.6575 18.3137 16.1226 17.6342 17.4445C16.9547 18.7664 15.9693 19.9069 14.76 20.7711L10.6667 23.6911L6.57334 20.7711C5.36406 19.9069 4.37865 18.7664 3.69914 17.4445C3.01963 16.1226 2.66565 14.6575 2.66667 13.1711V4.77114C5.46191 5.01038 8.2614 4.36184 10.6667 2.91781C13.072 4.36184 15.8714 5.01038 18.6667 4.77114V13.1711ZM12.72 10.1178L9.13334 13.7178L7.94667 12.5178C7.6956 12.2667 7.35508 12.1257 7.00001 12.1257C6.64494 12.1257 6.30441 12.2667 6.05334 12.5178C5.80227 12.7689 5.66122 13.1094 5.66122 13.4645C5.66122 13.8195 5.80227 14.1601 6.05334 14.4111L8.18667 16.5445C8.31063 16.6694 8.45809 16.7686 8.62057 16.8363C8.78305 16.904 8.95733 16.9389 9.13334 16.9389C9.30936 16.9389 9.48363 16.904 9.64611 16.8363C9.80859 16.7686 9.95606 16.6694 10.08 16.5445L14.6667 11.9978C14.9177 11.7467 15.0588 11.4062 15.0588 11.0511C15.0588 10.6961 14.9177 10.3555 14.6667 10.1045C14.4156 9.8534 14.0751 9.71235 13.72 9.71235C13.3649 9.71235 13.0244 9.8534 12.7733 10.1045L12.72 10.1178Z" fill="#00256C"/>
</svg>