<svg xmlns="http://www.w3.org/2000/svg" width="16" height="16" viewBox="0 0 16 16" fill="none">
  <path d="M8.00001 11.5166L5.23334 13.1833C5.11112 13.2611 4.98334 13.2944 4.85001 13.2833C4.71667 13.2722 4.60001 13.2277 4.50001 13.15C4.40001 13.0722 4.32223 12.9751 4.26667 12.8586C4.21112 12.7422 4.20001 12.6115 4.23334 12.4666L4.96667 9.31663L2.51667 7.19997C2.40556 7.09997 2.33623 6.98597 2.30867 6.85797C2.28112 6.72997 2.28934 6.60508 2.33334 6.4833C2.37734 6.36152 2.44401 6.26152 2.53334 6.1833C2.62267 6.10508 2.74489 6.05508 2.90001 6.0333L6.13334 5.74997L7.38334 2.7833C7.43889 2.64997 7.52512 2.54997 7.64201 2.4833C7.75889 2.41663 7.87823 2.3833 8.00001 2.3833C8.12178 2.3833 8.24112 2.41663 8.35801 2.4833C8.47489 2.54997 8.56112 2.64997 8.61667 2.7833L9.86667 5.74997L13.1 6.0333C13.2556 6.05552 13.3778 6.10552 13.4667 6.1833C13.5556 6.26108 13.6222 6.36108 13.6667 6.4833C13.7111 6.60552 13.7196 6.73063 13.692 6.85863C13.6644 6.98663 13.5949 7.10041 13.4833 7.19997L11.0333 9.31663L11.7667 12.4666C11.8 12.6111 11.7889 12.7417 11.7333 12.8586C11.6778 12.9755 11.6 13.0726 11.5 13.15C11.4 13.2273 11.2833 13.2717 11.15 13.2833C11.0167 13.2949 10.8889 13.2615 10.7667 13.1833L8.00001 11.5166Z" fill="#E5B200"/>
</svg>