<svg xmlns="http://www.w3.org/2000/svg" width="24" height="24" viewBox="0 0 24 24" fill="none">
  <path d="M3.16411 0.276605C4.01286 -0.0260612 4.93009 -0.0816506 5.80919 0.116297C6.68829 0.314245 7.49316 0.757602 8.13027 1.39484C8.76738 2.03208 9.21057 2.83704 9.40832 3.71617C9.60608 4.59529 9.55028 5.51249 9.24742 6.36117L24 21.1135L21.1134 24L6.36084 9.24769C5.51194 9.55053 4.59451 9.60619 3.71523 9.40821C2.83594 9.21022 2.03091 8.76672 1.39374 8.12928C0.756566 7.49183 0.313421 6.68662 0.115826 5.80726C-0.0817689 4.9279 -0.0256968 4.01052 0.277524 3.16177L3.31918 6.20473C3.70402 6.57641 4.21944 6.78208 4.75445 6.77743C5.28945 6.77278 5.80123 6.55819 6.17955 6.17988C6.55787 5.80157 6.77246 5.2898 6.77711 4.75481C6.78176 4.21981 6.57609 3.70439 6.2044 3.31957L3.16411 0.276605ZM17.2665 2.83802L21.595 0.433038L23.5184 2.35784L21.1134 6.68628L18.7084 7.16646L15.8245 10.0516L13.8997 8.12818L16.7849 5.24301L17.2665 2.83802ZM7.64769 13.4183L10.5329 16.3049L3.79937 23.0383C3.42806 23.4061 2.92975 23.6174 2.4072 23.6287C1.88466 23.6399 1.37772 23.4502 0.990944 23.0987C0.604163 22.7471 0.367028 22.2606 0.328442 21.7393C0.289855 21.2181 0.452759 20.702 0.78356 20.2973L0.91551 20.1518L7.64769 13.4183Z" fill="#00256C"/>
</svg>